<svg id="Layer_1" data-name="Layer 1" xmlns="http://www.w3.org/2000/svg" viewBox="0 0 38.24 38.25"><defs><style>.cls-1{fill:#585858;}</style></defs><title>SK_CondensedLogo</title><path class="cls-1" d="M36.32,10.87h0.16L36.58,11A1.16,1.16,0,0,0,37,11a0.88,0.88,0,0,1,.43.06,0.16,0.16,0,0,0,.11,0,0.4,0.4,0,0,1,.36-0.07,0.79,0.79,0,0,1,.36.06,1.69,1.69,0,0,0,.39-0.06,2.94,2.94,0,0,1,1.1.07,0.14,0.14,0,0,0,.11,0,1.31,1.31,0,0,1,.65-0.08l0.05,0.28L40.61,11A1.58,1.58,0,0,0,41,11a0.48,0.48,0,0,1,.38,0,0.74,0.74,0,0,0,.33,0h0.74a1.17,1.17,0,0,0,.38,0c0.12,0,.22.16,0.33,0l0.31,0.14A0.49,0.49,0,0,1,43.88,11a18.15,18.15,0,0,0,.57.13L44.5,11a2.33,2.33,0,0,0,.35.06h0.89a0.56,0.56,0,0,0,.18,0,0.9,0.9,0,0,1,.78.05l0,0.2h0l0-.2,0.24,0-0.12-.15h0.41c0.21,0,.41,0,0.62,0a5,5,0,0,1,.59.08,1.2,1.2,0,0,1,.23.09l0.1,0.19a2.42,2.42,0,0,1,.07.79l-0.33.06,0.19,0.06,0,0.24L49,12.2a0.79,0.79,0,0,1-.13.67s-0.11,0-.14-0.08-0.09,0-.14,0-0.06-.11-0.13,0a0.43,0.43,0,0,1-.15.07L48.5,13l0.33-.09a1.36,1.36,0,0,0,.14.23,0.46,0.46,0,0,1,0,.15,0.62,0.62,0,0,0,0,.49,0.64,0.64,0,0,1-.07.58,0.33,0.33,0,0,1,.08.32A1,1,0,0,0,49,15a0.57,0.57,0,0,0,0,.24,0.61,0.61,0,0,1,0,.32c0,0.11,0,.22,0,0.33s0,0.21-.05.27a2.28,2.28,0,0,1,.05.29c0,0.19,0,.39,0,0.58-0.19.17,0,.34,0,0.52a5,5,0,0,0,.07,1.33,0.21,0.21,0,0,1,0,.09l-0.11,0c0,0.17.09,0.32,0.13,0.48a0.2,0.2,0,0,1,0,.15A0.47,0.47,0,0,0,49,20c0,0.41,0,.83,0,1.24a1.37,1.37,0,0,1-.06.28,0.78,0.78,0,0,1,.06.24,4.2,4.2,0,0,1-.06.94,0.76,0.76,0,0,0,.06.66,3.5,3.5,0,0,1-.07,1,1,1,0,0,0,0,.42c0,0.15.06,0.29,0.07,0.43a4.74,4.74,0,0,0,.07,1.13,0.33,0.33,0,0,1-.07.39,1.62,1.62,0,0,1-.08.71,0.08,0.08,0,0,0,0,.07,0.31,0.31,0,0,1,.07.32,2.68,2.68,0,0,1-.06.9,1,1,0,0,0,.07.35,6.23,6.23,0,0,0,.07,1.38l-0.16.17V31l-0.18,0,0.19,0.07a2.72,2.72,0,0,0,.09.46,0.81,0.81,0,0,0,0,.4l-0.21.42,0.21,0a0.57,0.57,0,0,1,0,.2,0.88,0.88,0,0,0,0,.72,0.38,0.38,0,0,1-.07.39H48.7a2,2,0,0,0-.11.26v0l-0.23,0a0.13,0.13,0,0,0,.1.05,0.2,0.2,0,0,0,.13,0,0.23,0.23,0,0,1,.13,0l0-.18,0.15-.13a0.14,0.14,0,0,1,.06,0,1.75,1.75,0,0,1-.12.65,0.78,0.78,0,0,1,.05.47l-0.24.06L49,35v0.62l-0.15,0,0.09-.43H48.75v0.3l-0.06,0-0.2.28h0.4a1.64,1.64,0,0,0,.08.59,0.77,0.77,0,0,0,0,.6,0.74,0.74,0,0,0,.06.57,2.69,2.69,0,0,0-.06,1,2.34,2.34,0,0,0,.06,1,1.64,1.64,0,0,0-.07.76c0,0.26,0,.51,0,0.77-0.19.21,0.2,0.48-.06,0.69a1.63,1.63,0,0,1,.08.65l-0.18.2L49,42.59a2,2,0,0,1-.08.74,0.43,0.43,0,0,0,0,.3,2.66,2.66,0,0,1,0,1,0.08,0.08,0,0,1,0,0L49,45.07l0,0.07-0.16.29a3.36,3.36,0,0,0,0,.43,0.61,0.61,0,0,1,0,.46l-0.08.06a0.67,0.67,0,0,1,.05.61,0.44,0.44,0,0,0,0,.17,0.64,0.64,0,0,1,0,.55,0.74,0.74,0,0,0-.07.54,1.32,1.32,0,0,1,.06.36l-0.31.32H48.22a0.84,0.84,0,0,0-.44.07,0.22,0.22,0,0,1-.18,0,1.48,1.48,0,0,0-.6-0.05,1.06,1.06,0,0,1-.71.07,1.29,1.29,0,0,1-.71-0.06,0.7,0.7,0,0,0-.33,0A0.53,0.53,0,0,1,45,49a0.52,0.52,0,0,0-.29-0.05,2.19,2.19,0,0,0-.51.07c-0.33,0-.67,0-1,0a0.64,0.64,0,0,0-.16-0.15h0l0-.23a0.13,0.13,0,0,0-.05.1,0.2,0.2,0,0,0,0,.13A0.38,0.38,0,0,1,43,49a3.93,3.93,0,0,0-.54,0A2.36,2.36,0,0,0,42,49a1.81,1.81,0,0,1-.53,0H41.32a0.44,0.44,0,0,1,0-.08l0,0h0.15V48.77a0.51,0.51,0,0,0-.16.14,3,3,0,0,0-.45.1c-0.13,0-.25,0-0.38,0s-0.27,0-.41,0a0.55,0.55,0,0,1-.19-0.06,2,2,0,0,1-.29.06H38.78a1.7,1.7,0,0,0-.3.06A1.07,1.07,0,0,0,38.27,49a6.49,6.49,0,0,0-.66,0,0.77,0.77,0,0,1-.31-0.08h0l0-.23H37.26a0.58,0.58,0,0,0,0,.23c-0.05.18-.16,0-0.27,0l-0.14.15L36.41,49a0.11,0.11,0,0,1,0,0,1.53,1.53,0,0,0-.55.08,0.53,0.53,0,0,1-.21,0,1.4,1.4,0,0,0-.29,0,1.18,1.18,0,0,0-.23.08L35,48.92a0.24,0.24,0,0,1-.07.07,2.47,2.47,0,0,1-.94,0,0.71,0.71,0,0,0-.29,0,1.72,1.72,0,0,1-.57.1l-0.15-.13c-0.24,0-.43.06-0.61,0.06H31.18a0.46,0.46,0,0,1-.23,0,0.77,0.77,0,0,0-.52-0.07,1,1,0,0,0-.55.07,0.48,0.48,0,0,1-.25,0,0.29,0.29,0,0,0-.14,0,1.84,1.84,0,0,1-.82.07,0.47,0.47,0,0,1-.18-0.07,1.55,1.55,0,0,1-1,0l-0.32.16-0.31-.16a2.63,2.63,0,0,1-1.3,0,1.33,1.33,0,0,1-.28.06A8.66,8.66,0,0,1,23.76,49c0,0.1-.16,0-0.25.05a2.52,2.52,0,0,0-1,.1l-0.2-.17a5.5,5.5,0,0,1-.63.07c-0.18,0-.37-0.07-0.55-0.07a2.24,2.24,0,0,0-.82.06,0.59,0.59,0,0,1-.43-0.06c-0.13-.06-0.27.12-0.43,0.07L19.29,49a0.27,0.27,0,0,0-.18,0,0.28,0.28,0,0,1-.25.06H17.58l-0.18-.25-0.05.16H17.17L17,48.61l-0.06,0L17,48.83,16.88,49l-0.1-.2L16.71,49c-0.29-.16-0.62,0-1-0.17L15.7,49l-0.08-.24L15.47,49l-0.68.1-0.3-.2,0.08-.09-0.11,0-0.14.18c0-.1-0.07-0.21-0.25-0.14a1.38,1.38,0,0,0,.25.14,0.37,0.37,0,0,1-.09.06l-0.46.07-0.28-.15a0.42,0.42,0,0,1-.36-0.07,0.63,0.63,0,0,1-.46.09l0.11-.12a0.6,0.6,0,0,1-.18-0.25,0.22,0.22,0,0,1,0,.09,0.07,0.07,0,0,0,.06,0l0.11-.1c-0.09,0-.15-0.08-0.2,0s0,0.37-.09.44a3,3,0,0,1-1.11-.1l0-.15-0.09.19-0.21-.26,0,0h0.15V48.54a0.51,0.51,0,0,0-.16.14,0,0,0,0,1,0,0c0-.26,0-0.51,0-0.77,0.13-.08,0-0.16,0-0.25a0.6,0.6,0,0,0,0-.31,2.53,2.53,0,0,1-.06-0.94A0.13,0.13,0,0,1,11,46.33,2.45,2.45,0,0,1,10.92,46a1.55,1.55,0,0,1,0-.46,2.75,2.75,0,0,0,0-.45c0-.37.07-0.75,0.1-1.12l0.13,0A0.9,0.9,0,0,1,11,43.79a0.54,0.54,0,0,1,0-.53,0.34,0.34,0,0,0,0-.32,0.49,0.49,0,0,1,0-.18,0.11,0.11,0,0,1,0,0l0.11,0.09a0.35,0.35,0,0,0-.23-0.33V42h0L11,41.16l0-.45,0.33,0,0-.13L11,40.64a0.71,0.71,0,0,0,0-.3,0.3,0.3,0,0,1-.07-0.21,2,2,0,0,0,0-.22,1.45,1.45,0,0,0,0-.23l0.06,0,0.11,0.17,0.13-.1A2.35,2.35,0,0,1,11,39.58a0.32,0.32,0,0,1,0-.14l0.3,0.05,0.09-.09-0.18-.09L11,39.38a1.15,1.15,0,0,0-.09-0.46A0.16,0.16,0,0,1,11,38.68c0.07,0.13.19,0.05,0.29,0.06l0-.06H11a0.29,0.29,0,0,1,0-.3l0.26,0L11,38.27a1.49,1.49,0,0,1,0-.33,0.8,0.8,0,0,1,0-.38,0.83,0.83,0,0,0,0-.15,1.31,1.31,0,0,1,0-.71,0.39,0.39,0,0,0,0-.37,0.52,0.52,0,0,1,0-.24l0.21,0.09,0,0L11,36a1.8,1.8,0,0,0-.08-0.72,0.2,0.2,0,0,1,0-.19A0.49,0.49,0,0,0,11,34.71a1.66,1.66,0,0,0-.08-0.59A3.05,3.05,0,0,1,11,33.49a0.1,0.1,0,0,0,0,0,0.84,0.84,0,0,1-.07-0.24c0-.09.07-0.19,0.07-0.28s-0.07-.26-0.07-0.39A2.37,2.37,0,0,1,11,31.6a0.32,0.32,0,0,0,0-.22,1,1,0,0,1,0-.67,1.29,1.29,0,0,0,0-.53A4.17,4.17,0,0,0,11,29.64l0,0a0.64,0.64,0,0,1,0-.52,2.68,2.68,0,0,0,0-1.18,0.79,0.79,0,0,1,0-.46,0.86,0.86,0,0,0,0-.59,1.52,1.52,0,0,1,0-.91,0.28,0.28,0,0,0,0-.22,0.44,0.44,0,0,1,.09-0.52l-0.15-.29L11,24.82l-0.08-.14,0.1-.12A0.71,0.71,0,0,1,11,23.92a1,1,0,0,0,0-.55,0.74,0.74,0,0,1,0-.18c0-.26,0-0.52,0-0.78A1,1,0,0,1,11,22.17a0.28,0.28,0,0,1-.07-0.38A1,1,0,0,0,11,21.24a0.87,0.87,0,0,0-.06-0.56,0.74,0.74,0,0,0,0-.28,0.11,0.11,0,0,1,0-.11A0.3,0.3,0,0,0,11,20a3.67,3.67,0,0,0,0-.47c0-.16-0.07-0.32-0.07-0.47A8,8,0,0,1,11,17.82a7.89,7.89,0,0,0,0-1.2,1,1,0,0,0,0-.19,1.23,1.23,0,0,1,0-.9l-0.17-.23q0-.12,0-0.23L11,15c0-.16,0-0.31,0-0.47a1.74,1.74,0,0,0-.06-0.59,0.87,0.87,0,0,1,0-.53,5,5,0,0,0,0-1,0.72,0.72,0,0,1-.06-0.66,1,1,0,0,1,.2-0.63A3.64,3.64,0,0,1,12,11,1.38,1.38,0,0,1,13,11a0.27,0.27,0,0,1,.12-0.08,1.18,1.18,0,0,1,.6.06,0.34,0.34,0,0,0,.22,0,1.85,1.85,0,0,1,1,0,0.5,0.5,0,0,0,.33,0,0.46,0.46,0,0,1,.4,0,2.1,2.1,0,0,0,.67.07,6.38,6.38,0,0,1,1.18,0,0.17,0.17,0,0,0,.15,0A0.34,0.34,0,0,1,18,10.95c0.38,0,.75.06,1.13,0.07A1.7,1.7,0,0,0,19.69,11a0.66,0.66,0,0,1,.59.05c0.15-.17.31,0,0.49,0L21,10.87h0.16L21.37,11a3.64,3.64,0,0,0,.37,0c0.13,0,.26-0.07.39-0.07h1.24a0.58,0.58,0,0,1,.18,0,2.32,2.32,0,0,0,1,0,1.87,1.87,0,0,1,.79,0,0.43,0.43,0,0,0,.3,0A0.47,0.47,0,0,1,26,10.95h0.62a0.26,0.26,0,0,0,.1-0.07h0.23a0.8,0.8,0,0,0,.67.13,0.53,0.53,0,0,1,.25,0,3.32,3.32,0,0,1,.86.07,2.62,2.62,0,0,0,.47-0.06,2.29,2.29,0,0,0,.51.07,0.36,0.36,0,0,0,.11,0,0.88,0.88,0,0,1,.59-0.07,4.21,4.21,0,0,1,1.09.06A0.57,0.57,0,0,0,32,11a0.18,0.18,0,0,1,.17,0,0.3,0.3,0,0,0,.29.06,1.89,1.89,0,0,0,.48,0,1.28,1.28,0,0,1,.67,0,2.27,2.27,0,0,0,1,0,0.64,0.64,0,0,1,.29,0,1.13,1.13,0,0,0,.65,0,0.61,0.61,0,0,1,.55.06Zm-24,30.61H12.23l0,0.23h0.05a0.31,0.31,0,0,0-.07-0.22l0,0-0.18-.12v0.15H12.3Zm34-29.29c-0.08,0-.2-0.07-0.23.07H46l0,0.15H46.1c0-.05,0-0.1,0-0.14s0.2,0.07.23-.08a0.12,0.12,0,0,0,0-.23V11.8a0.9,0.9,0,0,0,.28.14l-0.17.18,0.2,0A0.18,0.18,0,0,0,46.57,12a0.57,0.57,0,0,0-.05-0.16c-0.07-.1-0.16-0.19-0.24-0.29l-0.1.15c-0.12,0-.07.1-0.08,0.16L46.34,12v0.23Zm-28.51,36,0.15,0A0.72,0.72,0,0,1,17.92,48a0.2,0.2,0,0,0,.23-0.22H17.92a1.54,1.54,0,0,1,0,.22c-0.12,0-.07.1-0.08,0.16l-0.16-.08v0.16H17.6V48l-0.16.12-0.23-.05v0.13H17.6l-0.07.15h0.15V48.23C17.74,48.22,17.83,48.27,17.83,48.15Zm-5.13-.08c0.14,0,.06-0.14.05-0.27l-0.13.11-0.22-.09a0.18,0.18,0,0,0,.14.24l0.16,0.21V48.08ZM43.31,11.49H43.16V11.33l-0.15,0v0.13h0.14l0.16,0.31a0.94,0.94,0,0,0,0-.35l0,0h0.15V11.33A0.26,0.26,0,0,0,43.31,11.49ZM16.6,48.11l-0.14,0a0.82,0.82,0,0,1-.12-0.11l0,0.28c0.08,0,.15-0.08.06-0.29v0h0.3v0C16.64,47.94,16.53,47.94,16.6,48.11ZM15.29,48h0.13l0-.15-0.23,0a0.35,0.35,0,0,1,.09.2V48L15,48v0.05A0.42,0.42,0,0,0,15.29,48Zm-3.48-1.38-0.25-.08-0.09.09,0.09,0.11a0.64,0.64,0,0,0,.23-0.16c0.07-.09.07-0.09,0-0.22A0.93,0.93,0,0,0,11.81,46.62ZM48.6,35.92v0H48.15L48.31,36l0.29-.1,0.24-.14,0-.05-0.22,0C48.59,35.81,48.59,35.84,48.6,35.92ZM35.93,47.84c0-.11-0.08-0.09-0.16,0v0.12h0.14L36.06,48a0.39,0.39,0,0,0,.08-0.37l0.16,0.17V47.61c-0.06,0-.1,0-0.07.16l-0.17.05ZM11.77,38.66l-0.1.08-0.27-.08a0.33,0.33,0,0,0,.37.14,0.78,0.78,0,0,0-.07-0.28l0.17,0.23,0.22-.11A0.31,0.31,0,0,0,11.77,38.66ZM48.4,33.51l0,0V33.32H48.28c0,0.07.08,0.13,0.27,0a0.49,0.49,0,0,0,0,.11s-0.19.12,0,.14a0.36,0.36,0,0,1,.09.06l0.06,0C48.64,33.49,48.6,33.4,48.4,33.51Zm0.12,3V36.42l-0.15,0,0,0.23a0.87,0.87,0,0,0,.14-0.13c0,0.16,0,.27,0,0.39l0.08,0a0.78,0.78,0,0,1,0-.16,0.67,0.67,0,0,1,.06-0.13ZM48,11.49h0.16l0-.15c-0.09,0-.19-0.07-0.22.08s-0.05.2-.08,0.32A0.21,0.21,0,0,0,48,11.49Zm-3.56.4v0.24l0.24-.24a0.33,0.33,0,0,0-.25.06,1.43,1.43,0,0,1,0-.23,0.75,0.75,0,0,1,.06-0.14l-0.06,0,0-.16-0.11.22A0.62,0.62,0,0,0,44.41,11.89Zm3.68,30c-0.16.3-.1,0.25,0.09,0.3,0-.1-0.06-0.19-0.14-0.09l-0.17-.27L47.66,42A0.41,0.41,0,0,0,48.1,41.93Zm-36.4-2.87V38.9l-0.23,0v0.14l-0.23.2,0.24,0a0.88,0.88,0,0,1,.14.07V39.06h0.06l0.09,0.12-0.1.13,0.32,0a0.17,0.17,0,0,0,0-.05A0.43,0.43,0,0,0,11.69,39.06ZM12,39.52l-0.22-.19-0.06.19H12l-0.1.27,0.22-.09,0.11,0.13c0,0.15.15,0,.23,0.12s0,0.31,0,.47a0.73,0.73,0,0,0,.09.51l-0.17.19a2.08,2.08,0,0,0,0,.63,2.63,2.63,0,0,1,.07.68l-0.17.18L12.48,43a0.77,0.77,0,0,0-.08.28c0,0.1-.12.18,0,0.26s-0.13.16,0,.27l0.15,0.07c0,0.18,0,.35,0,0.51a1.41,1.41,0,0,0-.08.43,1.12,1.12,0,0,0,0,.44l-0.17.19,0.24,0a0.75,0.75,0,0,1,0,.37,1.27,1.27,0,0,1,0,.35,0.35,0.35,0,0,0,0,.36,0.29,0.29,0,0,1,0,.25c-0.17.21,0,.34,0.1,0.49a4.14,4.14,0,0,0,.27.32,0.54,0.54,0,0,1,.42,0,1.9,1.9,0,0,0,.42,0h1l0.06,0.18,0.17-.25H15l0.06,0.15,0.13,0-0.11-.14a2.7,2.7,0,0,1,.4,0,1.35,1.35,0,0,0,.73,0,0.36,0.36,0,0,1,.18,0,2,2,0,0,1,.27.11v0.19l0.21,0.15,0.34-.11V47.69h0.13l0.06,0.15h0V47.53h0.19l0.18,0.05,0-.15,0.45,0.12-0.1.11h0.23l0-.1a2.8,2.8,0,0,1,.38-0.11,2.45,2.45,0,0,1,.36,0l0.06,0.17,0.1-.23,0.14,0.19,0.09-.06,0.06,0.17,0.07-.16H20L20,47.71l0.07-.18a2.19,2.19,0,0,0,.53,0,1.53,1.53,0,0,1,.95,0,0.2,0.2,0,0,0,.18,0,0.24,0.24,0,0,1,.22,0,1.05,1.05,0,0,1,.49,0,1.25,1.25,0,0,0,.46,0,0.77,0.77,0,0,1,.11,0,0.88,0.88,0,0,0,.51.08,5.67,5.67,0,0,0,.78-0.07c0.66,0,1.32,0,2,0a1.78,1.78,0,0,1,.33.07,0.11,0.11,0,0,1,0,0,1.45,1.45,0,0,1,.71,0,0.63,0.63,0,0,0,.36,0,1.26,1.26,0,0,1,.63,0,0.64,0.64,0,0,0,.36,0,1,1,0,0,1,.6,0,1.48,1.48,0,0,0,.79,0,0.3,0.3,0,0,1,.19,0,1.34,1.34,0,0,0,.67.07h0.66a2.09,2.09,0,0,0,.69,0,0.9,0.9,0,0,1,.6,0,0.5,0.5,0,0,0,.1,0,1.07,1.07,0,0,1,.44,0,0.66,0.66,0,0,0,.29,0,0.75,0.75,0,0,0,.4-0.06,0.86,0.86,0,0,1,.39.06,0.32,0.32,0,0,0,.18,0,0.77,0.77,0,0,1,.52,0,1.58,1.58,0,0,0,.84,0,1,1,0,0,1,.33,0,0.18,0.18,0,0,1,.29,0,0.65,0.65,0,0,1,.41-0.05l0.11,0.23L37,47.76l-0.06,0c-0.16-.07-0.25-0.07-0.23,0l0.14,0-0.07.09a0.34,0.34,0,0,1,.15.27l-0.11,0,0.06,0.15,0,0s0-.09,0-0.14l0.12,0.15,0.13-.21,0.2,0.06,0,0L37.19,48l0.14-.2h0.18l-0.1-.12,0.34-.15-0.12.34h0.16l0-.31,0.26,0-0.17.18,0.2,0A0.18,0.18,0,0,0,38,47.53a0.25,0.25,0,0,1,.1-0.07,3.63,3.63,0,0,1,.76,0,1.21,1.21,0,0,0,.74,0c0.06,0.12.11,0,.17,0a0.46,0.46,0,0,1,.17.29l-0.14-.27v0.28c0.05,0,.08,0,0.06-0.23L40,47.48c0.39,0.13.79,0,1.15,0.11l0-.13L42,47.59c0.12-.14.35,0,0.5-0.13a0.47,0.47,0,0,1,.23,0l-0.07.14,0.11,0,0.11-.22a1,1,0,0,0,.32.22L43,47.72c0.2,0.18.2,0.18,0.38,0h0.33l-0.12-.12-0.21.06V47.45a0.61,0.61,0,0,1,.28,0,0.32,0.32,0,0,0,.29,0c0.09,0,.15.14,0.25,0a1.44,1.44,0,0,0,.28-0.06,0.2,0.2,0,0,1,.18,0,3.29,3.29,0,0,0,1.06.07,2,2,0,0,1,.94-0.07,1.45,1.45,0,0,1,.4.08,0.77,0.77,0,0,0,.36-0.66,0.71,0.71,0,0,0,.07-0.55,1.37,1.37,0,0,0-.06-0.67,0.34,0.34,0,0,1,.14-0.38,0.26,0.26,0,0,1,.08,0l-0.22-.15a2.8,2.8,0,0,0,.06-0.35c0-.19,0-0.39,0-0.58a2.17,2.17,0,0,1,.07-0.86,0.28,0.28,0,0,0,0-.13,0.39,0.39,0,0,1,0-.06l0.15-.1,0.08,0.07A0.8,0.8,0,0,1,48,43a0.17,0.17,0,0,0,.23.12L48.09,43A0.47,0.47,0,0,1,48,43l-0.08-.12L47.49,43l0.07-.39-0.15-.15,0.14-.87-0.12-.12c0-.38,0-0.76,0-1.15,0-.07,0-0.14,0-0.21a4.41,4.41,0,0,0,0-.83,0.9,0.9,0,0,1,0-.5,0.44,0.44,0,0,0,0-.28,0.47,0.47,0,0,1,0-.45l-0.15-.15c0-.26.07-0.52,0.11-0.79a0.16,0.16,0,0,1,0-.06,0.15,0.15,0,0,1-.05-0.06,1.63,1.63,0,0,1,0-.71,0.67,0.67,0,0,0,0-.48c-0.07-.15,0-0.27-0.09-0.47l0.25-.08a0.48,0.48,0,0,1-.13-0.15,6,6,0,0,0-.08-0.82,7.09,7.09,0,0,0,.08-1.09,1.36,1.36,0,0,1,0-.19l0.2-.09-0.26,0V32.48l0.24,0-0.16-.17a1.06,1.06,0,0,0-.08-0.49,0.44,0.44,0,0,1,0-.3,1,1,0,0,0,0-.68,1.21,1.21,0,0,1,0-.29,3.53,3.53,0,0,0,0-.67,1.33,1.33,0,0,1,0-.65,0.6,0.6,0,0,0,0-.51,1,1,0,0,0,.06-0.27,2.5,2.5,0,0,1-.07-0.32,2.44,2.44,0,0,1,.07-1,0.22,0.22,0,0,0,0-.19,0.9,0.9,0,0,1-.07-0.55c0-.12.09-0.22,0.08-0.36s0-.52,0-0.78a0.87,0.87,0,0,0,0-.25,0.94,0.94,0,0,1,0-.44,3.45,3.45,0,0,0,0-1.09,1.33,1.33,0,0,1,0-.52,1.08,1.08,0,0,0,0-.29,0.58,0.58,0,0,0-.08-0.43,1.77,1.77,0,0,1,.07-0.75,0.25,0.25,0,0,0,0-.22c-0.19-.22,0-0.38.06-0.54s-0.24-.34-0.07-0.56a0.27,0.27,0,0,0,0-.25,0.28,0.28,0,0,1,0-.29c0.12-.2,0-0.44.13-0.63l-0.14-.26a2.63,2.63,0,0,0,0-.58,1.53,1.53,0,0,0,0-.61A0.91,0.91,0,0,1,47.51,17a1.12,1.12,0,0,1,.06-0.62,0.52,0.52,0,0,1-.13-0.48,1.79,1.79,0,0,0,.07-0.55,1.37,1.37,0,0,1,.07-0.25,1,1,0,0,1-.14-0.32,4,4,0,0,1,0-1,7.49,7.49,0,0,0,.06-0.82l-0.23-.3,0.07-.38a0.24,0.24,0,0,0-.15.3l-0.39-.12v0H47l-0.07-.13,0.18-.07a0.36,0.36,0,0,0-.42.13H46.51l0,0.24a2.1,2.1,0,0,1-.91-0.1l-0.25.21L45,12.42a1.12,1.12,0,0,1-.81-0.09L44,12.5h-1a0.63,0.63,0,0,1-.46-0.08c-0.11.05-.19,0.15-0.31,0l0.09-.1H42.25l0,0.14H42l-0.12-.15V12.19l-0.28.14h0.29v0.22a0.41,0.41,0,0,0-.54-0.07,0.2,0.2,0,0,1-.19,0,0.51,0.51,0,0,0-.36-0.07,2.38,2.38,0,0,0-.59.08H38.91a1.32,1.32,0,0,1-.28-0.07l-0.32.17-0.19-.1H37.84a0.91,0.91,0,0,1-.34,0,0.28,0.28,0,0,0-.26,0,1,1,0,0,1-.67,0l-0.25,0a0.82,0.82,0,0,0-.32.07,0.85,0.85,0,0,1-.31-0.06,0.49,0.49,0,0,0-.14,0,0.62,0.62,0,0,1-.29,0,1.13,1.13,0,0,0-.6,0c-0.43,0-.88,0-1.32,0a0.77,0.77,0,0,1-.28-0.08,0.26,0.26,0,0,0-.22,0,0.27,0.27,0,0,1-.22,0H31.82a1,1,0,0,1-.21-0.05l-0.28.15a2,2,0,0,0-1-.09,2.4,2.4,0,0,0-1,.06,1.17,1.17,0,0,0-.23-0.06H28.36A1.29,1.29,0,0,0,28,12.43a1.62,1.62,0,0,1-1,0,0.19,0.19,0,0,0-.15,0,0.73,0.73,0,0,1-.48.07,1.45,1.45,0,0,0-.59.07,0.39,0.39,0,0,1-.33,0,0.66,0.66,0,0,0-.45-0.1,2.17,2.17,0,0,1-.75.06,0.68,0.68,0,0,1-.48-0.07,0.5,0.5,0,0,0-.25,0,0.6,0.6,0,0,1-.29,0,0.92,0.92,0,0,0-.9.1,1.32,1.32,0,0,0-.68-0.09,0.9,0.9,0,0,1-.74,0,1.67,1.67,0,0,0-.42,0,2.6,2.6,0,0,1-.6,0,0.78,0.78,0,0,0-.17,0c-0.14,0-.27.1-0.41,0.16a1.39,1.39,0,0,0-.56-0.14c-0.16-.11-0.42,0-0.63-0.08a0.67,0.67,0,0,1-.67.08,0.43,0.43,0,0,0-.26,0,1.87,1.87,0,0,1-.75.07,0.5,0.5,0,0,0-.23,0c-0.17.16-.29,0-0.43,0l-0.11-.05a0.54,0.54,0,0,1-.55,0,0.18,0.18,0,0,0-.17,0,0.29,0.29,0,0,1-.25.05H13.92a1.37,1.37,0,0,0-.28.06,1.15,1.15,0,0,1-.3-0.1,0.48,0.48,0,0,0-.23,0,0.79,0.79,0,0,0-.28,0,2.59,2.59,0,0,0-.32.23l-0.3-.24,0,0,0.1,0.21h0.2a2.21,2.21,0,0,1-.07.86,0.2,0.2,0,0,0,0,.19,0.43,0.43,0,0,1,.07.36q0,0.81,0,1.63a0.63,0.63,0,0,1-.07.44,0.25,0.25,0,0,0,0,.22,0.37,0.37,0,0,1,0,.45,0.22,0.22,0,0,0,0,.15,1.35,1.35,0,0,1,0,.79,0.44,0.44,0,0,0,0,.27,1.71,1.71,0,0,1,.07.71l0.06,0.59-0.2.31,0.14,0.15a1.6,1.6,0,0,1,0,.71c0,0.45-.13.88-0.08,1.33a0.74,0.74,0,0,1-.05.23l0.14,0a4.39,4.39,0,0,1-.09,1.1,0.25,0.25,0,0,0,0,.18,0.41,0.41,0,0,1,0,.39,0.32,0.32,0,0,0,0,.32,0.32,0.32,0,0,1,0,.14,7.91,7.91,0,0,0,.07,1.4,1.89,1.89,0,0,1-.12.8,0.29,0.29,0,0,0,0,.18,0.48,0.48,0,0,1,.07.36,6.94,6.94,0,0,0,0,.95,2.16,2.16,0,0,1,0,.54,1.3,1.3,0,0,0,0,.57,0.78,0.78,0,0,1,0,.49,0.42,0.42,0,0,0,0,.19c0.19,0.22,0,.38-0.06.54a0.55,0.55,0,0,1,.06.15c0,0.14,0,.28,0,0.43s0,0.27,0,.41,0,0.25,0,.38a0.79,0.79,0,0,1,0,.17,0.53,0.53,0,0,0,0,.18c0,0.07.06,0.13,0.07,0.2a0.27,0.27,0,0,1,0,.25s0.06,0.12,0,.19a2,2,0,0,1,0,.44,1.57,1.57,0,0,0,0,.67,2.94,2.94,0,0,1,0,1c-0.05.26,0,.51,0,0.76a0.65,0.65,0,0,1,.08.47c0,0.08-.11.14,0,0.26a0.6,0.6,0,0,1,0,.34,0.52,0.52,0,0,0,.07.28,0.24,0.24,0,0,1,0,.22,0.35,0.35,0,0,0-.05.29,0.66,0.66,0,0,1-.19.58l0.16,0.19v0.58l-0.13,0a0.18,0.18,0,0,0,0,.06l0.12,0a0.6,0.6,0,0,1,0,.26,0.32,0.32,0,0,0,0,.25,1.63,1.63,0,0,0,.07.28c-0.13,0,0,.14,0,0.19H12.24v-0.2A0.68,0.68,0,0,1,12,39.52Zm0,4.44a0.8,0.8,0,0,0-.18.09,0.32,0.32,0,0,0,0,.15l0.24-.14A0.2,0.2,0,0,0,12,44L11.8,43.5a0.49,0.49,0,0,0,.09.46h0.17Zm26.29,3.88c0.14-.09.07-0.2,0.07-0.31l-0.21.11c0,0.07-.08.17,0.07,0.2v0.32l0.18,0A0.27,0.27,0,0,1,38.34,47.84Zm9.39-36.05c-0.09-.07-0.09-0.07-0.22,0h0.25L47.68,12l0.47-.11L48,11.78l-0.1.09A0.41,0.41,0,0,0,47.73,11.79Zm1,0.68-0.17.16h0.18c0-.06,0-0.1-0.06-0.07l-0.45-.16-0.1.11,0.1,0.2,0.14-.16A0.66,0.66,0,0,0,48.74,12.47Zm-3.41-1.12a0.18,0.18,0,0,0,.18.21,0.3,0.3,0,0,1-.11-0.26l-0.23-.09a0.34,0.34,0,0,1-.36,0l-0.19.08,0,0.12A1.25,1.25,0,0,1,45.33,11.35ZM47.89,45l0,0-0.18-.12V45h0.15l-0.1.21,0.15,0L48,45.07l0.09,0.11a0.18,0.18,0,0,0,0,.26l0.14,0-0.1-.2a1.29,1.29,0,0,0,.15-0.14,0.23,0.23,0,0,0,0-.11L48.17,45,48.11,45ZM48.2,14.57l0.31-.42L48.35,14a0.6,0.6,0,0,0-.13.49H48.09L48,14.73h0.24l-0.09-.1A0.12,0.12,0,0,1,48.2,14.57Zm0.47,28.61,0.19,0-0.23-.36a0.22,0.22,0,0,0-.15,0l-0.1-.13,0.12-.35H48.3l0,0.32a0.36,0.36,0,0,0-.37-0.09l0,0.14L48,42.65l0,0.26,0.09-.19,0.27,0.08-0.13.1L48.37,43l0.18-.07a1.09,1.09,0,0,0,.11.21,0.34,0.34,0,0,0-.07.33l0.21,0.12V43.44l-0.15-.05v-0.2Zm-0.56-8.37,0.07-.24-0.1,0L48,34.36l0,0.26-0.14.05v0.2l0.13,0L48,34.71a0.34,0.34,0,0,0,.13.08L48,35l0.29,0.06L48,35.13v0.05h0.3v0.26l0.2-.28,0.17,0.09V35.13l-0.12,0-0.12-.41A0.34,0.34,0,0,1,48.11,34.81Zm0.29-.66-0.1.42,0.5,0.12,0,0V34.59l-0.2-.1-0.13.09c0.06-.23.3-0.23,0.33-0.46l-0.34.21ZM11.75,47.7l-0.14.1,0.16,0.08-0.08.1h0.26c-0.16-.15,0-0.2,0-0.32l0.18,0.09V47.64l-0.21-.11-0.15.22Zm30.41,0.75,0.07,0,0.23-.3L42.09,48l-0.1.1,0.17,0.08v0.26ZM48.36,17l0.22,0-0.11-.31a1.18,1.18,0,0,0-.37.46l0.14,0ZM11.66,39.43l-0.18.36a0.63,0.63,0,0,1,.05.18,0.66,0.66,0,0,1-.06.18h0.11A1.05,1.05,0,0,0,11.66,39.43Zm36.26-5.36-0.39.39,0.3,0.09a0.14,0.14,0,0,0,.06,0l-0.06-.1ZM48,44.16l-0.34-.22a0.46,0.46,0,0,0,.26.37l0.06,0V44.16ZM36.7,48.72l0.12,0.12L37,48.69l0.16,0.08V48.55ZM48.3,13.66v0.23l0.21-.2V13.43ZM11.79,40.07v0.67l0.15-.17c-0.17-.11-0.06-0.22,0-0.28Zm0.15-1.61c0.13,0.08.32,0,.36,0.21V38.35a0.27,0.27,0,0,1-.07.07ZM47.52,12.28v0l0.13,0.05-0.06.12c0.19,0.05.15-.21,0.29-0.21H47.52Zm-8.64,36a0.71,0.71,0,0,1,0,.15,0.77,0.77,0,0,1-.06.14l0.1,0.1L39,48.5l-0.07-.13,0.1-.14H38.88Zm7-36.29,0.05-.06-0.28-.24-0.06,0A0.39,0.39,0,0,0,45.85,11.94Zm2.27,32.62c-0.12-.07-0.22-0.21-0.37-0.11v0.11h0.37Zm-0.33-8.21,0.1-.46,0,0-0.16.27Zm0.34,7.17c0,0.25.1,0,.15,0l0.25,0.1-0.12-.23ZM11.7,48.19L12,48.41a1,1,0,0,1-.1-0.21A0.5,0.5,0,0,1,12,48Zm2.32,0c-0.35,0-.35,0-0.43.15a0.7,0.7,0,0,1,.21-0.1,0.79,0.79,0,0,1,.23,0v-0.1ZM40,48.43l-0.1-.13-0.11.11,0.12,0.21,0.1,0L39.9,48.5Zm-24-.13a0.55,0.55,0,0,0-.35-0.22l0.1,0.22h0.25Zm32.61-1.48,0.19-.11-0.28-.11a0.23,0.23,0,0,0-.1,0ZM11,45.21l0.15,0.26,0.14-.26H11ZM43.17,11.77a0.34,0.34,0,0,0,.16.43L43.25,12l0.06-.07Zm4.75,3.5,0,0,0.24-.23L48,15Zm0.39,0.15,0.21-.09a0.36,0.36,0,0,0-.16,0,0.77,0.77,0,0,1-.14-0.06l0,0ZM47.62,14l0.22,0A0.57,0.57,0,0,1,48,14l0,0-0.12-.16Zm1.17,0.82-0.27-.13V14.9ZM15.57,48.26l0,0-0.12.3h0.17V48.26Zm-3.35.4,0.07,0.06,0.17-.13-0.12-.14Zm0-.84-0.11.26,0.26,0Zm35.19-36-0.06.07,0.12,0.17L47.6,12ZM12.27,40.4l0.12-.24-0.22-.09ZM14,48v0l-0.2-.09,0.05,0.07-0.16,0,0,0H14ZM48.08,36.12l0,0,0.13,0.17,0.13-.11Zm-36.19.28-0.15.37C11.92,36.66,12,36.57,11.89,36.41ZM11.6,44.49l-0.33-.14,0,0v0.11H11.6Zm30-32.69,0.2,0.27V11.8h-0.2ZM41.91,12h0.22A0.16,0.16,0,0,0,42,11.88H41.93Zm-1.13,0L41,12.23l0-.19H40.77ZM11.37,40.15a1.13,1.13,0,0,0-.21,0,0.53,0.53,0,0,0,0,.16l0.1-.12,0.12,0.11V40.15Zm0,6.86a0.51,0.51,0,0,1-.14,0,0.4,0.4,0,0,1-.08-0.08l0,0,0.12,0.2Zm0.3,0.4,0.05-.05a0,0,0,0,0,0,0l-0.27-.11,0,0.06ZM48.54,14.26l0,0.13,0.09,0.09,0.21-.1a0.75,0.75,0,0,1-.18,0A0.51,0.51,0,0,1,48.54,14.26ZM12.17,38.92l-0.25-.12L12,39.07Zm2.08,8.63-0.27.2h0.27v-0.2Zm33.39,0.28-0.14-.18-0.17.18h0.31ZM11.55,19l0.18-.25-0.18,0V19ZM48.82,32.77l-0.35,0,0.32,0.13,0,0V32.77ZM16.89,48.63l-0.37.13h0.37V48.63ZM48.57,31.91L48.43,32l0.3,0.13ZM15.12,48.37h0.23l-0.12-.21Zm23.56,0.16-0.12.21a0.13,0.13,0,0,0,.13,0,0.51,0.51,0,0,1,.12,0ZM48.3,35.48l-0.12.26,0.26-.13ZM13.07,48.61l0-.27L13,48.39l0-.17-0.05,0ZM48,16.75H48.2l-0.1-.15ZM11.72,48.49c-0.17,0-.17,0-0.23.17ZM48.36,33.87l0.15,0-0.13-.27Zm-0.2,7.22,0.06,0a0.72,0.72,0,0,0,0-.12,0.49,0.49,0,0,0-.08-0.08l0,0Zm-37,.08L11,41.32l0.31,0Zm37.24,3.76c0.1,0,.24-0.07.12-0.21ZM47.88,13.07l-0.13.27H47.9ZM15.8,48.76l-0.29-.13v0.13H15.8Zm-3.63-1.41h0.16l0-.14-0.14,0v0.11Zm36-36.26,0.09,0.14,0,0.08,0,0,0-.2H48.12ZM11.37,40.45l0,0.17,0.26,0Zm26.58,8c0.07,0.05.1,0.17,0.24,0.09C38.12,48.53,38.09,48.41,37.95,48.5Zm10.61-2.83c0.08-.14,0-0.17-0.09-0.24C48.39,45.58,48.51,45.6,48.56,45.67Zm-30.31,3c0.05-.07.17-0.1,0.09-0.24C18.29,48.53,18.17,48.56,18.25,48.7Zm24.36-37,0.16,0,0-.27Zm5.8,34.06H48.12l0,0.14ZM16.82,48.48v0h0.31v0H16.82ZM47.61,15.41c0.07,0.16.07,0.16,0.24,0.17ZM43.8,11.78V12l0.15-.1ZM11.6,46.06V45.76l-0.13.29H11.6Zm36.29-8.76,0.17,0L48,37ZM11.61,37l-0.21,0a0.22,0.22,0,0,0,.11.06,0.72,0.72,0,0,1,.12.11V37ZM47.86,37c0.08-.14,0-0.17-0.09-0.24C47.69,36.87,47.81,36.9,47.86,37ZM19.44,48.29h0.24l-0.1-.15Zm-0.66,0h0V48h0v0.31Zm-7-3.9h0.16l0-.14-0.14,0V44.4ZM48.22,46v0.27l0.14,0ZM39.89,11.55l0.16-.09-0.14-.17ZM13.16,48.26l0,0.05,0.23,0-0.11-.11Zm-2-2.13V46L11,46l0,0.14h0.11Zm7.57,2.21c-0.1,0-.24.07-0.12,0.21ZM47.85,35.19c0-.1-0.07-0.23-0.21-0.12ZM11.79,41.88H11.55L11.65,42Zm0.42-4.23-0.3,0L12,37.82ZM11.27,19.87c-0.05.07-.17,0.1-0.09,0.24C11.24,20,11.36,20,11.27,19.87Zm33-8.47c0-.17-0.06-0.17-0.16-0.11l0,0.11h0.14ZM11.45,42.47a0.72,0.72,0,0,0,.21,0,0.5,0.5,0,0,0,.11-0.1l0,0ZM39.94,48l-0.06-.13L39.71,48h0.23Zm8.79-3.33V44.41l-0.16,0Zm-7.41,4c-0.2-.08-0.19,0-0.16.1ZM11.47,45.53v0.07l0.2,0v0H11.47Zm0.36-.18V45.27l-0.2,0v0h0.21Zm30.79,3.5h0.07l0-.21h0v0.21Zm-21-37.27,0.07,0.16,0,0V11.57H21.67Zm23,0,0,0.15,0.1-.15H44.62ZM12.22,45V44.89l-0.21,0v0h0.21Zm35.66-.28-0.23.12h0.23V44.68Zm-33,4.2c0.09-.2,0-0.19-0.1-0.16Zm33.59-4.75H48.36l0,0.21h0V44.13Zm0.26,0,0-.15-0.1.15h0.13Zm-3.6-32.27V11.71l-0.2,0ZM16.68,48.46l0-.15-0.1.15h0.13ZM16,48.29c-0.09.21,0,.18,0.1,0.17Zm-1.24-.47c-0.09.21,0,.18,0.1,0.17Zm26.43,0.43,0.2,0.19,0-.22Zm-0.31-.33h0v0.23h0V47.92ZM15.79,11.45V11.32l-0.2,0ZM42.53,48L42.37,48l0,0h0.13V48ZM14.39,48h0v0.23h0V48ZM17,48.22h0.07l0-.2h0v0.21Zm20.89-.08L38.11,48H37.88v0.12Zm7.16,0v0.13l0.2,0Zm-4.21.57v0H40.59v0h0.23ZM11.21,46.46l0.2,0.19,0-.22ZM46.89,11.54v0H46.65v0h0.23Zm-35,35.27,0.23-.12H11.86v0.12Zm23.56,1.67c0,0.12,0,.12.16,0.1Zm-16.51,0-0.16.07,0,0h0.13V48.49ZM47.33,11.43l0.2,0.19,0-.22Zm-4.47,37L43,48.62V48.39H42.86Zm4.22-37c0,0.14,0,.2.06,0.16ZM18.79,47.69l0.07,0.16,0,0V47.69H18.79Zm20.63,0.71v0h0.23v0H39.43Zm3-36.76h0V11.41h0v0.23Zm-1.73-.37v0H41v0H40.75ZM14.55,47.75l-0.19.2,0.22,0Zm21.95,0.57,0.12,0.23V48.31H36.49Zm-0.84.13h0.13l0-.2ZM47.82,35.51v0h0.23v0H47.82Zm-36.3.14h0v0.23h0V35.65Zm0.66,0.7h0V36.11h0v0.23Zm-0.75.29c0-.12,0-0.12-0.16-0.1ZM11.92,37H11.85l0,0.21h0V37Zm36.87,0.24c0.08-.2,0-0.19-0.1-0.16Zm-0.41-5.79h0.07l0-.21h0v0.21Zm-0.1.25,0,0.15,0.1-.15H48.27Zm-0.37.66,0.16-.07,0,0H47.9v0.11Zm0.23,0.16,0.16-.07,0,0H48.13v0.11ZM47.68,33v0.13l0.2,0Zm0.51,0.13H48.12l0,0.21h0V33.17ZM47.93,13.53c0,0.12,0,.12.16,0.1ZM48.6,39.81l0.16-.07,0,0H48.6v0.11Zm-0.69.3v0.13l0.2,0Zm-35.58.65H12.4l0-.2h0v0.21Zm36.2,0.7H48.6l0-.21h0v0.21Zm-0.31.23h0.07l0-.2h0v0.21Zm-36.91,0,0.16-.07,0,0H11.31v0.11Zm36.49,1-0.12-.23v0.23H47.8Zm-0.13.75,0.16-.07,0,0H47.67v0.11Zm-36.4.4h0.13l0-.2Zm36.7,0-0.16.07,0,0H48V43.83Zm0.32,0v0H48.05v0h0.23Zm-36.1,0,0.12,0.23V43.89H12.18ZM11.41,38c0.12,0,.12,0,0.1-0.16ZM12,38.11l-0.2-.19,0,0.22ZM11.37,19.32V19.25l-0.2,0v0h0.21Zm0.39-.27c0.15,0,.19,0,0.16-0.06ZM48.42,38.17V38l-0.2,0ZM48,18.51v0.13l0.2,0Zm-0.11-1.14V17.31l-0.21,0v0h0.21Zm0.89-.57v0.13l0.2,0ZM47.83,16H47.9l0-.2h0V16Zm0.32-.26c-0.21-.09-0.18,0-0.17.1Zm-0.54-1.28c0-.14,0-0.21-0.06-0.16Zm0.58-.57L48,13.93l0,0H48.2V13.88Z" transform="translate(-10.84 -10.87)"/><path class="cls-1" d="M16.67,47.69l0.13-.15a0.87,0.87,0,0,0,.41-0.07,0.15,0.15,0,0,1,.24.07,0.19,0.19,0,0,0-.23.16,1.87,1.87,0,0,0-.27,0,2.22,2.22,0,0,0-.28.07V47.69Z" transform="translate(-10.84 -10.87)"/><path class="cls-1" d="M46.19,11.64l0.16,0.16H46.11C46.12,11.74,46.07,11.65,46.19,11.64Z" transform="translate(-10.84 -10.87)"/><path class="cls-1" d="M46.65,12.26c0.06,0,.15,0,0.16.08l-0.25.11Z" transform="translate(-10.84 -10.87)"/><path class="cls-1" d="M48.22,34.88h0.21v0l-0.2,0V34.88Z" transform="translate(-10.84 -10.87)"/><path class="cls-1" d="M48.28,35.18V35h0.15l-0.12.18Z" transform="translate(-10.84 -10.87)"/><path class="cls-1" d="M12.7,48.08H12.55l0.08-.16C12.74,47.93,12.69,48,12.7,48.08Z" transform="translate(-10.84 -10.87)"/><path class="cls-1" d="M38.55,18.38v0a2.26,2.26,0,0,1,.51.19,0.35,0.35,0,0,1,.2.06,0.7,0.7,0,0,1,.39.22c0.1,0.08.18,0.18,0.28,0.27L40,19.22a2.59,2.59,0,0,1,.66.67,3.85,3.85,0,0,1,.22.34c0,0.12.12,0.24,0.16,0.36a2.29,2.29,0,0,1,.23.66,0.39,0.39,0,0,0,.05.11,0.74,0.74,0,0,1,.08.31,0.67,0.67,0,0,0,0,.39,0.58,0.58,0,0,0,0,.28,0.21,0.21,0,0,0,0,.19,0.12,0.12,0,0,1,0,.11,0.26,0.26,0,0,0,0,.28,0.12,0.12,0,0,1,0,.08,0.62,0.62,0,0,0-.06.39,1,1,0,0,0-.14.32,1.55,1.55,0,0,1-.24.65,1.26,1.26,0,0,1-.3.45,1.2,1.2,0,0,0-.14.26,0.36,0.36,0,0,1-.19.22,0.19,0.19,0,0,0-.08.1,0.78,0.78,0,0,1-.34.36,0.12,0.12,0,0,0-.07.08,0.23,0.23,0,0,1-.15.19,1.69,1.69,0,0,0-.23.23l-0.13.06a1.86,1.86,0,0,1-.29.48l-0.19.78a0.35,0.35,0,0,1,0,.28,0.72,0.72,0,0,0,0,.4,0.73,0.73,0,0,1,0,.33,0.61,0.61,0,0,0,0,.17c0,0.31,0,.62,0,0.93,0,0.09,0,.18,0,0.28a1.82,1.82,0,0,1,0,.27,0.25,0.25,0,0,1,0,.21,0.13,0.13,0,0,0,0,.13c0.11,0.13,0,.21,0,0.35a0.65,0.65,0,0,0,0,.22,1,1,0,0,1,0,.73,0.29,0.29,0,0,0,0,.19,2,2,0,0,1,0,.67,1,1,0,0,0,0,.21,2.05,2.05,0,0,1,0,.87,0.12,0.12,0,0,0,0,.07,2.25,2.25,0,0,1,0,.71,0.76,0.76,0,0,1,0,.12,0.63,0.63,0,0,0,0,.2,0.76,0.76,0,0,1,0,.45,0.88,0.88,0,0,0,0,.33,0.72,0.72,0,0,1,0,.45,0.1,0.1,0,0,0,0,.07,0.88,0.88,0,0,1,0,.39,0.31,0.31,0,0,1,.09.24c0,0.05,0,.11,0,0.16a1.08,1.08,0,0,1,0,.16,0.7,0.7,0,0,0,.07.36,0.29,0.29,0,0,1,0,.25,0.78,0.78,0,0,1,.11.29,0.27,0.27,0,0,1,0,.28,0.58,0.58,0,0,1,.1.33c0,0.3,0,.61.05,0.94l0.08,0.06c0,0.12,0,.23,0,0.34a1.86,1.86,0,0,0,0,.37c0,0.05,0,.1,0,0.15s0,0.13,0,.19,0,0.12,0,.17l-0.23.37a0.31,0.31,0,0,1-.16.14,1.15,1.15,0,0,0-.24.17l-0.45.06,0-.08H38.19l0,0.07a3.2,3.2,0,0,1-.34-0.06,0.4,0.4,0,0,1-.24-0.14c-0.08-.12-0.18-0.23-0.27-0.34a1.26,1.26,0,0,1-.12-0.36,0.5,0.5,0,0,1,0-.36,0.66,0.66,0,0,0,0-.23c0-.1,0-0.2,0-0.3a0.39,0.39,0,0,1,.09-0.28,0.65,0.65,0,0,1,0-.17,1.09,1.09,0,0,1,0-.19,0.34,0.34,0,0,1,0-.19,0.15,0.15,0,0,0,0-.17,0.29,0.29,0,0,1,0-.1l0.08-.07a0.25,0.25,0,0,0,0,0,4.71,4.71,0,0,1,.05-0.71,5,5,0,0,0,0-.51c0-.14,0-0.28.08-0.45a0.13,0.13,0,0,1,0-.15,0.82,0.82,0,0,0,.12-0.5,0.68,0.68,0,0,1,0-.12s-0.06,0,0-.08a0.14,0.14,0,0,0,0-.13,0.87,0.87,0,0,1,0-.49,0.76,0.76,0,0,0,0-.48,0.32,0.32,0,0,1,0-.13c0-.14,0-0.29,0-0.43a0.32,0.32,0,0,0,0-.21,0.21,0.21,0,0,1,0-.18,1.91,1.91,0,0,0,0-.57,0.8,0.8,0,0,1,0-.13,0.57,0.57,0,0,1,0-.22,4.68,4.68,0,0,0,0-.62,0.37,0.37,0,0,0,0-.13,0.14,0.14,0,0,0,0,0,2.07,2.07,0,0,0,0-.64,0.33,0.33,0,0,1,0-.09c0-.24,0-0.49,0-0.73a1.45,1.45,0,0,0,0-.21,2,2,0,0,1,0-.46,4.11,4.11,0,0,0,0-.5c0-.24,0-0.47,0-0.71a0.34,0.34,0,0,1,0-.24,0.24,0.24,0,0,0,0-.22,0.33,0.33,0,0,1,0-.21c0-.2,0-0.39,0-0.59a3.5,3.5,0,0,0-.1-0.66c0-.1-0.06-0.19-0.08-0.29a0.39,0.39,0,0,0-.1-0.21,2.39,2.39,0,0,1-.31-0.35c0-.05-0.12-0.07-0.15-0.12a1.34,1.34,0,0,0-.31-0.3,1.15,1.15,0,0,1-.07-0.15l-0.34-.31V25.27a1.83,1.83,0,0,1-.39-0.52c-0.11-.18-0.2-0.37-0.31-0.56a5.71,5.71,0,0,1-.3-0.65,2.11,2.11,0,0,0-.09-0.46,2.59,2.59,0,0,1,0-.48c0-.26,0-0.52,0-0.78s0-.28,0-0.41a0.8,0.8,0,0,0,.18-0.56,0.34,0.34,0,0,0,.14-0.32l0.14-.12v-0.2a7.1,7.1,0,0,1,.49-0.67,1.06,1.06,0,0,0,.14-0.22,0.41,0.41,0,0,0,.17-0.12,0.81,0.81,0,0,1,.35-0.29,1,1,0,0,0,.26-0.2,0.51,0.51,0,0,1,.15-0.08,1.11,1.11,0,0,0,.25-0.12,1.09,1.09,0,0,1,.34-0.1,0.12,0.12,0,0,0,0,0H38a0.11,0.11,0,0,0,0,0h0.29a0.11,0.11,0,0,0,0,0h0.14ZM38.87,24h0l0,0h0l0,0h0l0,0h0ZM38.82,37.55h0l0,0h0l0,0h0l0,0h0ZM37.69,22.89h0l0,0h0a0.07,0.07,0,0,0,0,0h0l0,0h0A0.07,0.07,0,0,0,37.69,22.89Zm1,12h0l0,0h0a0.07,0.07,0,0,0,0,0h0l0,0h0A0.07,0.07,0,0,0,38.64,34.91ZM40,20.43l0,0L40,20.67l0.14-.1,0,0.13,0.11-.14h0l0,0h0l0,0H40.14V20.48H40l0,0h0l0,0h0Zm-1.1,19.08h0l0,0h0l0,0h0l0,0h0Zm0.41-18.67a0.14,0.14,0,0,0,.07,0,0.15,0.15,0,0,0,0,.23c0-.12.08-0.15,0-0.23l0,0h0l0,0h0Zm1.37,0.77h0l0,0h0l0,0v0l0,0H40.51l0-.09h0a0.1,0.1,0,0,0,0,.09v0.18h0l0.1-.18h0Zm-1.6,17.13h0l0,0h0l0,0h0l0,0h0Zm-1-19.52,0.05,0a0.37,0.37,0,0,0,0-.06s0,0.05,0,0h0l0,0h0A0.65,0.65,0,0,0,38.13,19.22Zm1.34,0.32-0.05,0a0.37,0.37,0,0,0,0,.06s0-.05,0,0l0,0-0.14.09-0.11-.06L39,19.82v0.4L39,20.34l0-.18-0.09.17H39l-0.06.18a0.26,0.26,0,0,0,.21-0.12c0,0.09-.18.14-0.06,0.28l0.13-.22,0.05,0,0,0.06c0.13,0,0-.09,0-0.13l0-.11a0.8,0.8,0,0,0-.33.19,0.17,0.17,0,0,1,0-.15,0.32,0.32,0,0,0,.06-0.13,0.74,0.74,0,0,0,0-.32,0.16,0.16,0,0,1,0,0l0.09,0.05a0.34,0.34,0,0,0,.11-0.22A0.61,0.61,0,0,0,39.46,19.54Zm-2,0h0l0,0h0a0.11,0.11,0,0,0-.08,0h0l0-.09h0A0.08,0.08,0,0,0,37.5,19.56Zm2.72,4.62,0.05,0a0.37,0.37,0,0,0,0-.06s0,0.05,0,0h0l0,0h0A0.64,0.64,0,0,0,40.22,24.18Zm0.29-.7h0l0-.09h0a0.1,0.1,0,0,0,0,.09,0.2,0.2,0,0,0,0,.09h-0.1l-0.08,0-0.05.12a0.17,0.17,0,0,0,.22-0.08l0,0A0.15,0.15,0,0,0,40.51,23.48Zm-0.93-1.58,0.05,0a0.38,0.38,0,0,0,0-.06s0,0.05,0,0h0l0,0h0A0.64,0.64,0,0,0,39.59,21.91Zm-0.82-.23,0.05,0a0.37,0.37,0,0,0,0-.06s0,0.05,0,0h0l0,0h0A0.65,0.65,0,0,0,38.77,21.68ZM38.59,40.29v0l0.09,0v0a0.08,0.08,0,0,0-.08,0h0l0,0h0A0.11,0.11,0,0,0,38.59,40.29Zm-0.4-4.35-0.05,0a0.38,0.38,0,0,0,0,.06s0-.05,0,0h0l0,0h0A0.64,0.64,0,0,0,38.19,35.94Zm0.26-12.59h0l0,0.09h0a0.1,0.1,0,0,0,0-.09V23.21l0.11,0.13,0.08,0a0.19,0.19,0,0,0,.25.06,0.29,0.29,0,0,0-.11-0.09c-0.06,0-.11-0.07-0.16,0a0.37,0.37,0,0,1-.11-0.31l-0.08,0V22.81l-0.07,0-0.09-.25v0.28l0.13,0.08c0,0.08,0,.15,0,0.21l0,0-0.07.11h0.09s0-.06,0-0.09l0.09,0.09-0.1.07A0.4,0.4,0,0,0,38.45,23.34Zm0,14.12h0l0,0h0l0,0,0.1,0.18,0-.18H38.41Zm0.3-15.89,0-.05-0.06,0s0.05,0,0,0V21.35l-0.08.1A0.6,0.6,0,0,0,38.7,21.58Zm0.8,3.57,0,0s0-.08-0.05,0a0.34,0.34,0,0,0,0,.13A0.37,0.37,0,0,0,39.51,25l-0.05,0a0.38,0.38,0,0,0,0,.06S39.49,25,39.5,25.14ZM39.35,24c0.07,0,.13,0,0.09-0.14a0.33,0.33,0,0,0-.07.16h0l0,0h0A0,0,0,0,0,39.35,24Zm0.52-2.74-0.14.08v0h0.13V21.25a0.15,0.15,0,0,0,0-.15L40,21.27l0.09,0L40,21.08,39.85,21l-0.11.1,0-.14,0,0-0.07.14-0.09-.24,0,0.19-0.08,0v0.11l0.09,0,0,0.11h0.12V21.19l0.07-.07,0,0.11a0.15,0.15,0,0,1,.2,0A0,0,0,0,1,39.87,21.23Zm-2.34-.66H37.45v0.09H37.6a0.16,0.16,0,0,1,0-.09c0-.05,0-0.05,0-0.13A0.31,0.31,0,0,1,37.53,20.57ZM37.72,41h0l0,0h0l0,0v0.09L37.87,41l0-.07Zm1.05-18.54-0.15.08,0,0.07a0.13,0.13,0,0,0,.11-0.15c0.09,0,0-.09.05-0.11A3.27,3.27,0,0,0,39,21.85H38.82L38.91,22a0.33,0.33,0,0,0-.09.29C38.73,22.32,38.79,22.39,38.77,22.43Zm-0.32,0-0.14.11v0.16a0.77,0.77,0,0,1,.16-0.19h0l0,0.09h0a0.1,0.1,0,0,0,0-.09s0-.06,0-0.09a0.13,0.13,0,0,0,.14-0.12l-0.08,0Zm0.87-.68v0.13l0.16-.09-0.12-.07-0.06,0a0.82,0.82,0,0,0,0-.11,1.07,1.07,0,0,0,0-.12h0l-0.12.22Zm-1.09-.86c-0.05-.05,0-0.17-0.14-0.18L38.16,21a0.23,0.23,0,0,0,0-.23h0.06l0.06-.12-0.12-.06A1.27,1.27,0,0,0,38.24,20.9Zm0.13,18h0l0,0h0l0,0c0-.13-0.1-0.13-0.19-0.2A0.19,0.19,0,0,0,38.37,38.91Zm1.37-14.24h0l0-.09h0a0.09,0.09,0,0,0,.07.09l-0.14.1,0,0.09C39.82,24.81,39.85,24.75,39.74,24.67Zm-0.18-.91h0l0-.13h0a0.19,0.19,0,0,0,0,.13l-0.06.12,0.09,0,0,0.12h0V23.75H39.56ZM38.51,39.55h0l0,0h0l0,0a0.29,0.29,0,0,0,0-.25l-0.1,0c0,0.07,0,.12.06,0.2V39.49l-0.31.07,0.12,0.18,0-.12a0.38,0.38,0,0,0,.17-0.11ZM38.31,21.07h0l0,0h0l0,0a0.11,0.11,0,0,0,.08.13l0.08-.13A0.15,0.15,0,0,0,38.59,21l0.05,0h0l0,0a0.37,0.37,0,0,0-.09-0.34V20.64l0.23,0.07c0,0.08,0,.14,0,0.21s0,0.13,0,.19h0a0.38,0.38,0,0,0,.08-0.2c0-.09,0-0.18,0-0.26l-0.14,0a0.48,0.48,0,0,0-.05-0.29,0.19,0.19,0,0,0-.07,0V20.5l0.11,0.06-0.19,0v0.08c-0.11,0-.07-0.13-0.11-0.19l-0.07,0v0.3s0,0.06,0,.13v0l-0.09,0v0a0.1,0.1,0,0,0,.09,0h0.08l0-.18h0.08l0,0.12,0,0.2A0.4,0.4,0,0,0,38.31,21.07ZM38,38.56l0.06-.12-0.13-.06c0,0.08,0,.13.07,0.19l0,0.1,0,0.12,0.13-.06V38.51Zm0.74,0.81h0.09v-0.1l-0.15-.17-0.07.07a0.29,0.29,0,0,1,.13.21c0,0.05,0,.05,0,0.13A1,1,0,0,1,38.73,39.37ZM37.32,19.64a0.27,0.27,0,0,0-.05.18s-0.12,0-.07.09a0.25,0.25,0,0,0,.21-0.05V19.76l-0.08,0a0.42,0.42,0,0,0,0-.08h0l0,0h0Zm1.23-.12V19.43H38.46v0.08a0.29,0.29,0,0,0,.2-0.09,0.5,0.5,0,0,0-.16.2l0.06,0.06,0.16-.11V19.49S38.68,19.45,38.55,19.52Zm0.6,2.09h0.07V21.45l-0.09,0,0.06-.15H39.11L39,21.38a0.48,0.48,0,0,1,0,.34l0.05,0a0.37,0.37,0,0,0,0-.06S39.1,21.67,39.15,21.61Zm1-.77H40.12l0-.09a0.38,0.38,0,0,0-.2.06l0.1-.09H39.87s0,0.06.09,0,0,0.12,0,.18a0.11,0.11,0,0,0,0,0L40,20.89c0.05,0,.1.08,0.17,0V20.84l0.18,0V20.76H40.19v0.08Zm-1.73-.63h0l0,0h0s0,0,.15-0.15c-0.11,0,0,.14-0.11.18a0.32,0.32,0,0,0,0,.13h0.08l0-.13,0.12,0V20.08S38.6,20,38.45,20.21Zm-0.35,0h0l0-.13h0a0.19,0.19,0,0,0,0,.13l0,0.05-0.19-.09a0.15,0.15,0,0,0,0,0,1.46,1.46,0,0,0,.23.22l0.18-.19V20.16a0.17,0.17,0,0,0,0-.18L38.27,20V19.76l-0.14,0V19.57a0.13,0.13,0,0,0-.09.14,0.73,0.73,0,0,1-.05.16l-0.08,0v0l0.26-.05v0.17l0.14,0v0.08l-0.1,0Zm0.31,19.56-0.12.1L38,39.66v0.11a0.59,0.59,0,0,0,.34.24l0.07-.1a0.5,0.5,0,0,0-.06-0.21l0.09,0.1V39.69S38.4,39.69,38.41,39.77Zm1.33-18.22,0.07,0.12,0.08,0.1,0,0.05a0.64,0.64,0,0,0,0,.1L39.94,22a0.32,0.32,0,0,1,0-.27,0.09,0.09,0,0,0,0-.12,0.12,0.12,0,0,1,0-.06l0.12,0V21.39l-0.09.05-0.06-.05a1.07,1.07,0,0,0-.15.19h0l0,0h0A0.14,0.14,0,0,0,39.74,21.54Zm-1,.47h0l0,0h0l0,0V21.9l-0.23-.17,0,0-0.1-.09a0.65,0.65,0,0,1,0,.11l-0.07.07L38.59,22l0.08,0.1Zm-1.2-1h0l0,0.09h0s0-.06-0.07,0l0.08-.26h0.12l0.19-.22H38l0,0.1,0-.1,0.07,0-0.06-.12-0.15.08c-0.08,0,0-.16-0.16-0.12l0,0.18c-0.11.13-.11,0.13-0.13,0.11l0-.14-0.09.19-0.19.09L37.49,21A0.14,0.14,0,0,0,37.58,21.07Zm2.2,3.1-0.06-.08L39.43,24c-0.08.07-.07,0.19-0.17,0.27a0.32,0.32,0,0,0-.17.23l0.13,0.12a1,1,0,0,1,.21-0.42l0.22,0a0.14,0.14,0,0,0,.17,0l-0.06.18,0.13-.06a0.15,0.15,0,0,1,.07,0l0,0a0.22,0.22,0,0,0-.19,0,0.66,0.66,0,0,1,.05-0.25l-0.05,0a0.38,0.38,0,0,0,0,.06S39.81,24.11,39.78,24.16Zm-2.73-3,0.18-.07,0-.14,0.07,0.14V20.94l-0.07-.06V20.71c0.1,0,.07.05,0.1,0.08h0V20.63l-0.18-.09V20.48h0.13l0.06,0.09,0.12-.1,0-.16,0.22,0.14V20.28l-0.07.06-0.13-.17c-0.08,0-.06.19-0.22,0.16l0.07-.12s0-.09.05-0.14l0.08,0V20H37.37l0,0.13H37.24l-0.17.19,0.12,0.06v0.06a0.67,0.67,0,0,1-.29-0.14l0,0.08,0.21,0.17a1.47,1.47,0,0,0,0,.15c-0.06.05,0,.1,0,0.14l-0.1,0a0.52,0.52,0,0,1,0,.41l0.05,0a0.37,0.37,0,0,0,0-.06S37,21.21,37,21.16Zm-0.83,1.09a0.33,0.33,0,0,1,0,.33,0.12,0.12,0,0,0,0,.08,1,1,0,0,1,0,.41l0.07,0.05a1.84,1.84,0,0,0,.39,1v0.12a1.44,1.44,0,0,1,.36.45,0.14,0.14,0,0,0,.08.07,0.69,0.69,0,0,1,.28.21,0.41,0.41,0,0,0,.17.13,1.38,1.38,0,0,1,.31.16h0.33l0.18-.17V24.77a0.86,0.86,0,0,0-.2-0.24c-0.15-.08-0.27-0.19-0.41-0.27a3.81,3.81,0,0,1-.52-0.54,1.88,1.88,0,0,1-.27-1,0.51,0.51,0,0,1,0-.32A1.13,1.13,0,0,1,37,22.06l-0.34-.23L36.4,22A0.54,0.54,0,0,0,36.22,22.25Zm3.36-1.62,0.11-.14V20.29H39.52l-0.12.15,0,0h0l0.07,0.15,0,0H39.47v0.12h0.12l0,0.14,0.16-.17V20.65l-0.06,0Zm0.36,1.45H39.88a0.38,0.38,0,0,1-.23.34l0.06,0.06,0.16-.15L40,22.44l0.15-.06v0.19h0.09l-0.11-.3-0.1,0,0-.09-0.08,0Zm-1.05-2L39,19.82l-0.07-.07c-0.07.13-.16,0-0.25,0L38.7,20ZM38.7,39.94l-0.11-.19L38.5,40l-0.12.08v0.29l0.12-.08c0-.06-0.13-0.08-0.06-0.18l0.18,0.11L38.54,40Zm1.8-18.05-0.07.05,0,0.13H40.33v0.11l-0.08.08v0c0.12,0.07.17,0.07,0.19,0l0-.18,0.2,0ZM37.89,40.1l0,0a0.38,0.38,0,0,1,0,.41L38,40.62l0,0.1h0V40.46L38,40.4,38,40.25Zm1-17.47L39,22.74l0.08-.22,0.09,0.09c0.07-.08,0-0.13,0-0.22l0.08-.06V22.16L39,22.48l-0.1-.06L39,22.56Zm1.44-1.35v0.14l-0.16-.05-0.05-.11v0.16l0.2,0.14,0.15-.19,0-.17Zm-0.45,2-0.06.14L40,23.37l-0.07.18,0,0,0.14-.14,0.2,0.05V23.4ZM40,24l0,0.1,0.12-.47a1.81,1.81,0,0,0-.28.35,0.14,0.14,0,0,0,0,.06Zm-2.35-4.37,0,0.1L37.58,20l0.19-.12a0.24,0.24,0,0,1,0-.21c0.13,0.07.13,0.07,0.22,0H37.64Zm1.91,2.7a0.42,0.42,0,0,0-.07.31l0.1-.19,0.1-.17-0.19-.11Zm-0.82-.94L39,21.32l-0.21-.09,0-.09-0.11.1,0.09,0v0.11ZM38,21.28l0.12-.08-0.14-.09-0.07.2a1.15,1.15,0,0,0,.06.13H38ZM40.15,24c0.07,0.08.14-.07,0.21,0l0.08-.21A0.55,0.55,0,0,0,40.15,24Zm-2,15.41-0.27-.1c0,0.15.11,0.13,0.17,0.16l0,0.09Zm0-17h0L38,22.55a0.12,0.12,0,0,0,.18,0l0-.07V22.39ZM38.34,38.3l0.13-.22L38.33,38l0,0ZM38.22,22.87a0.24,0.24,0,0,0-.17.19h0.19V22.87Zm0.27-1.57H38.37l0,0.09H38.21l0.07,0.12Zm0.67-.56c-0.1,0-.07.1-0.12,0.14L39.12,21A0.26,0.26,0,0,0,39.16,20.75Zm1.17,3.85-0.14-.28h0v0.16l0.08,0.08a0.42,0.42,0,0,1,0,.08ZM38.85,39.68a0.27,0.27,0,0,0-.07.26l0,0,0.08-.06Zm-0.1.46,0,0.33A0.19,0.19,0,0,0,38.75,40.14ZM40.26,22a0.32,0.32,0,0,0,.1-0.3l-0.16.23Zm0.34-.1L40.66,22a0.38,0.38,0,0,1,0-.1,0.44,0.44,0,0,1,.1-0.05l-0.15-.09Zm-1.12,0-0.2.11v0.14l0.05,0,0.06,0Zm-1.89-.82,0.17,0,0,0.17a0.33,0.33,0,0,0,0-.27Zm2.74,0.11L40.2,21,40.15,21l0.11,0.21Zm-1.28,3.45L39,24.32l-0.07.29h0.15Zm-2.27-3.77V21h0.07l0.08-.25Zm1.46,0.33a0.34,0.34,0,0,0-.14.22l0.21-.1Zm-0.3,19.74c0-.06.16,0,0.09-0.12H37.82Zm0.47-.45a0.32,0.32,0,0,0-.25.05v0l0,0,0,0.11,0.05-.13,0.07,0,0.08,0v-0.1ZM37.77,22.39c-0.06-.18-0.1-0.19-0.22-0.07Zm1,15.93,0.1-.22-0.06-.06-0.1.21Zm-0.29-18.9a0.37,0.37,0,0,1,.16-0.23,0.16,0.16,0,0,0,0-.06l-0.17.07v0.23Zm0.68,4.66,0,0A0.42,0.42,0,0,0,39,23.86h0V24a0.13,0.13,0,0,1,.06,0Zm0.47-1.61,0,0,0.07,0.16,0,0,0.06,0,0,0Zm-0.7,1.16-0.05.15h0.09V23.57H38.86ZM38.39,19.8a0.26,0.26,0,0,0,0-.24l-0.1.17Zm-1.38,0,0,0L37,19.6l-0.13,0Zm1.24,17.55a0.33,0.33,0,0,0-.12.17C38.25,37.49,38.27,37.48,38.26,37.31Zm2.31-14.83a0.45,0.45,0,0,0,0-.28l-0.06.18Zm-0.1.62L40.65,23l0-.05-0.16,0v0.09Zm-1.5.18,0.11,0.16h0L39,23.2Zm0.38,0.11-0.09-.15-0.08.15h0.17Zm-0.83.24h0.11a0.12,0.12,0,0,0,0,0l0,0H38.51v0.08Zm1,0.94c-0.14,0-.14,0-0.13.14Zm-1.92-2.08,0.19,0.1,0.09-.1H37.59Zm1.31,0.3,0,0V23L39,22.86Zm-0.13-3a0.13,0.13,0,0,0,.07-0.19H38.78v0.19ZM39.13,22c0-.05,0-0.1.05-0.15a0.07,0.07,0,0,0,0,0L39,22Zm-2.69-1.27-0.11,0-0.06.16Zm3.24,2.67-0.12.13h0.12V23.44ZM38.45,40.5v0.22l0.09-.2Zm-0.27-19-0.13,0,0.2,0.09Zm1.69,3.25v0.07L40,24.94C40,24.85,40,24.79,39.88,24.8ZM39,25.55c0.1,0,.16-0.06.14-0.15H39.07Zm1.29-2.3a0.12,0.12,0,0,0,.14-0.12l-0.08,0ZM38.75,36.92h-0.1v0.2Zm0.36-15.73,0-.09-0.18.09h0.22Zm-1.24,1.73,0,0L38,22.76h-0.1v0.16Zm2.82,0.84-0.13.06v0l0,0.06A0.12,0.12,0,0,0,40.68,23.76ZM39.25,23L39.32,23c-0.11-.11-0.11-0.11-0.14-0.09Zm0-1.78,0,0.09h0.13l0-.08H39.22Zm0.92,2.91L40,24.23l0,0.07A0.11,0.11,0,0,0,40.14,24.17ZM40.38,21c0.07-.08,0-0.1,0-0.13l-0.1,0Zm-2,1.1V22H38.3Zm0.46,2.09-0.11.12h0.11V24.22Zm-2-3.72v0.16l0.11,0Zm3,3.37,0.11-.14-0.11,0v0.16Zm-1.52,16.9h0.17l-0.13-.1Zm-0.13-.39V40.22l-0.1.13Zm2-17.25-0.11,0v0.16ZM38.1,37l0.09,0.16,0-.24ZM36.71,21.25l-0.11-.16v0.16h0.11Zm2.4,2.87c-0.07.08,0.06,0.12,0,.19C39.23,24.22,39.17,24.17,39.11,24.12Zm0.29-4.8-0.11.14,0.11,0V19.31Zm-1.75.94a0.14,0.14,0,0,0-.08-0.19Zm2.27-.49,0,0.1L40,19.92C40.08,19.81,39.95,19.85,39.93,19.76Zm-1.78-.29,0.11,0.16V19.48H38.15Zm2.58,3.21c0.07,0,.11.11,0.19,0S40.81,22.62,40.73,22.69ZM38.18,38.27l0,0.16,0.09-.15Zm0.17-.33h0.17l0-.1Zm2-13.53V24.25l-0.1,0Zm-1-2.23v0.16l0.11,0ZM39.11,40.07s-0.1,0-.09.12h0.13ZM39.73,20l-0.15-.07,0.08,0.16Zm0.08,3.5h0v0.18h0V23.48ZM38.28,39.4l0-.17-0.08.07ZM36.67,20.79V20.7l-0.08,0,0,0.08h0.07ZM38.44,24V23.85l-0.09.06ZM39,40L39,40,39,39.84V40Zm-0.53-1.25,0-.17-0.08.07Zm1.85-16.15c-0.1,0-.1,0-0.07.09h0.07V22.62Zm-2,17.63h-0.1l0,0.08,0.08,0V40.25ZM39.64,22.8c-0.1,0-.1,0-0.07.09h0.07V22.8ZM38.08,37.37v-0.1l-0.08,0,0,0.08h0.07Zm0-15.34h0v0.18h0V22Zm1.54-.1c0,0.05-.1.06,0,0.15S39.67,22,39.62,21.93Zm0.07,0c0,0.1,0,.1.09,0.07V21.89H39.69ZM38.25,41c0,0.08,0,.1.05,0.14S38.28,41,38.25,41Zm1.11-18.39a0.13,0.13,0,0,0-.08-0.15A0.13,0.13,0,0,0,39.36,22.62Zm-0.46-1,0,0.11,0,0V21.55ZM38.79,40.51v0.1l0.08,0,0-.08H38.79Zm1.4-18.93h-0.1l0,0.08,0.08,0V21.58Zm-1.13-2.16h0.14l0-.1ZM37.64,37.86h0.14l0-.1Zm0.85-12v-0.1l-0.08,0,0,0.08h0.07Zm0.21-2.72,0,0.09,0,0,0-.13Zm-0.35-3.66c0-.12,0-0.12,0-0.11ZM38.1,40.81c0.07,0,.07,0,0.06-0.1Zm0.39-7.06V33.67l-0.12,0Zm-0.4-14.55h0l0,0.1V19.19Zm0.24,0,0.13-.07H38.32v0.07Zm1.29,5.89c0-.08,0-0.11,0-0.09Zm-1.53.86L38,25.8v0.13h0.07ZM37.37,40.41l0.13-.07H37.37v0.07ZM38.63,26h0l0,0.12h0V26Zm-1.81-5.94L37,20H36.82v0.07ZM38,19.39l0.12,0.11,0-.13Zm1.22,6.39c0-.07,0-0.07-0.1-0.06Zm0,14.55,0.12,0.11,0-.13Zm-1-1.31-0.09,0,0,0h0.08V39ZM38,39h0v0.14h0V39Zm1.43-17.48,0.09,0-0.09-.06v0.07ZM38,23.27c0,0.07,0,.07.1,0.06Zm1.73-.06,0,0.09,0,0V23.21H39.7ZM40.49,21c0,0.09,0,.11,0,0.09Zm-0.27,2-0.11.12,0.13,0Zm-3.1-1.54-0.07-.13v0.13h0.07ZM38.56,23h0V22.89h0V23Zm2.21-1.77h0l0,0.12h0V21.26ZM37.84,38.75c0.05-.12,0-0.11-0.06-0.09Zm-0.06-1.92L37.86,37V36.82H37.78Zm2.89-13.71h0v0.14h0V23.12Zm-3.73-2-0.11.12,0.13,0Zm1.93,2.1h0l0-.12h0V23.2Zm1.64-.46-0.12-.11,0,0.13Zm-0.25-.65c-0.07,0-.07,0-0.06.05Zm0.39,0.11h0l0-.12h0V22.2ZM38.52,39.44c0.11,0,.11,0,0.1-0.06Zm1.87-18.94c0-.07,0-0.07-0.1-0.06Zm-2.2,17.61v0.07l0.12,0Zm-0.38-.06-0.13.07h0.13V38.06Zm0-16H37.77l0,0.12Zm2-1.39H40l0-.12Zm-0.65,3c-0.12-.05-0.11,0-0.1.06ZM38.46,41h0l0-.07h0V41Zm0.12-3.63h0l0,0.07h0V37.33Zm0,3.91h0V41.15h0v0.09Zm0.32-2.69h0l0-.07h0v0.08Zm-0.14,2.32h0l0-.07h0v0.08Zm-0.29-2.41v0l-0.07,0v0h0.08Zm-0.16-2.22h0V36.14h0v0.09Zm-0.57,3.6h0v0.09h0V39.83Zm-0.18-.36h0v0.09h0V39.46Zm1.14,0.14h0v0.09h0V39.6Zm-0.3-3h0V36.55h0v0.09ZM37.64,40h0l0-.07h0V40Zm1.67-16.8v0l-0.07,0v0h0.08Zm-0.14,1.74h0V25h0V24.94Zm-2.55-4.7v0l-0.08,0v0h0.08ZM40,25.07h0V25h0v0.09ZM39.51,21.7h0l0-.08h0V21.7ZM36.59,20v0h0.09v0H36.59Zm1.59,1.82h0l0,0.08h0V21.8Zm0.11,3.9h0l0-.08h0V25.7Zm1-5.58h0l0,0.07h0V20.12Zm-0.41,0h0l0,0.07h0V20.12Zm0.77,3h0l0,0.07h0V23.08Zm-1.85-2.92h0V20.07h0v0.09Zm1,5.2h0l0,0.08h0V25.36Zm0.59-1.6h0v0.09h0V23.75Zm-0.44-.31v0H39v0H38.91Zm-2.63-2.07h0l0-.08h0v0.08Zm2.31-.21h0l0,0.07h0V21.17Zm-0.46,2.49v0l-0.08,0v0h0.08Zm2.46-2.5v0l-0.07,0v0h0.08Zm-2.22,2.57v0l0.07,0v0H38.37ZM39,21.56h0l0-.08h0v0.08ZM39,24h0l0,0.08h0V24Zm-1.12-.55h0V23.39h0v0.09Zm0-2.68h0l0,0.08h0V20.8Zm2.68,0.54h0v0.09h0V21.34Zm-0.09-.58h0l0,0.08h0V20.76Zm-1.23,3.32h0l0,0.07h0V24.08Zm-0.6-1.42h0v0.09h0V22.66Zm-0.16.08h0l0-.08h0v0.08Zm1.08-3.24v0H39.5v0h0.09Zm-0.58,0h0l0-.07h0v0.08Zm0,0.14h0V19.61h0V19.7Zm-0.78,2.54h0l0-.07h0v0.08Zm0.48-.08h0v0.09h0V22.16Zm-0.85-2.9v0h0.09v0H37.82Zm0.06,3.18h0V22.34h0v0.09Zm1-3.28h0v0.09h0V19.15ZM37.73,22.7h0l0-.07h0V22.7Zm1.14-3.23h0l0-.08h0v0.08Zm-1.52-.08h0l0,0.07h0V19.39Zm1.38,0v0l0.08,0v0H38.74Zm-1.23.49h0l0-.07h0v0.08Zm-0.57,0h0v0.09h0V19.84Zm2,6.34h0l0,0.08h0V26.17Zm1.45-3.74h0v0h0v0ZM37.68,38.75v0h0v0h0ZM37.29,21.39h0v0h0v0Zm1,0.93v0h0v0h0Zm-0.73-1v0h0v0h0Zm0.73,0.33v0h0v0h0Zm-2.09,0v0h0v0h0ZM38,37.87h0v0h0v0Zm0.09-16.21h0v0h0v0Zm0.11,16.18v0h0v0h0ZM37.71,21.75h0v0h0v0Zm1.17,0h0v0h0v0ZM38.64,38.61v0h0v0h0ZM38.27,21.73v0h0v0h0Zm0.24,0.33h0v0h0v0ZM38,21.52h0v0h0v0ZM38.09,40v0h0v0h0ZM40,19.73v0h0v0h0ZM39.5,20v0h0v0h0ZM37.71,40.64h0v0h0v0ZM37.53,19.29h0v0h0v0Zm1.15,21.28v0h0v0h0ZM38.5,18.81v0h0v0h0Zm0.27,22.32v0h0v0h0Zm-0.83-.08h0v0h0v0Zm0.52-22v0h0v0h0Zm-0.2,21.84h0v0h0v0ZM37.77,19.08v0h0v0h0Zm-0.3.08h0v0h0v0Zm-0.74.47v0h0v0h0Zm1,20.75h0v0h0v0Zm-0.11,0h0v0h0v0Zm-0.44-20.9h0v0h0v0Zm-0.62,1v0h0v0h0Zm1.68,0v0h0v0h0Zm1.12,0h0v0h0v0Zm0.33,0v0h0v0h0ZM38.52,39h0v0h0v0ZM36.7,21.07h0v0h0v0Zm1.46,0.09h0v0h0v0Zm1.11,0h0v0h0v0ZM38,20.89h0v0h0v0ZM40,21h0v0h0v0Zm-1.35,18v0h0v0h0ZM37.17,20h0v0h0v0Zm0.71,0h0v0h0v0Zm2,0.09h0v0h0v0ZM39,39.37h0v0h0v0Zm-1.11.14h0v0h0v0Zm1-14.16h0v0h0v0Zm0.73,0h0v0h0v0Zm0,0.09h0v0h0v0Zm-0.35-.36h0v0h0v0Zm0.58,0.09h0v0h0v0Zm-0.77,0h0v0h0v0ZM38,25.67h0v0h0v0Zm0.55,10.06h0v0h0v0Zm1.94-11.2h0v0h0v0Zm-1,.29v0h0v0h0Zm0.73,0v0h0v0h0Zm-0.85.12h0v0h0v0Zm0.47,0h0v0h0v0Zm-1,2.19h0v0h0v0Zm-0.29-.36h0v0h0v0Zm0.2,0h0v0h0v0ZM38.49,33.5h0v0h0v0Zm0.36-7.69h0v0h0v0ZM38.18,34v0h0v0h0ZM39.9,23h0v0h0v0Zm1.21,0h0v0h0v0Zm-1.26-.23h0v0h0v0ZM38,36.82h0v0h0v0Zm0.15-13.61h0v0h0v0ZM38.93,37h0v0h0v0Zm-1.2-13.95v0h0v0h0Zm3,0v0h0v0h0Zm-1.31-.24h0v0h0v0ZM38.14,37.2v0h0v0h0Zm-0.39.26h0v0h0v0Zm2.88-14.8h0v0h0v0Zm-2.55.09h0v0h0v0Zm1,0h0v0h0v0Zm1.71,1v0h0v0h0Zm-1.58.08h0v0h0v0Zm-0.35,0h0v0h0v0Zm2-.27h0v0h0v0Zm-3,12.66h0v0h0v0Zm0.2-.39v0h0v0h0Zm0.24-11.67h0v0h0v0Zm-0.61-.88v0h0v0h0Zm0.88,13.45h0v0h0v0Zm-0.29,0v0h0v0h0Zm2.12-13.51h0v0h0v0ZM38.71,36.41h0v0h0v0Zm0.36-12.88h0v0h0v0ZM38.36,36.38v0h0v0h0Z" transform="translate(-10.84 -10.87)"/><path class="cls-1" d="M18.86,25.71c0.1-.11.13-0.26,0.23-0.37L19.32,25a1.69,1.69,0,0,1,.15-0.19c0.09-.09.19-0.16,0.28-0.24H20l0.71,0.44a6.78,6.78,0,0,1,.76.33,0.93,0.93,0,0,1,.44.08H22c0.25,0,.5,0,0.75,0A0.8,0.8,0,0,0,23,25.4c0.09,0,.19-0.05.28-0.1a0.52,0.52,0,0,0,.37-0.47,0.14,0.14,0,0,1,0-.06l-0.11-.33a1.34,1.34,0,0,0-.71-0.37c-0.23-.07-0.46-0.11-0.69-0.2s-0.38-.1-0.57-0.16a3,3,0,0,1-.33-0.09,0.51,0.51,0,0,0-.34,0,0.53,0.53,0,0,0-.27-0.15,1.54,1.54,0,0,1-.44-0.2c-0.06,0-.14,0-0.19-0.09L19.86,23a2.19,2.19,0,0,1-.3-0.26,2.21,2.21,0,0,1-.34-0.49C19.17,22.09,19.11,22,19,21.86s0-.29-0.05-0.45a1.72,1.72,0,0,1,0-.5,4.15,4.15,0,0,1,.1-0.43c0.05-.14.09-0.28,0.15-0.47a2,2,0,0,0,.29-0.4,0.37,0.37,0,0,1,.08-0.09l0.06,0c0.12-.11.23-0.23,0.36-0.33a4.08,4.08,0,0,1,.38-0.23,0.21,0.21,0,0,1,0,0,2.9,2.9,0,0,0,.44-0.14c0.15,0,.29-0.09.44-0.11a3.28,3.28,0,0,1,.53-0.08,0.9,0.9,0,0,1,.16,0,0.47,0.47,0,0,1,.2,0,0.47,0.47,0,0,0,.22,0,0.48,0.48,0,0,1,.21,0,0.75,0.75,0,0,0,.2,0,0.9,0.9,0,0,0,.16,0,1.81,1.81,0,0,1,.78.15l0.34,0.12a1,1,0,0,0,.35.11,0.49,0.49,0,0,1,.19.13,0.73,0.73,0,0,0,.32.14l0.24,0.25a0.56,0.56,0,0,1,.13.33,1.62,1.62,0,0,1,0,.35,0.55,0.55,0,0,0-.18.26,0.19,0.19,0,0,1-.05.07c-0.08.09-.17,0.18-0.25,0.28a0.93,0.93,0,0,1-.28.19l-0.09,0a0.57,0.57,0,0,1-.37-0.09l-0.8-.37a3.78,3.78,0,0,0-.42-0.13,4.19,4.19,0,0,0-.91,0,1.51,1.51,0,0,0-.44,0,0.75,0.75,0,0,0-.36.28l-0.06.13v0.3l0,0a0.83,0.83,0,0,0,.58.44c0.08-.08.16,0,0.23,0s0.15,0.07.23,0.09a1.35,1.35,0,0,0,.24.07,4.43,4.43,0,0,0,.7.15,0.63,0.63,0,0,1,.17.08c0.12,0,.25.05,0.37,0.1a0.86,0.86,0,0,0,.35.09l0.06,0,0.31,0.13a1.74,1.74,0,0,1,.3.21c0.14,0.1.28,0.21,0.41,0.32s0.25,0.25.34,0.34l0.26,0.55c0,0.13,0,.25.06,0.38a1.14,1.14,0,0,0,0,.39,1.57,1.57,0,0,0,0,.28,1.88,1.88,0,0,1-.2.83,2.22,2.22,0,0,1-.5.73,0.2,0.2,0,0,0,0,.06h0a1.81,1.81,0,0,0-.24.16,2.25,2.25,0,0,1-.64.37,2.19,2.19,0,0,1-.31.13c-0.11,0-.23,0-0.34.06a3.7,3.7,0,0,1-.42.09,4.14,4.14,0,0,1-.69,0,0.2,0.2,0,0,0-.07,0,0.23,0.23,0,0,0-.07,0H22.09a3.71,3.71,0,0,1-.66-0.05,2.26,2.26,0,0,1-.68-0.17,0.72,0.72,0,0,1-.25,0,0.22,0.22,0,0,1-.1,0c-0.14-.08-0.3-0.13-0.44-0.21s-0.51-.28-0.75-0.44a2.51,2.51,0,0,1-.29-0.29s0-.13-0.06-0.16V25.71ZM23,23.2h0l0,0h0a0.07,0.07,0,0,0,0,0h0l0,0h0A0.07,0.07,0,0,0,23,23.2Zm-0.72,3.37a0.6,0.6,0,0,0,.1-0.16l-0.05,0a0.38,0.38,0,0,0,0,.06s0-.05,0,0l0,0h0l0,0h0Zm1.19,0h0l0,0h0a0.07,0.07,0,0,0,0,0h0l0,0h0A0.07,0.07,0,0,0,23.51,26.58Zm-4-5.15h0l0,0h0l0,0h0l0,0h0Zm0.78,4.22-0.05,0a0.38,0.38,0,0,0,0,.06s0-.05,0,0h0l0,0h0A0.64,0.64,0,0,0,20.32,25.65Zm0.17,0.16h0l0,0h0l0.15,0.08,0-.05-0.06,0S20.55,25.84,20.49,25.81Zm0-4.06h0l0,0.09h0s0-.06-0.15-0.14l0,0.05,0.06,0A0.12,0.12,0,1,0,20.53,21.75Zm-0.26,0h0l0,0h0a0.11,0.11,0,0,0-.08,0h0l0-.09h0A0.09,0.09,0,0,0,20.27,21.75Zm0.55,0.82h0l0,0h0l0,0V22.48H20.73v0.08h0.09Zm3.37,1.27-0.11.23c0.12,0,.1-0.11.16-0.29l-0.05,0a0.38,0.38,0,0,0,0,.06S24.22,23.84,24.19,23.84Zm0.69,0.55h0l0,0h0l0,0a0.11,0.11,0,0,0-.11-0.13ZM24.5,25l0,0.09h0.13l0-.08H24.5Zm-0.43-1.37,0.12-.07-0.12-.06L24,23.55Zm-3.18,2.59,0,0-0.05-.14h0l0,0Zm3.71-.41,0.08-.15,0,0a0.27,0.27,0,0,1,0-.06h0v0.25Zm-3.84-3.87V21.73l-0.1.12Zm3.36,2.63,0.15,0.07,0,0-0.11-.12Zm-0.94,1.58,0.09,0.1A0.1,0.1,0,0,0,23.18,26.12Zm1.36-1.9a0.1,0.1,0,0,0,.08-0.16Zm-1.67-1.59V22.8l0.11,0Zm1.43,2.44s-0.1.06-.05,0.14S24.35,25.16,24.3,25.07Zm-3.77-2.34c0.05,0,.14,0,0.07-0.12ZM23,26.35c0-.08,0-0.1-0.05-0.14S23,26.31,23,26.35Zm-2.78-5.06,0,0v0.07l0.11,0Zm3.21,5.23,0-.17-0.08.08ZM20.23,21.6h0.14l0-.1Zm1.23,0.82h0V22.26h0v0.17Zm2.26,1,0,0h0.07l0-.11Zm0.36,2.23,0,0h0.07l0-.11ZM20.19,21c-0.06,0-.14,0-0.07.12ZM23,26.06c0.08,0,.1,0,0.14-0.05S23.09,26,23,26.06Zm-1.68.25,0.09,0-0.09-.06v0.07Zm-1-.18c0.05-.12,0-0.11-0.06-0.1Zm4.68-.39-0.12-.11,0,0.13Zm-5.18-4.26c0,0.12,0,.12,0,0.11Zm2.77,2,0.07,0.13V23.44H22.65Zm0-.87,0.07,0.13V22.57H22.7Zm-2.08-.39c-0.05.13,0,.11,0.05,0.1Zm0.2,0.08-0.09,0,0,0h0.08V22.27Zm1.72,0.89h0v0.09h0V23.16ZM20.1,20.51h0l0-.07h0v0.08Zm3.1,2.7v0l0.08,0v0H23.19ZM22.4,23h0l0,0.07h0V23Zm-1.9,2.72h0l0-.08h0V25.7Zm2.4-2.58h0l0,0.08h0V23.12ZM21.72,23h0l0,0.07h0V23Zm2.64,0.78h0l0,0.08h0V23.81ZM20,21.3h0l0,0.08h0V21.3Zm4.6,2.41h0l0,0.07h0V23.72ZM20,20.65h0l0-.08h0v0.08Zm0.35,0.24h0l0,0.07h0V20.89Zm1.75,5.86h0l0-.08h0v0.08Zm-1-4.55h0l0-.07h0V22.2Zm0.21,4.25h0l0,0.07h0V26.45ZM20.46,22.3v0l0.07,0v0H20.46Zm-0.52,3.41h0l0,0.07h0V25.72Zm1.24,0.44h0l0-.07h0v0.08Zm3.42-.22h0V25.85h0v0.09Zm-1.75,0v0l-0.07,0v0h0.08Zm-0.69,0h0V26h0V25.94Zm-1.12.13h0l0-.08h0v0.08ZM22.69,23h0l0-.08h0V23Zm-3-1.59h0v0h0v0Zm1.64,1h0v0h0v0Zm-1,0v0h0v0h0Zm-0.94-1h0v0h0v0ZM20,22.25h0v0h0v0ZM20.86,22v0h0v0h0Zm2.32-2.28v0h0v0h0Zm-2,.12h0v0h0v0Zm1.15-.35v0h0v0h0Zm-1.84,1.08h0v0h0v0ZM19.92,21h0v0h0v0Zm1-.83v0h0v0h0Zm-0.08.2h0v0h0v0Zm3.82,4.92h0v0h0v0Zm-0.14,0h0v0h0v0Zm-0.18.14h0v0h0v0Zm-4.81.23h0v0h0v0Zm5.11-.21v0h0v0h0Zm0.26,0h0v0h0v0Zm-0.29-.91h0v0h0v0ZM24,24.66h0v0h0v0Zm0.52-.23h0v0h0v0Zm-0.32,2.23h0v0h0v0Zm-1,.06v0h0v0h0Zm0.12,0.12h0v0h0v0ZM21,26v0h0v0h0Zm1.94,0h0v0h0v0Zm0.79,0v0h0v0h0Zm0.27,0v0h0v0h0Zm-3.32,0v0h0v0h0Zm3.25-.29h0v0h0v0Zm-3.89,0v0h0v0h0Zm2.56,0.39h0v0h0v0Zm-1.47.06v0h0v0h0Zm0.52,0h0v0h0v0Zm1.2,0h0v0h0v0Zm-2.17-3.54v0h0v0h0Zm3.69,0.32v0h0v0h0ZM21.5,23v0h0v0h0Zm1.67,0h0v0h0v0Zm-2,.11v0h0v0h0ZM20,22.57h0v0h0v0Zm1.47,0.06v0h0v0h0Zm0.15-.11h0v0h0v0Zm0.67,0v0h0v0h0Zm-1.14.27v0h0v0h0Zm1.41,0v0h0v0h0Zm-1.32-.15v0h0v0h0Zm3.14,1.61v0h0v0h0ZM23.88,24h0v0h0v0Zm-2.12-.68h0v0h0v0Zm1.84,0v0h0v0h0Zm0.59,0v0h0v0h0Zm-0.12.08h0v0h0v0Zm-2.2-.15v0h0v0h0Zm1.73,0.35v0h0v0h0Zm1.11,0h0v0h0v0Zm0.15-.23h0v0h0v0Z" transform="translate(-10.84 -10.87)"/><path class="cls-1" d="M25.54,33a0.61,0.61,0,0,1-.1.33,2.26,2.26,0,0,1-.31.4,5.46,5.46,0,0,0-.41.56,0.24,0.24,0,0,1-.1.11,0.27,0.27,0,0,0-.12.1c-0.07.13-.19,0.22-0.26,0.34a1.74,1.74,0,0,1-.25.3c-0.17.17-.31,0.38-0.47,0.55s-0.4.57-.66,0.8a0.18,0.18,0,0,1,0,.06,0.43,0.43,0,0,0,.09.45l0.14,0.19,0.1,0.14c0.08,0.1.18,0.2,0.25,0.31a1.3,1.3,0,0,0,.18.26,0.93,0.93,0,0,0,.2.21,0.24,0.24,0,0,1,.08.1,1.62,1.62,0,0,0,.28.38,4,4,0,0,0,.28.3,1.27,1.27,0,0,1,.21.3c0.05,0.08.13,0.13,0.17,0.2a4.55,4.55,0,0,1,.37.51,5.24,5.24,0,0,1,.45.54,0.8,0.8,0,0,1,.11.17v0.21a0.41,0.41,0,0,1-.42.29,2.91,2.91,0,0,1-.36,0,1.73,1.73,0,0,0-.51,0,0.43,0.43,0,0,1-.3,0,0.48,0.48,0,0,0-.25-0.06A0.25,0.25,0,0,1,23.76,41a3.91,3.91,0,0,1-.56-0.61A3.16,3.16,0,0,0,23,40.12a0.43,0.43,0,0,1-.17-0.24,0.36,0.36,0,0,0-.11-0.11,0.73,0.73,0,0,1-.16-0.21,1.58,1.58,0,0,0-.22-0.29A4.35,4.35,0,0,0,22,38.78l-0.1-.14a0.4,0.4,0,0,0-.19-0.2,0.45,0.45,0,0,1-.1-0.13,0.29,0.29,0,0,0-.48,0L21,38.42a0.15,0.15,0,0,1,0,.09,0.45,0.45,0,0,0-.09.33,1.32,1.32,0,0,1,0,.21,0.25,0.25,0,0,1,0,.19,0.2,0.2,0,0,0,0,.09,0.59,0.59,0,0,1,0,.29,0.62,0.62,0,0,0,0,.43,0.31,0.31,0,0,0,0,.29,0.48,0.48,0,0,1-.06.47,0.58,0.58,0,0,1-.37.28,1,1,0,0,1-.21,0H19.52a0.58,0.58,0,0,1-.31,0,0.81,0.81,0,0,1-.27-0.35,0.76,0.76,0,0,1-.06-0.3q0-3.52,0-7a0.94,0.94,0,0,1,.17-0.46,0.38,0.38,0,0,1,.23-0.15,1.46,1.46,0,0,1,.49,0,2.55,2.55,0,0,0,.39,0,0.62,0.62,0,0,1,.52.22l0.09,0.09a2,2,0,0,0,0,.39,2.82,2.82,0,0,1,0,.69,0.33,0.33,0,0,1,0,.19,0.31,0.31,0,0,0,0,.24,0.56,0.56,0,0,1,0,.15,0.45,0.45,0,0,0,0,.19,0.57,0.57,0,0,1,0,.22c0,0.08,0,.15,0,0.23a0.43,0.43,0,0,0,.17.36,2.38,2.38,0,0,0,.23-0.14,1.7,1.7,0,0,0,.18-0.18l0-.07c0.14-.16.3-0.31,0.43-0.48a3.16,3.16,0,0,0,.43-0.59,0.75,0.75,0,0,1,.13-0.12,3.47,3.47,0,0,0,.27-0.34A3.28,3.28,0,0,1,23,33.39l0.08-.1a2.66,2.66,0,0,0,.26-0.3,0.43,0.43,0,0,1,.23-0.14,1.49,1.49,0,0,1,.55-0.1,3.08,3.08,0,0,0,.35,0c0.23,0,.45.07,0.69,0a0.3,0.3,0,0,1,.17.08A1.72,1.72,0,0,1,25.54,33Zm-1.27,6.49h0l0,0h0a0.07,0.07,0,0,0,0,0h0l0,0h0A0.07,0.07,0,0,0,24.27,39.49Zm-0.19,1.22h0l0,0h0a0.07,0.07,0,0,0,0,0h0l0,0h0A0.07,0.07,0,0,0,24.08,40.71Zm-0.45-.9h0l0,0h0a0.07,0.07,0,0,0,0,0h0l0,0h0A0.07,0.07,0,0,0,23.63,39.81Zm-1-1h0l0,0h0a0.11,0.11,0,0,0,.08,0h0l0,0.09h0A0.08,0.08,0,0,0,22.67,38.81Zm-2.5,1.44v0l-0.09,0v0a0.08,0.08,0,0,0,.08,0h0l0,0h0A0.11,0.11,0,0,0,20.17,40.25Zm3.68-.76h0l0,0h0L24,39.54l0-.05-0.06,0S23.91,39.53,23.85,39.49Zm-0.94-1.71-0.05,0a0.38,0.38,0,0,0,0,.06s0-.05-0.07.11l0.05,0a0.38,0.38,0,0,0,0-.06S22.82,37.95,22.91,37.78ZM20.17,39l0,0-0.11-.07V39h0.09v0.09l-0.05,0s-0.07,0-.09,0l-0.18,0V39.2H20V39.12l0.08,0.09,0.06-.09h0.08C20.25,39,20.25,39,20.17,39ZM20,39.93l-0.11.13,0.11,0a0.63,0.63,0,0,1,0-.15c0-.05,0-0.05,0-0.13A0.32,0.32,0,0,1,20,39.93Zm4.29,0,0,0s-0.11,0-.08.1a0.21,0.21,0,0,0,.06.06c0-.05,0-0.09-0.08-0.1a0.56,0.56,0,0,1,0-.12,0.75,0.75,0,0,1,.06-0.13C24.1,39.78,24.12,39.86,24.32,39.92Zm-2.88-3.28-0.18-.1v0.12l0.09,0V36.8h0.07l0,0a1.52,1.52,0,0,0,0-.16h0l0,0h0A0.1,0.1,0,0,0,21.44,36.64Zm0.37,0.62a0.26,0.26,0,0,0,0-.17,0.32,0.32,0,0,0,.13-0.2l-0.23.18a1,1,0,0,1,0,.2,0.17,0.17,0,0,0,0,.15h0A0.58,0.58,0,0,1,21.82,37.27Zm0.33,0.08a1.18,1.18,0,0,0-.11.12,1.26,1.26,0,0,0-.08.15L22,37.66l0.2-.14c0-.06,0-0.11-0.16-0.09L22,37.25,22.1,37H22a1.16,1.16,0,0,0-.06.23c0,0.08-.1.14,0,0.23A1.44,1.44,0,0,0,22.15,37.35Zm-0.49.21,0.12,0.32,0.11-.09-0.14-.3ZM20,38.08l0.09,0.06v0.15l0.12,0.06a1.78,1.78,0,0,0,.11-0.2l-0.05,0a0.38,0.38,0,0,0,0,.06s0-.05,0,0H20.22a0.31,0.31,0,0,0-.2-0.31,0.12,0.12,0,0,1,0-.05,0.22,0.22,0,0,1,.16,0L20.22,38h0V37.85H20.17l0.06-.09,0.05,0,0,0,0,0,0-.21-0.05-.11H20.3v0.17h-0.1a0.37,0.37,0,0,1-.22.14L20,37.67h-0.1V37.53l0.07,0,0.06,0.05V37.31l0,0,0-.09,0.06,0.07-0.08.24,0,0h0l0.21-.24c0.06-.13-0.09-0.23,0-0.33l0.13-.07h0l0,0h0l0,0,0.07-.1a1.62,1.62,0,0,0,0-.16,0.21,0.21,0,0,0,0-.06l-0.07-.14V36.4H20.36l0-.17-0.08.12-0.16-.16c0.08-.08,0-0.14,0-0.2v0.11a1.12,1.12,0,0,0-.26.37l0.32-.11,0.08,0.18h0.1l0-.11c0,0.11,0,.23.16,0.21l-0.09.07,0.06,0.18-0.14-.13H20.22l0-.11a0.61,0.61,0,0,0-.19.16,0.14,0.14,0,0,0,0,.06h0.14a0.12,0.12,0,0,1,.06.18l-0.08-.08L20,37,20,36.58l0.08,0c-0.11-.1-0.11-0.1-0.22,0L20,36.8h-0.1a0.11,0.11,0,0,0,0,0l-0.19-.33,0-.06-0.15-.07-0.05,0-0.08-.05,0.08,0.24,0.22,0.12c-0.06.13-.13,0-0.19,0a0.37,0.37,0,0,1,.13.3l-0.18-.09,0-.18H19.45v0.18h0.08a0.21,0.21,0,0,0,.17.19l0,0.16,0,0,0.15,0.13a0.14,0.14,0,0,0,0-.18,0.11,0.11,0,0,1,.17,0v0.2l-0.08,0v0.12a0.58,0.58,0,0,1-.32-0.19l-0.09.06V37.11l-0.11,0,0.06,0.1-0.16,0a1.76,1.76,0,0,0,.17.16s0.07,0.06.12,0c0.09,0.1.24,0.12,0.34,0.22l-0.06.14H20V37.9H19.9V38a0.46,0.46,0,0,1,.15,0,0.42,0.42,0,0,0-.17.26H20A1.4,1.4,0,0,0,20,38.08Zm1.18-.55V37.39H21.12v0.13h0.08l0.09,0.13v0.17l0,0,0,0.11,0,0,0-.23a0.7,0.7,0,0,0,.17.06h0l0,0.09h0a0.1,0.1,0,0,0,0-.09l0-.2a0.59,0.59,0,0,0-.15,0Zm0.87-1.18h0l0,0h0a0.49,0.49,0,0,0,.16.07,0.16,0.16,0,0,0-.07,0,1,1,0,0,1-.13,0,0.49,0.49,0,0,1-.14-0.05c0,0.12.06,0.13,0.13,0.16v0.21h0l0-.09,0.16-.18,0.06,0V36.34S22.21,36.38,22.08,36.35Zm-0.59.74a0.49,0.49,0,0,1,0,.11,0.76,0.76,0,0,1-.05.11l0.07,0.07c0.19-.11.21-0.14,0.19-0.31h0l0,0.09L21.5,37.1l-0.06-.2H21.27v0.17l-0.08,0,0,0.09-0.06.07,0.12,0.1h0.07V37.17Zm-0.41-.79V36.21L21,36.26,21,36l-0.09.21H21a0.19,0.19,0,0,1,0,.12,0.3,0.3,0,0,0,0,.13l-0.18.18L21,36.79l0,0,0,0.14a0.14,0.14,0,0,0,.17-0.12l-0.15,0L21,36.59l0.08,0c0-.05-0.08-0.1,0-0.16s0,0.15.16,0.12l-0.07-.22H21.08ZM20.86,37h0l0-.09h0a0.1,0.1,0,0,0,0,.09,1.2,1.2,0,0,1-.22.42,0.15,0.15,0,0,1,0-.17,0.15,0.15,0,0,0,0-.17h0l0,0h0l0,0a0.11,0.11,0,0,1,0,0c0-.07,0-0.13,0-0.2a0.12,0.12,0,0,0,0,0H20.64l-0.06.31H20.49v0.09h0.08s0-.06,0-0.08h0.09a0.3,0.3,0,0,1-.17.27h0l0-.09h0a0.1,0.1,0,0,0,0,.09l-0.06.12,0.07,0c0.06-.1.07-0.11,0.12-0.07v0.17l0.15,0.19,0.08-.2a0.14,0.14,0,0,0,.18-0.06l0,0,0,0-0.18-.06,0,0.1H20.72l0.11-.21c0.08,0.08.14,0.05,0.22,0l-0.14-.11C20.94,37.15,21,37.06,20.86,37Zm-0.28-.4,0.07,0.09c0-.08,0-0.2.09-0.23l0,0.09,0.08-.09-0.19-.18H20.58v0.33Zm-0.73-1.23a0.17,0.17,0,0,1,0,.07,0.12,0.12,0,0,0,.1.14,0.11,0.11,0,0,0,.13-0.11L20,35.28,20,35.34l0,0Zm0.42,0.71a0.86,0.86,0,0,1,.18.09L20.39,36l-0.22-.11,0.07,0.28Zm0.29,1.71a0.28,0.28,0,0,0-.18.16l0.13,0.11L20.58,38V37.79Zm-0.71,1L20,38.71l0.08,0.12a0.29,0.29,0,0,0-.07-0.3l0,0L20,38.66l-0.14,0v0.1Zm0.73-.69-0.06.18,0.09,0a1.69,1.69,0,0,1,.15-0.16l0-.06Zm-0.88-.39a0.25,0.25,0,0,1,0,.26l0.14-.09-0.07-.25Zm2.08-1.11c-0.19,0-.21,0-0.19.17A0.34,0.34,0,0,0,21.79,36.59Zm-2.27,1.13v0.12l-0.18,0L19.55,38l0.07-.19a0.09,0.09,0,0,0,0,0H19.52Zm1,0.58-0.22.21a0.15,0.15,0,0,0,.1,0l0.12,0V38.3Zm1-1.51c0,0.21.18,0.11,0.24,0.18h0v0Zm0-.8,0,0.19,0.16-.25Zm-1.87,2.8a0.24,0.24,0,0,0,.25.21Zm0.76-3.18,0,0.09,0,0.08,0.09,0,0-.08,0-.08ZM22.11,36l0.11-.22,0,0H22.12A0.38,0.38,0,0,0,22.11,36Zm-2.34-1.75v0.24l0.11-.07Zm1.46,1.85,0.11,0.24,0.05-.07Zm1,0.61a0.13,0.13,0,0,0-.15.14A0.18,0.18,0,0,0,22.19,36.71Zm-1.12,1.06v0l-0.17.08,0,0.06Zm-0.5-2,0,0L20.6,36l0.06,0Zm-0.71.42c0.07-.06.11-0.11,0.06-0.19H19.86v0.18ZM19.48,36l-0.09,0v0.13l0.08,0V36Zm1.65,1.08,0,0-0.08,0,0,0.12ZM23,35.24l0.1,0A0.15,0.15,0,0,0,23,35.07l0,0.13Zm-3.66,3.52,0.14,0.11,0-.11H19.32Zm4.42-5.24-0.16.09,0.24,0Zm-0.3.84-0.09,0a0.23,0.23,0,0,0,.09.1V34.37Zm-0.28,4.77s0.15-.08.07-0.18Zm-1.39-3.37v0.16l0.11,0Zm0.78,0v0.17l0.1,0ZM20.18,40l0.09,0,0,0-0.13,0Zm-0.44-4.91H19.9V35ZM24,39.83l0,0H23.94l0,0.11ZM20,35.89l-0.05-.08,0,0h0v0.12H20Zm1.28,0.46v0.1l0.08,0,0-.08H21.27Zm-1.61-.23c-0.1,0-.1,0-0.07.09h0.07V36.12Zm2.6,0.13-0.09-.16v0.16h0.09Zm-0.19,1.8,0,0h0.07l0-.11Zm0.48-1.16c0,0.08,0,.1.05,0.14S22.59,36.93,22.56,36.89Zm-0.63-.07c0-.1,0-0.1-0.1-0.14ZM24,40.26L24,40.1v0.17H24Zm-4.32-5.49-0.09,0,0,0h0.08V34.77Zm4.23,4.86,0,0.09L24,39.63H23.94Zm-1-4.22c-0.12,0-.12,0-0.11,0Zm0.91-1.59c-0.07,0-.07,0-0.06.1Zm-4.41,3.85-0.07-.13v0.13h0.07Zm3,0.79,0.12,0.11,0-.13Zm-0.8-2-0.12-.11,0,0.13Zm-2.25.17c0.09,0,.11,0,0.09,0Zm3,0H22.4l0-.12Zm1.05,2.27c0-.07,0-0.07-0.05-0.06ZM22.28,37c0.07,0,.07,0,0.06-0.1Zm-2.6,2.72,0.11-.12-0.13,0Zm0-3.84h0l0-.12h0v0.12Zm0.39,3.39c-0.07,0-.07,0-0.06.1Zm1.68-2.85c0-.12,0-0.12,0-0.11Zm0.74,0.84h0l0,0.07h0V37.26Zm0.7,1.41v0l0.07,0v0H23.23Zm-3.41-.14h0V38.44h0v0.09Zm4.09-4.88h0l0-.07h0v0.08Zm-4,.13v0H19.8v0h0.09Zm3.2,4.61h0V38.3h0V38.4ZM19.21,38v0H19.3v0H19.21Zm0.33,1.4h0V39.35h0v0.09Zm0.32,0h0V39.35h0v0.09Zm3.58-.08h0l0,0.07h0V39.36ZM20.72,36.2h0l0-.07h0V36.2Zm3,3.24h0V39.35h0v0.09Zm-0.06-.22h0l0,0.07h0V39.22Zm-0.32,0h0l0,0.07h0V39.27Zm-3.46.41h0l0,0.07h0V39.68Zm2.6-3.78h0l0,0.07h0V35.9Zm-2.19-.23h0l0,0.07h0V35.67Zm1.87,0.44v0l-0.07,0v0h0.08Zm-0.36,0v0l-0.07,0v0h0.08Zm-2,2.64v0l-0.08,0v0H19.7Zm-0.17-4.44v0h0.09v0H19.53Zm2.92,2.85h0l0-.07h0v0.08ZM19.84,34.8h0v0.09h0V34.8Zm0.52,4.37h0V39.08h0v0.09ZM23.71,40h0l0,0.08h0V40Zm-4.32-3.43v0H19.3v0h0.09ZM19.47,39h0v0.09h0V39Zm2.87-2.22h0l0,0.07h0V36.76ZM19.58,39v0l0.08,0v0H19.58Zm3.66-.78h0v0h0v0Zm-1.26,0v0h0v0h0Zm1,0.59v0h0v0h0Zm-2.7-.7h0v0h0v0Zm-0.56.64h0v0h0v0Zm1.84-.64h0v0h0v0Zm1,0.14h0v0h0v0Zm-3.26.23h0v0h0v0Zm0.83,0.06v0h0v0h0Zm-0.38-.24h0v0h0v0Zm0.09-.18h0v0h0v0ZM22,37.94h0v0h0v0Zm-2.31.59h0v0h0v0Zm4,1.55h0v0h0v0Zm0.09-.23h0v0h0v0Zm-4.1.09h0v0h0v0Zm5,0h0v0h0v0Zm-5,.3v0h0v0h0Zm0.15-.94h0v0h0v0Zm-0.59,0h0v0h0v0Zm4.39-.5h0v0h0v0Zm-0.06.32h0v0h0v0Zm0.3,0.53v0h0v0h0Zm-0.55-.06v0h0v0h0Zm-3.2,0h0v0h0v0Zm3.45,0h0v0h0v0Zm-3.22,0h0v0h0v0Zm3.22,0.18h0v0h0v0Zm-3.13-.32h0v0h0v0Zm-0.14,0h0v0h0v0Zm-0.18,0h0v0h0v0Zm3.48,0v0h0v0h0Zm-3.35.2h0v0h0v0ZM23,39.5v0h0v0h0ZM22.46,35h0v0h0v0Zm0.26,0.29v0h0v0h0ZM20,34.89h0v0h0v0Zm3.25,0v0h0v0h0Zm-0.18,0v0h0v0h0Zm-2.7,0h0v0h0v0Zm2.55,0.73h0v0h0v0Zm-0.53,0v0h0v0h0Zm0.2-.24h0v0h0v0Zm-2,.18h0v0h0v0Zm1.7,0v0h0v0h0Zm-0.15-.06h0v0h0v0Zm-2.32,0h0v0h0v0Zm0.38-1.62v0h0v0h0Zm-0.62-.29h0v0h0v0Zm0.44,1v0h0v0h0ZM23.43,34h0v0h0v0Zm-0.71,3.31v0h0v0h0Zm-0.38,0h0v0h0v0Zm-0.93-1.41h0v0h0v0ZM20.76,36v0h0v0h0Zm-1,0v0h0v0h0Zm2.55,0.77v0h0v0h0Zm-3,0v0h0v0h0Zm2.55-.27v0h0v0h0Z" transform="translate(-10.84 -10.87)"/><path class="cls-1" d="M37.11,20.9L37.2,21C37.09,21,37.09,21,37.11,20.9Z" transform="translate(-10.84 -10.87)"/><path class="cls-1" d="M37.37,20.36l0,0.11a0.38,0.38,0,0,1,0-.06Z" transform="translate(-10.84 -10.87)"/><path class="cls-1" d="M37.12,20.52v0.09h0V20.52h0Z" transform="translate(-10.84 -10.87)"/><path class="cls-1" d="M37.27,20.37h0v0h0v0Z" transform="translate(-10.84 -10.87)"/><path class="cls-1" d="M39.65,20.47H39.57l0.06-.09Z" transform="translate(-10.84 -10.87)"/><path class="cls-1" d="M38.9,20.84v0.09h0V20.84h0Z" transform="translate(-10.84 -10.87)"/><path class="cls-1" d="M38.59,22l0,0Z" transform="translate(-10.84 -10.87)"/><path class="cls-1" d="M38.63,21.93l0,0h0l0,0h0Z" transform="translate(-10.84 -10.87)"/><path class="cls-1" d="M38.82,19.88l0,0h0l0,0h0Z" transform="translate(-10.84 -10.87)"/><path class="cls-1" d="M38.82,19.89l0,0h0l0,0h0Z" transform="translate(-10.84 -10.87)"/><path class="cls-1" d="M19.71,37h0.08l0-.18h0.08L20,37A0.26,0.26,0,0,1,19.71,37Z" transform="translate(-10.84 -10.87)"/><path class="cls-1" d="M21.08,36.31l0,0h0l0,0h0Z" transform="translate(-10.84 -10.87)"/><path class="cls-1" d="M21.76,37.75l0,0h0l0,0h0Z" transform="translate(-10.84 -10.87)"/></svg>