<?xml version="1.0" encoding="utf-8"?>
<!-- Generator: Adobe Illustrator 19.2.1, SVG Export Plug-In . SVG Version: 6.00 Build 0)  -->
<svg version="1.1" id="Layer_1" xmlns="http://www.w3.org/2000/svg" xmlns:xlink="http://www.w3.org/1999/xlink" x="0px" y="0px"
	 viewBox="0 0 5.2 18.9" style="enable-background:new 0 0 5.2 18.9;" xml:space="preserve">
<style type="text/css">
	.st0{fill:#F4F2EC;}
</style>
<title>SK_Icons</title>
<path class="st0" d="M2.9,0L2.9,0C3,0,3.2,0.1,3.3,0.2c0.1,0,0.1,0,0.2,0c0.1,0,0.2,0.1,0.3,0.2c0,0,0.1,0,0.2,0.1v0.1
	c0.2,0.1,0.4,0.3,0.5,0.5c0,0.1,0.1,0.2,0.1,0.3s0.1,0.2,0.1,0.3C5,2,5.1,2.2,5.1,2.3v0.1c0,0.1,0.1,0.2,0.1,0.2c0,0.1,0,0.2,0,0.3
	s0,0.1,0,0.2v0.1v0.1c0,0.1,0,0.2,0,0.2s0,0,0,0.1C5.1,3.8,5.1,3.9,5.1,4.1c0,0-0.1,0.1-0.1,0.2c0,0.2-0.1,0.4-0.2,0.5
	c0,0.2-0.1,0.3-0.2,0.4c0,0.1-0.1,0.1-0.1,0.2c0,0.1-0.1,0.1-0.1,0.2c0,0,0,0-0.1,0.1C4.2,5.9,4.1,6,3.9,6c0,0,0,0,0,0.1
	S3.8,6.2,3.8,6.2C3.7,6.3,3.6,6.4,3.5,6.4H3.4c0,0.2-0.1,0.3-0.2,0.4L3.1,7.4c0,0.1,0,0.2,0,0.2c0,0.1,0,0.2,0,0.3
	c0,0.1,0,0.2,0,0.3v0.1c0,0.2,0,0.5,0,0.7c0,0.1,0,0.1,0,0.2c0,0.1,0,0.1,0,0.2c0,0.1,0,0.1,0,0.2v0.1c0.1,0.1,0,0.2,0,0.3
	s0,0.1,0,0.2c0.1,0.2,0.1,0.4,0,0.6v0.1c0,0.2,0,0.4,0,0.5s0,0.1,0,0.2c0.1,0.2,0.1,0.5,0,0.7l0,0c0,0.2,0,0.4,0,0.6v0.1
	c0,0.1,0,0.1,0,0.2c0,0.1,0,0.2,0,0.4c0,0.1,0,0.2,0,0.3s0,0.2,0,0.4l0,0c0,0.1,0,0.2,0,0.3c0.1,0,0.1,0.1,0.1,0.2v0.1v0.1
	c0,0.1,0,0.2,0.1,0.3c0,0.1,0,0.1,0,0.2c0,0.1,0.1,0.1,0.1,0.2s0,0.2,0,0.2c0.1,0.1,0.1,0.2,0.1,0.3c0,0.2,0,0.5,0,0.8h0.1
	c0,0.1,0,0.2,0,0.3c0,0.1,0,0.2,0,0.3v0.1v0.1v0.1l-0.2,0.3c0,0.1-0.1,0.1-0.1,0.1c-0.1,0-0.1,0.1-0.2,0.1l-0.2,0.1v-0.1H2.6v0.1
	H2.3c-0.1,0-0.1-0.1-0.2-0.1C2,18.7,2,18.6,1.9,18.5c0-0.1-0.1-0.2-0.1-0.3c0-0.1,0-0.2,0-0.3c0-0.1,0-0.1,0-0.2s0-0.2,0-0.2
	c0-0.1,0-0.2,0.1-0.2v-0.1V17v-0.1v-0.1v-0.1l0.1,0l0,0c0-0.2,0-0.4,0-0.6c0-0.1,0-0.3,0-0.4s0-0.2,0.1-0.4v-0.1
	c0.1-0.1,0.1-0.3,0.1-0.4v-0.1c0,0,0,0,0-0.1v-0.1c0-0.1,0-0.3,0-0.4c0-0.1,0-0.3,0-0.4v-0.1c0-0.1,0-0.2,0-0.3s0-0.1,0-0.2v-0.1
	c0-0.2,0-0.3,0-0.5v-0.1c0-0.1,0-0.1,0-0.2c0-0.2,0-0.3,0-0.5v-0.1l0,0c0-0.2,0-0.3,0-0.5c0,0,0,0,0-0.1c0-0.2,0-0.4,0-0.6
	c0-0.1,0-0.1,0-0.2c0-0.1,0-0.2,0-0.4c0-0.1,0-0.3,0-0.4c0-0.2,0-0.4,0-0.6c0-0.1,0-0.1,0-0.2c0-0.1,0-0.1,0-0.2c0-0.1,0-0.1,0-0.2
	c0-0.2,0-0.3,0-0.5c0-0.2,0-0.4-0.1-0.5C2.1,7.1,2,7,2,7c0-0.1,0-0.1-0.1-0.2C1.8,6.7,1.8,6.6,1.7,6.4L1.6,6.3
	C1.5,6.2,1.4,6.2,1.3,6.1c0,0,0-0.1-0.1-0.1L1,5.7V5.6C0.9,5.5,0.7,5.4,0.6,5.2C0.5,5.1,0.4,4.9,0.4,4.8C0.3,4.5,0.2,4.4,0.1,4.2
	c0-0.1,0-0.2-0.1-0.4c0-0.1,0-0.3,0-0.4C0,3.2,0,3,0,2.8s0-0.2,0-0.3c0.1-0.1,0.1-0.3,0.1-0.4C0.3,2,0.3,1.9,0.3,1.8l0.1-0.1V1.4
	C0.5,1.2,0.6,1,0.9,0.9C1,0.8,1,0.8,1.1,0.7c0.1,0,0.1-0.1,0.1-0.1c0.1-0.1,0.2-0.2,0.3-0.2c0.1-0.1,0.1-0.1,0.2-0.2
	c0,0,0.1,0,0.1-0.1c0.1,0.1,0.2,0,0.2,0C2.1,0.1,2.2,0,2.3,0l0,0h0.1l0,0h0.3l0,0L2.9,0L2.9,0z M3.1,4.5L3.1,4.5L3.1,4.5L3.1,4.5
	L3.1,4.5L3.1,4.5L3.1,4.5L3.1,4.5z M3.1,15.7L3.1,15.7L3.1,15.7L3.1,15.7L3.1,15.7L3.1,15.7L3.1,15.7L3.1,15.7z M2.2,3.7L2.2,3.7
	L2.2,3.7L2.2,3.7L2.2,3.7L2.2,3.7L2.2,3.7L2.2,3.7L2.2,3.7z M3,13.5L3,13.5L3,13.5L3,13.5L3,13.5L3,13.5L3,13.5L3,13.5L3,13.5z
	 M4.1,1.7L4.1,1.7v0.1l0.1-0.1v0.2l0.1-0.1l0,0l0,0l0,0l0,0l0,0l0,0L4.1,1.7L4.1,1.7L4.1,1.7L4.1,1.7L4.1,1.7L4.1,1.7z M3.2,17.4
	L3.2,17.4L3.2,17.4L3.2,17.4L3.2,17.4L3.2,17.4L3.2,17.4L3.2,17.4z M3.5,2L3.5,2c0,0,0,0.1,0,0.2l0,0C3.6,2.1,3.6,2.1,3.5,2L3.5,2
	L3.5,2L3.5,2L3.5,2L3.5,2z M4.7,2.6L4.7,2.6L4.7,2.6L4.7,2.6L4.7,2.6L4.7,2.6L4.7,2.6H4.5V2.5l0,0c0,0,0,0,0,0.1v0.2l0,0L4.7,2.6
	L4.7,2.6L4.7,2.6z M3.3,16.7L3.3,16.7L3.3,16.7L3.3,16.7L3.3,16.7L3.3,16.7L3.3,16.7L3.3,16.7z M2.6,0.6L2.6,0.6L2.6,0.6L2.6,0.6
	L2.6,0.6L2.6,0.6L2.6,0.6L2.6,0.6z M3.6,0.9L3.6,0.9L3.6,0.9L3.6,0.9L3.6,0.9L3.5,1H3.4l0,0v0.4L3.3,1.5V1.4L3.2,1.5h0.1L3.2,1.8
	c0.1,0,0.1,0,0.2-0.1c0,0.1-0.1,0.1,0,0.2l0.1-0.2l0,0l0,0c0.1,0,0-0.1,0-0.1V1.4c-0.1,0-0.2,0.1-0.3,0.1V1.4c0,0,0,0,0.1,0
	c0-0.1,0-0.2,0-0.3l0,0h0.1c0.1,0,0.1-0.1,0.1-0.2C3.5,1,3.6,0.9,3.6,0.9L3.6,0.9z M2.1,0.9L2.1,0.9L2.1,0.9L2.1,0.9
	C2,0.9,2,0.9,2.1,0.9L2.1,0.9L2.1,0.9L2.1,0.9C2,0.9,2,0.9,2.1,0.9L2.1,0.9z M4.3,4.8L4.3,4.8L4.3,4.8L4.3,4.8L4.3,4.8L4.3,4.8
	L4.3,4.8C4.3,4.6,4.3,4.8,4.3,4.8L4.3,4.8z M4.6,4.1L4.6,4.1L4.6,4.1L4.6,4.1C4.5,4.1,4.5,4.1,4.6,4.1C4.6,4.1,4.6,4.2,4.6,4.1
	L4.6,4.1L4.5,4.2v0.1c0.1,0,0.1,0,0.2-0.1C4.6,4.2,4.6,4.2,4.6,4.1L4.6,4.1C4.6,4.2,4.6,4.1,4.6,4.1L4.6,4.1z M3.7,2.9L3.7,2.9
	L3.7,2.9L3.7,2.9L3.7,2.9L3.7,2.9L3.7,2.9C3.7,2.8,3.7,2.8,3.7,2.9z M3.1,2.7L3.1,2.7L3.1,2.7L3.1,2.7L3.1,2.7L3.1,2.7L3.1,2.7
	L3.1,2.7L3.1,2.7z M2.9,18L2.9,18L2.9,18L2.9,18C3,18,3,18,2.9,18L2.9,18L2.9,18L2.9,18L2.9,18z M2.6,14.4L2.6,14.4L2.6,14.4
	L2.6,14.4L2.6,14.4L2.6,14.4L2.6,14.4C2.6,14.5,2.6,14.5,2.6,14.4z M2.8,4L2.8,4L2.8,4L2.8,4C2.8,4.1,2.8,4.1,2.8,4V3.9V4H3
	c0.1,0.1,0.1,0.1,0.2,0L3.1,3.9c0,0-0.1,0-0.2,0c0,0-0.1-0.1-0.1-0.2H2.7V3.6l0,0L2.6,3.4v0.2l0.1,0.1c0,0.1,0,0.1,0,0.2l0,0H2.6
	h0.1V3.8l0.1,0.1V4C2.7,4,2.8,4,2.8,4L2.8,4z M2.8,15.7L2.8,15.7L2.8,15.7L2.8,15.7L2.8,15.7l0.1,0.1L2.8,15.7L2.8,15.7L2.8,15.7z
	 M3,2.6L3,2.6L3,2.6L3,2.6V2.4L2.9,2.5C2.9,2.6,3,2.6,3,2.6z M3.7,5.5L3.7,5.5L3.7,5.5v0.1c0.1-0.1,0.1-0.1,0.1-0.2l0,0L3.7,5.5
	C3.7,5.5,3.6,5.4,3.7,5.5L3.7,5.5z M3.5,4.5c0.1,0,0.1,0,0.1-0.1C3.6,4.5,3.6,4.5,3.5,4.5L3.5,4.5L3.5,4.5L3.5,4.5L3.5,4.5z
	 M3.9,2.3L3.8,2.4l0,0L3.9,2.3L3.9,2.3V2.2V2.3h0.1H3.9L3.9,2.3H3.8V2.2l0,0H3.7V2v0.1H3.6v0.1h0.1v0.1l0,0v0l0.1-0.1v0.1
	C3.8,2.3,3.9,2.3,3.9,2.3L3.9,2.3z M2.1,1.8L2.1,1.8L2.1,1.8L2.1,1.8C2.1,1.9,2.1,1.8,2.1,1.8L2.1,1.8C2.1,1.7,2.1,1.8,2.1,1.8
	L2.1,1.8z M2.2,18.5L2.2,18.5L2.2,18.5L2.2,18.5L2.2,18.5L2.2,18.5h0.1v-0.1L2.2,18.5z M3.1,3.3H2.9v0.1C3,3.4,3,3.4,3.1,3.3
	C3,3.3,3,3.3,3.1,3.3C3.1,3.3,3,3.2,3.1,3.3c0-0.2,0.1-0.3,0.1-0.5H3.1l0.1,0.1C3.1,3,3.1,3.1,3.1,3.2C3,3.2,3.1,3.3,3.1,3.3z
	 M2.8,3.3L2.7,3.4v0.1C2.7,3.5,2.8,3.4,2.8,3.3L2.8,3.3v0.1l0,0C2.8,3.4,2.8,3.4,2.8,3.3C2.8,3.4,2.8,3.4,2.8,3.3
	c0.1,0,0.1,0,0.1-0.1l0,0L2.8,3.3L2.8,3.3z M3.5,2.7v0.1l0.1-0.1H3.5L3.5,2.7L3.5,2.7c0-0.1,0-0.2,0-0.2l0,0V2.7L3.5,2.7L3.5,2.7z
	 M2.6,2.1c0,0,0-0.1-0.1-0.1v0.2c0-0.1,0-0.1,0-0.2l0,0V1.9H2.4C2.5,1.9,2.6,2,2.6,2.1L2.6,2.1z M2.7,16.8L2.7,16.8L2.7,16.8
	L2.7,16.8L2.7,16.8c0-0.1-0.1-0.1-0.1-0.2C2.6,16.7,2.6,16.8,2.7,16.8L2.7,16.8z M3.8,5.2L3.8,5.2L3.8,5.2L3.8,5.2
	C3.8,5.1,3.8,5.2,3.8,5.2L3.8,5.2L3.7,5.3C3.9,5.3,3.9,5.2,3.8,5.2L3.8,5.2z M3.7,4.3L3.7,4.3V4.2l0,0C3.7,4.3,3.7,4.3,3.7,4.3
	L3.7,4.3L3.7,4.3l0.1,0.2l0,0L3.7,4.3L3.7,4.3z M2.9,17.4L2.9,17.4L2.9,17.4L2.9,17.4L2.9,17.4c0-0.1,0-0.1,0-0.2H2.8L2.9,17.4
	L2.9,17.4H2.6l0.1,0.1v-0.1C2.7,17.5,2.7,17.4,2.9,17.4L2.9,17.4z M2.7,2.2L2.7,2.2L2.7,2.2L2.7,2.2L2.7,2.2c0,0,0,0.1,0.1,0.1l0,0
	l0.1-0.1H3l0,0l0,0l0,0C3,2.1,3,2,2.9,1.9l0,0h0.2c0,0.1,0,0.1,0,0.2c0,0.1,0,0.1,0,0.1l0,0c0,0,0.1-0.1,0.1-0.2s0-0.1,0-0.2H3.1
	c0-0.1,0-0.2,0-0.2H3v0.1h0.1H3v0.2c-0.1,0-0.1-0.1-0.1-0.2H2.8V2c0,0,0,0,0,0.1l0,0H2.7l0,0c0,0,0,0,0.1,0h0.1V1.9H3V2v0.2
	C2.8,2.2,2.8,2.2,2.7,2.2z M2.4,16.5v-0.1H2.3C2.3,16.5,2.3,16.5,2.4,16.5L2.4,16.5v0.2h0.1L2.4,16.5L2.4,16.5z M3,17.2L3,17.2
	L3,17.2v-0.3H2.9C3,17,3,17.1,3,17.2C3,17.1,3,17.1,3,17.2L3,17.2L3,17.2z M1.9,1c0,0,0,0.1,0,0.2c0,0-0.1,0-0.1,0.1
	c0.1,0,0.1,0,0.2,0V1.1L1.9,1C2,1,2,1,1.9,1L1.9,1L1.9,1L1.9,1L1.9,1z M2.9,0.9L2.9,0.9L2.9,0.9L2.9,0.9C2.9,0.9,2.9,0.8,2.9,0.9
	C2.9,0.8,2.9,0.9,2.9,0.9V1L3,0.9V0.8C3,0.8,3,0.8,2.9,0.9L2.9,0.9z M3.4,2.6L3.4,2.6l0.1-0.1H3.4V2.4l0,0L3.3,2.5
	c0,0.1,0,0.2,0,0.3l0,0L3.4,2.6C3.3,2.7,3.3,2.7,3.4,2.6L3.4,2.6z M4.3,2L4.3,2L4.3,2C4.2,1.9,4.1,1.9,4.1,2l0.1-0.1H3.9
	c0,0,0,0,0.1,0V2l0,0l0.1-0.1C4.2,2,4.3,2,4.3,2L4.3,2l0.1-0.1l0,0L4.3,2L4.3,2L4.3,2z M2.8,1.4L2.8,1.4L2.8,1.4L2.8,1.4
	c0,0,0,0,0.1-0.1C2.8,1.3,2.9,1.4,2.8,1.4c0,0.1,0,0.1,0,0.1h0.1L2.8,1.4H3V1.3C3,1.3,2.9,1.3,2.8,1.4z M2.5,1.4L2.5,1.4V1.3l0,0
	V1.4L2.5,1.4H2.4l0,0c0.1,0.1,0.1,0.1,0.2,0.2l0.1-0.2l0,0V1.3l0,0V1.1H2.6V0.9L2.5,1v0.1l0,0l0,0h0.2v0.1h0.1v0.1H2.5V1.4L2.5,1.4z
	 M2.8,17.6l-0.1,0.1l-0.2-0.2v0.1c0.1,0.1,0.2,0.2,0.3,0.2l0.1-0.1C2.8,17.7,2.8,17.6,2.8,17.6L2.8,17.6L2.8,17.6
	C2.8,17.5,2.8,17.5,2.8,17.6L2.8,17.6z M3.8,2.6L3.8,2.6l0.1,0.2l0,0v0.1h0.1c0,0,0-0.1,0-0.2V2.6l0,0h0.1V2.5H4.1l0,0
	C4.1,2.6,3.9,2.6,3.8,2.6L3.8,2.6L3.8,2.6L3.8,2.6C3.9,2.6,3.9,2.6,3.8,2.6z M3.1,3L3.1,3L3.1,3L3.1,3L3.1,3V2.9L2.9,2.7l0,0H2.8
	v0.1H2.7l0.2,0.1L3.1,3L3.1,3z M2.1,2.2L2.1,2.2L2.1,2.2L2.1,2.2C2.1,2.3,2.1,2.3,2.1,2.2V2.1h0.1l0.1-0.2h0.1V2V1.9h0.1V1.8
	L2.3,1.9c-0.1,0,0-0.1-0.1-0.1v0.1C2.1,2,2.1,2,2.1,2V1.9L2,2L1.9,2.1L2.1,2.2C2,2.2,2.1,2.2,2.1,2.2L2.1,2.2z M3.8,4.8L3.8,4.8
	L3.6,4.6C3.5,4.8,3.5,4.9,3.5,4.9C3.4,5,3.4,5,3.3,5.1l0.1,0.1c0-0.1,0.1-0.2,0.2-0.3L3.8,4.8C3.8,4.9,3.9,4.9,3.8,4.8V5h0.2l0,0
	l0,0H3.9C3.9,4.9,3.9,4.8,3.8,4.8L3.8,4.8L3.8,4.8C3.9,4.8,3.9,4.6,3.8,4.8L3.8,4.8z M1.7,2.3l0.1-0.1V2.1l0.1,0.1V2.1H1.8V1.9
	c0.1,0,0.1,0,0.1,0.1l0,0V1.9L1.8,1.8V1.7h0.1v0.1L2,1.7V1.5l0.2,0.1V1.4H2.1l0,0c-0.1,0,0,0.1-0.2,0.1L2,1.4V1.3l0,0V1.2l0,0v0.1
	H1.8L1.7,1.5h0.1l0,0c-0.1,0-0.2-0.1-0.2-0.1v0.1l0.1,0.2v0.1c-0.1,0,0,0.1,0,0.1H1.6C1.7,2.1,1.7,2.2,1.7,2.3L1.7,2.3L1.7,2.3
	C1.6,2.3,1.7,2.3,1.7,2.3z M1,3.1c0,0.1,0,0.2,0,0.3c0,0,0,0,0,0.1c0,0.1,0,0.2,0,0.3h0.1c0,0.3,0.1,0.6,0.3,0.8v0.1
	C1.5,4.9,1.6,5,1.7,5.2c0,0,0,0,0.1,0.1C1.9,5.3,2,5.4,2,5.5l0.1,0.1c0.1,0,0.2,0.1,0.2,0.1h0.3l0.1-0.1V5.3c0-0.1-0.1-0.1-0.2-0.2
	c0.1-0.1,0-0.2-0.1-0.3C2.2,4.6,2.1,4.5,2,4.3C1.8,4.1,1.7,3.8,1.7,3.5c0-0.1,0-0.2,0-0.2c0-0.1,0-0.2,0-0.3L1.4,2.8L1.2,2.9
	C1.1,3,1.1,3,1,3.1L1,3.1z M3.7,1.8l0.1-0.1V1.5H3.7L3.6,1.7l0,0l0,0L3.7,1.8L3.7,1.8L3.6,2h0.1v0.1l0.1-0.2l0,0l0,0L3.7,1.8z
	 M4.1,3L4.1,3C3.9,3.1,3.9,3.2,3.8,3.3l0.1,0.1l0.1-0.1h0h0.1v0.1h0.1L4.2,3.2l0,0V3.1H4.1V3z M3.2,1.3l0.1-0.2H3.2
	C3.1,1.2,3,1.1,3,1.1v0.2H3.2z M3,17.7l-0.1-0.1l-0.1,0.2H2.7V18h0.1c0,0-0.1-0.1,0-0.1L3,18l-0.1-0.1L3,17.7z M4.5,2.9L4.5,2.9V3
	H4.4v0.1L4.3,3.2l0,0c0.1,0.1,0.1,0.1,0.1,0V3h0.2L4.5,2.9z M2.4,17.9L2.4,17.9c0.1,0.1,0.1,0.2,0,0.3l0.1,0.1v0.1l0,0v-0.2H2.4
	v-0.1V17.9z M3.2,3.4L3.2,3.4l0.1-0.1l0.1,0.1c0.1-0.1,0-0.1,0-0.2l0.1-0.1l0,0L3.3,3.3H3.2V3.4L3.2,3.4z M4.4,2.4v0.1H4.3V2.4v0.1
	l0.2,0.1l0.1-0.1V2.4H4.4z M4.1,4v0.1L4.2,4v0.1l0,0L4.3,4h0.2l0,0H4.1z M4.1,4.5L4.1,4.5l0.1-0.3c0,0.1-0.1,0.2-0.2,0.3l0,0H4.1z
	 M2.2,0.9L2.2,0.9L2.1,1.2l0.1-0.1C2.2,1.1,2.2,1,2.2,0.9C2.4,1,2.4,1,2.4,0.9H2.2L2.2,0.9z M3.7,3.2c0,0.1-0.1,0.2-0.1,0.2L3.7,3.2
	L3.7,3.2L3.6,3.1L3.7,3.2z M3.1,2.4h0.2L3.1,2.3V2.2L3,2.3h0.1V2.4z M2.4,2.4l0.1-0.1L2.4,2.2V2.4v0.1l0,0V2.4z M4.3,4.5
	c0,0.1,0.1-0.1,0.2,0l0.1-0.2C4.4,4.4,4.3,4.4,4.3,4.5z M2.6,17.2l-0.2-0.1C2.3,17.2,2.4,17.2,2.6,17.2l-0.1,0.1L2.6,17.2z M2.6,3.3
	L2.6,3.3L2.5,3.4h0.1V3.3L2.6,3.3L2.6,3.3z M2.7,16.3l0.1-0.2H2.7l0,0V16.3z M2.6,3.6c-0.1,0-0.1,0.1-0.1,0.1h0.1V3.6L2.6,3.6z
	 M2.8,2.4H2.7v0.1H2.6l0.1,0.1L2.8,2.4z M3.4,1.9C3.3,1.9,3.3,2,3.3,2.1l0.1,0.1C3.4,2.1,3.4,2,3.4,1.9L3.4,1.9z M4.4,5.1L4.3,4.9
	l0,0V5L4.4,5.1C4.3,5.1,4.3,5.1,4.4,5.1L4.4,5.1z M3.1,17.5c0,0.1-0.1,0.1-0.1,0.2l0,0h0.1V17.5z M3,17.9v0.3
	C3.1,18.1,3.1,18,3,17.9C3.1,17.9,3.1,17.9,3,17.9L3,17.9z M4.3,2.9c0.1,0,0.1-0.1,0.1-0.2L4.3,2.9L4.3,2.9z M4.6,2.8L4.6,2.8
	C4.7,2.9,4.7,2.9,4.6,2.8h0.1H4.6L4.6,2.8z M3.6,2.8L3.5,2.9V3l0,0l0,0L3.6,2.8z M2.1,2.2h0.1v0.1c0-0.1,0-0.1,0-0.2L2.1,2.2z
	 M4.4,2.3L4.3,2.1l0,0L4.4,2.3L4.4,2.3z M3.3,5.1L3.2,4.9v0.2H3.3z M1.5,2v0.1h0.1l0.1-0.2L1.5,2z M2.7,2.3c-0.1,0-0.1,0.1-0.1,0.2
	L2.7,2.3L2.7,2.3z M2.4,18.5C2.4,18.5,2.5,18.5,2.4,18.5L2.4,18.5L2.4,18.5z M2.8,18.1c-0.1,0-0.1,0-0.2,0l0,0l0,0v0.1v-0.1h0.1H2.8
	L2.8,18.1L2.8,18.1z M2.3,3.3C2.2,3.1,2.2,3.1,2.1,3.2L2.3,3.3z M3.1,16.3l0.1-0.2l0,0L3.1,16.3z M2.8,0.8c0-0.1,0.1-0.1,0.1-0.2
	l0,0L2.8,0.7V0.8z M3.4,4.6L3.4,4.6c0-0.1-0.1-0.1-0.1-0.1l0,0v0.1H3.4L3.4,4.6z M3.7,3.3L3.7,3.3l0.1,0.1l0,0l0,0l0,0L3.7,3.3z
	 M3.1,4.2v0.1h0.1L3.1,4.2L3.1,4.2L3.1,4.2z M2.8,1.1c0-0.1,0-0.1,0-0.2V1.1L2.8,1.1z M1.7,1.1L1.7,1.1L1.7,1.1L1.6,1L1.7,1.1z
	 M2.7,15.6l-0.1,0.1C2.7,15.7,2.7,15.7,2.7,15.6L2.7,15.6z M4.6,3.3c0-0.1,0-0.1,0-0.2V3.3L4.6,3.3z M4.5,3.8l0.1-0.1l0,0L4.5,3.8
	L4.5,3.8L4.5,3.8z M3.2,3.9L3.3,4l0,0L3.2,3.9L3.2,3.9z M3.5,4L3.4,3.9V4H3.5z M2.9,4.2L2.9,4.2L2.9,4.2L2.9,4.2L2.9,4.2L2.9,4.2
	L2.9,4.2z M3.7,5.1c-0.1,0-0.1,0-0.1,0.1L3.7,5.1z M2.1,3.3l0.1,0.1l0.1-0.1H2.1z M3.1,3.6L3.1,3.6v0.1l0.1-0.1H3.1z M3,1.1
	C3.1,1.1,3.1,1,3.1,1l0,0l0,0L3,1.1L3,1.1z M3.3,3V2.9l0,0H3.2L3.3,3z M1.2,2L1.2,2L1,2.1L1.2,2z M3.7,4.1v0.1h0.1V4.1H3.7z
	 M2.7,18.2v0.2V18.2L2.7,18.2z M2.6,2.6H2.5l0.2,0.1L2.6,2.6z M4.1,5.3L4.1,5.3l0.1,0.1C4.1,5.3,4.1,5.3,4.1,5.3L4.1,5.3z M3.2,5.9
	c0.1,0,0.1,0,0.1-0.1l0,0L3.2,5.9z M4.3,3.9c0,0,0.1,0,0.1-0.1l0,0l0,0L4.3,3.9z M3,15.2L3,15.2v0.2V15.2z M3.3,2.3L3.3,2.3H3.2H3.3
	L3.3,2.3z M2.3,3.7L2.3,3.7l0.1-0.1H2.3V3.7L2.3,3.7z M4.7,4.3H4.6l0,0l0,0C4.6,4.4,4.7,4.4,4.7,4.3L4.7,4.3z M3.4,3.8L3.4,3.8
	c0-0.2,0-0.2,0-0.1V3.8z M3.4,2.3L3.4,2.3l0.1,0.1V2.3H3.4L3.4,2.3z M4.3,4.8H4.2v0.1L4.3,4.8L4.3,4.8L4.3,4.8z M4.5,2.2
	c0.1-0.1,0-0.1,0-0.1H4.4L4.5,2.2z M2.8,3L2.8,3L2.8,3L2.8,3z M3.2,4.8L3.2,4.8L3.2,4.8L3.2,4.8L3.2,4.8z M1.5,1.7v0.2h0.1L1.5,1.7z
	 M3.9,4.4l0.1-0.1H3.9V4.4L3.9,4.4z M2.7,18.4h0.1H2.7L2.7,18.4z M2.6,18.1V18V18.1L2.6,18.1z M4.3,3.8L4.3,3.8L4.2,4L4.3,3.8z
	 M2.6,15.2l0.1,0.1L2.6,15.2L2.6,15.2z M1.4,2.3L1.3,2.2L1.4,2.3L1.4,2.3z M3.3,4.6c-0.1,0.1,0,0.1,0,0.1S3.4,4.8,3.3,4.6L3.3,4.6z
	 M3.6,0.7L3.5,0.8h0.1V0.7L3.6,0.7z M2.2,1.4c0-0.1,0-0.1-0.1-0.1l0,0L2.2,1.4z M4.1,1L4.1,1l0.1,0.1C4.2,1.1,4.1,1.1,4.1,1L4.1,1z
	 M2.6,0.8L2.7,1V0.8H2.6L2.6,0.8z M4.7,3.5c0.1,0,0.1,0.1,0.1,0C4.8,3.4,4.8,3.4,4.7,3.5z M2.6,16.3v0.1V16.3L2.6,16.3L2.6,16.3z
	 M2.7,16h0.1v-0.1L2.7,16z M4.4,5V4.8H4.3L4.4,5z M3.5,3.1v0.1h0.1L3.5,3.1z M3.3,17.8c0,0-0.1,0-0.1,0.1h0.1V17.8z M3.8,1.2H3.7
	H3.8L3.8,1.2z M3.9,4.1L3.9,4.1v0.1l0,0C3.9,4.3,3.9,4.1,3.9,4.1z M2.7,17.2v-0.1V17.2L2.7,17.2z M1.4,2L1.4,2L1.4,2L1.4,2L1.4,2
	L1.4,2z M2.8,4.5V4.4H2.7L2.8,4.5z M3.2,17.8L3.2,17.8v-0.1V17.8L3.2,17.8z M2.8,16.7v-0.1V16.7L2.8,16.7z M4.4,3.4
	C4.3,3.4,4.3,3.4,4.4,3.4L4.4,3.4L4.4,3.4z M2.7,18H2.6l0,0H2.7L2.7,18z M3.7,3.6C3.6,3.6,3.6,3.6,3.7,3.6L3.7,3.6L3.7,3.6z
	 M2.5,15.6L2.5,15.6L2.5,15.6L2.5,15.6L2.5,15.6L2.5,15.6z M2.5,3L2.5,3v0.1l0,0V3z M3.7,2.9c0,0-0.1,0,0,0.1C3.8,3.1,3.8,3,3.7,2.9
	z M3.8,2.9C3.8,3,3.8,3,3.8,2.9L3.8,2.9L3.8,2.9L3.8,2.9z M2.6,18.6c0,0.1,0,0.1,0,0.1S2.7,18.6,2.6,18.6z M3.5,3.4
	c0,0,0-0.1-0.1-0.1C3.5,3.4,3.5,3.4,3.5,3.4z M3.2,2.6L3.2,2.6L3.2,2.6L3.2,2.6L3.2,2.6z M3.1,18.2L3.1,18.2L3.1,18.2L3.1,18.2
	L3.1,18.2z M4.3,2.6L4.3,2.6L4.3,2.6L4.3,2.6L4.3,2.6L4.3,2.6z M3.3,0.8h0.1V0.7L3.3,0.8z M2.2,15.9h0.1v-0.1L2.2,15.9z M2.8,6.1
	L2.8,6.1L2.8,6.1L2.8,6.1L2.8,6.1L2.8,6.1z M3,3.8L3,3.8L3,3.8L3,3.8L3,3.8z M2.7,0.8C2.7,0.7,2.7,0.7,2.7,0.8L2.7,0.8z M2.5,18.4
	C2.6,18.4,2.6,18.4,2.5,18.4L2.5,18.4z M2.8,12.6L2.8,12.6L2.8,12.6L2.8,12.6z M2.5,0.6L2.5,0.6L2.5,0.6L2.5,0.6z M2.7,0.6l0.1-0.1
	L2.7,0.6L2.7,0.6L2.7,0.6z M3.7,5.5C3.7,5.4,3.7,5.4,3.7,5.5L3.7,5.5z M2.5,6.2L2.4,6.1L2.5,6.2L2.5,6.2z M1.9,18.1L2,18L1.9,18.1
	L1.9,18.1L1.9,18.1z M2.9,6.2L2.9,6.2v0.1l0,0V6.2z M1.5,1.3l0.1-0.1L1.5,1.3L1.5,1.3z M2.5,0.8L2.5,0.8L2.5,0.8L2.5,0.8L2.5,0.8z
	 M3.5,6.1C3.5,6,3.5,6,3.5,6.1L3.5,6.1z M3.5,18L3.5,18L3.5,18L3.5,18L3.5,18z M2.7,16.9L2.7,16.9L2.7,16.9L2.7,16.9L2.7,16.9
	L2.7,16.9z M2.5,16.9L2.5,16.9V17l0,0V16.9L2.5,16.9z M3.6,2.5L3.6,2.5L3.6,2.5L3.6,2.5z M2.4,3.9C2.4,4,2.4,4,2.4,3.9L2.4,3.9z
	 M3.8,3.9L3.8,3.9L3.8,3.9L3.8,3.9L3.8,3.9z M4.5,2.1C4.5,2.2,4.5,2.2,4.5,2.1L4.5,2.1z M4.3,3.7L4.3,3.7L4.3,3.7L4.3,3.7L4.3,3.7z
	 M1.7,2.5V2.4V2.5L1.7,2.5z M2.8,3.8L2.8,3.8V3.7l0,0V3.8L2.8,3.8z M4.8,2.4L4.8,2.4v0.1l0,0V2.4z M2.3,16.7
	C2.3,16.6,2.3,16.6,2.3,16.7L2.3,16.7z M2.3,15.2l0.1,0.1L2.3,15.2L2.3,15.2L2.3,15.2z M4.7,3.8L4.7,3.8v0.1l0,0V3.8z M1.6,2.2
	L1.6,2.2L1.6,2.2L1.6,2.2L1.6,2.2z M3.2,3.9L3.2,3.9V3.8l0,0V3.9z M4.6,3.5L4.6,3.5L4.6,3.5L4.6,3.5L4.6,3.5z M4.4,3
	C4.3,3,4.3,3,4.4,3z M4.7,3.1L4.7,3.1L4.7,3.1L4.7,3.1L4.7,3.1L4.7,3.1z M2.9,17.2C3,17.2,3,17.2,2.9,17.2L2.9,17.2z M4.5,1.8
	C4.5,1.7,4.5,1.7,4.5,1.8L4.5,1.8z M2.6,16.2L2.6,16.2L2.6,16.2L2.6,16.2z M2.3,16.2l-0.1,0.1L2.3,16.2L2.3,16.2L2.3,16.2z M2.3,3
	L2.3,3L2.3,3L2.3,3z M3.9,1.9L3.9,1.9L3.9,1.9L3.9,1.9z M3.4,4.3C3.3,4.3,3.3,4.3,3.4,4.3L3.4,4.3z M2.8,18.5L2.8,18.5L2.8,18.5
	L2.8,18.5L2.8,18.5z M2.9,15.6L2.9,15.6L2.9,15.6L2.9,15.6L2.9,15.6z M2.9,18.8L2.9,18.8L2.9,18.8L2.9,18.8
	C2.9,18.7,2.9,18.8,2.9,18.8z M3.2,16.5L3.2,16.5L3.2,16.5L3.2,16.5L3.2,16.5L3.2,16.5z M3.1,18.5L3.1,18.5L3.1,18.5L3.1,18.5
	C3.1,18.4,3.1,18.5,3.1,18.5z M2.8,16.4L2.8,16.4L2.8,16.4L2.8,16.4L2.8,16.4L2.8,16.4z M2.7,14.7L2.7,14.7L2.7,14.7L2.7,14.7
	L2.7,14.7z M2.3,17.6L2.3,17.6L2.3,17.6L2.3,17.6C2.3,17.7,2.3,17.6,2.3,17.6z M2.1,17.4L2.1,17.4L2.1,17.4L2.1,17.4L2.1,17.4z
	 M3,17.5L3,17.5L3,17.5L3,17.5L3,17.5z M2.8,15L2.8,15L2.8,15L2.8,15L2.8,15L2.8,15z M2.2,17.8L2.2,17.8L2.2,17.8L2.2,17.8L2.2,17.8
	L2.2,17.8z M3.5,3.9L3.5,3.9L3.5,3.9L3.5,3.9L3.5,3.9L3.5,3.9z M3.4,5.4L3.4,5.4L3.4,5.4L3.4,5.4C3.4,5.5,3.4,5.4,3.4,5.4z M1.4,1.4
	L1.4,1.4L1.4,1.4L1.4,1.4C1.3,1.4,1.4,1.4,1.4,1.4z M4.1,5.5L4.1,5.5L4.1,5.5L4.1,5.5L4.1,5.5L4.1,5.5z M3.7,2.7L3.7,2.7L3.7,2.7
	L3.7,2.7L3.7,2.7z M1.3,1.2L1.3,1.2L1.3,1.2L1.3,1.2L1.3,1.2z M2.6,2.8L2.6,2.8L2.6,2.8L2.6,2.8L2.6,2.8z M2.7,6L2.7,6L2.7,6L2.7,6
	C2.7,5.9,2.7,6,2.7,6z M3.5,1.3L3.5,1.3L3.5,1.3L3.5,1.3L3.5,1.3z M3.2,1.3L3.2,1.3L3.2,1.3L3.2,1.3L3.2,1.3z M3.7,3.8L3.7,3.8
	L3.7,3.8L3.7,3.8L3.7,3.8z M2.3,1.4L2.3,1.4V1.3l0,0V1.4z M3.1,5.8L3.1,5.8L3.1,5.8L3.1,5.8L3.1,5.8L3.1,5.8z M3.5,4.4L3.5,4.4
	L3.5,4.4L3.5,4.4L3.5,4.4L3.5,4.4z M3.2,4.1L3.2,4.1L3.2,4.1L3.2,4.1L3.2,4.1z M1.1,2.5L1.1,2.5V2.4l0,0V2.5L1.1,2.5z M2.9,2.3
	L2.9,2.3L2.9,2.3L2.9,2.3L2.9,2.3L2.9,2.3z M2.6,4.3L2.6,4.3L2.6,4.3L2.6,4.3C2.5,4.3,2.6,4.3,2.6,4.3z M4.7,2.3L4.7,2.3L4.7,2.3
	L4.7,2.3L4.7,2.3L4.7,2.3z M2.8,4.3L2.8,4.3L2.8,4.3L2.8,4.3L2.8,4.3L2.8,4.3z M3.3,2.6L3.3,2.6L3.3,2.6L3.3,2.6L3.3,2.6L3.3,2.6z
	 M3.3,4.6L3.3,4.6L3.3,4.6L3.3,4.6L3.3,4.6L3.3,4.6z M2.4,4.2L2.4,4.2V4.1l0,0V4.2L2.4,4.2z M2.4,2L2.4,2L2.4,2L2.4,2L2.4,2L2.4,2z
	 M4.6,2.4L4.6,2.4v0.1l0,0V2.4z M4.5,2L4.5,2L4.5,2L4.5,2L4.5,2z M3.4,4.6L3.4,4.6L3.4,4.6L3.4,4.6L3.4,4.6z M3,3.5L3,3.5L3,3.5
	L3,3.5L3,3.5z M2.9,3.5L2.9,3.5L2.9,3.5L2.9,3.5L2.9,3.5z M3.7,0.9L3.7,0.9L3.7,0.9L3.7,0.9L3.7,0.9z M3.2,0.9L3.2,0.9L3.2,0.9
	L3.2,0.9L3.2,0.9L3.2,0.9z M3.2,1L3.2,1L3.2,1L3.2,1L3.2,1L3.2,1z M2.6,3.1L2.6,3.1L2.6,3.1L2.6,3.1L2.6,3.1L2.6,3.1z M3,3L3,3v0.1
	l0,0V3L3,3z M2.3,0.7L2.3,0.7L2.3,0.7L2.3,0.7L2.3,0.7z M2.3,3.3L2.3,3.3L2.3,3.3L2.3,3.3L2.3,3.3z M3.1,0.6L3.1,0.6L3.1,0.6
	L3.1,0.6C3.1,0.7,3.1,0.6,3.1,0.6z M2.2,3.5L2.2,3.5L2.2,3.5L2.2,3.5L2.2,3.5z M3.1,0.8L3.1,0.8L3.1,0.8L3.1,0.8L3.1,0.8z M1.9,0.8
	L1.9,0.8L1.9,0.8L1.9,0.8L1.9,0.8z M3,0.8L3,0.8L3,0.8L3,0.8L3,0.8z M2,1.2L2,1.2L2,1.2L2,1.2L2,1.2L2,1.2z M1.6,1.2L1.6,1.2
	L1.6,1.2L1.6,1.2L1.6,1.2L1.6,1.2z M3.1,6.4L3.1,6.4L3.1,6.4L3.1,6.4L3.1,6.4L3.1,6.4z M4.4,3.3L4.4,3.3L4.4,3.3L4.4,3.3L4.4,3.3z
	 M2.2,16.7L2.2,16.7z M1.9,2.5L1.9,2.5L1.9,2.5L1.9,2.5L1.9,2.5z M2.7,3.2L2.7,3.2z M2.1,2.4L2.1,2.4z M2.7,2.6L2.7,2.6z M1,2.6
	L1,2.6z M2.4,16L2.4,16L2.4,16L2.4,16L2.4,16z M2.5,2.7L2.5,2.7L2.5,2.7L2.5,2.7L2.5,2.7z M2.6,15.9L2.6,15.9z M2.2,2.7L2.2,2.7
	L2.2,2.7L2.2,2.7L2.2,2.7z M3.2,2.7L3.2,2.7L3.2,2.7L3.2,2.7L3.2,2.7z M3,16.6L3,16.6z M2.7,2.7L2.7,2.7z M2.9,3L2.9,3L2.9,3L2.9,3
	L2.9,3z M2.5,2.5L2.5,2.5L2.5,2.5L2.5,2.5L2.5,2.5z M2.5,17.7L2.5,17.7z M4.1,1L4.1,1z M3.6,1.2L3.6,1.2z M2.2,18.3L2.2,18.3
	L2.2,18.3L2.2,18.3L2.2,18.3z M2.1,0.7L2.1,0.7L2.1,0.7L2.1,0.7L2.1,0.7z M3,18.2L3,18.2z M2.9,0.3L2.9,0.3z M3.1,18.7L3.1,18.7z
	 M2.4,18.6L2.4,18.6L2.4,18.6L2.4,18.6L2.4,18.6z M2.8,0.5L2.8,0.5z M2.7,18.5L2.7,18.5L2.7,18.5L2.7,18.5L2.7,18.5z M2.3,0.5
	L2.3,0.5z M2,0.6L2,0.6L2,0.6L2,0.6L2,0.6z M1.4,0.9L1.4,0.9z M2.3,18.1L2.3,18.1L2.3,18.1L2.3,18.1L2.3,18.1z M2.2,18.1L2.2,18.1
	L2.2,18.1L2.2,18.1L2.2,18.1z M1.8,0.9L1.8,0.9L1.8,0.9L1.8,0.9L1.8,0.9z M1.3,1.8L1.3,1.8z M2.7,1.8L2.7,1.8z M3.6,1.8L3.6,1.8
	L3.6,1.8L3.6,1.8L3.6,1.8z M3.8,1.8L3.8,1.8z M2.8,16.8L2.8,16.8L2.8,16.8L2.8,16.8L2.8,16.8z M1.4,2.2L1.4,2.2L1.4,2.2L1.4,2.2
	L1.4,2.2z M2.6,2.3L2.6,2.3L2.6,2.3L2.6,2.3L2.6,2.3z M3.5,2.3L3.5,2.3L3.5,2.3L3.5,2.3L3.5,2.3z M2.5,2.1L2.5,2.1L2.5,2.1L2.5,2.1
	L2.5,2.1z M4.2,2.1L4.2,2.1L4.2,2.1L4.2,2.1L4.2,2.1z M3,16.8L3,16.8z M1.8,1.3L1.8,1.3L1.8,1.3L1.8,1.3L1.8,1.3z M2.4,1.3L2.4,1.3
	L2.4,1.3L2.4,1.3L2.4,1.3z M4.1,1.4L4.1,1.4L4.1,1.4L4.1,1.4L4.1,1.4z M3.2,17.2L3.2,17.2L3.2,17.2L3.2,17.2L3.2,17.2z M2.4,17.4
	L2.4,17.4L2.4,17.4L2.4,17.4L2.4,17.4z M3.2,5.7L3.2,5.7L3.2,5.7L3.2,5.7L3.2,5.7z M3.7,5.7L3.7,5.7L3.7,5.7L3.7,5.7L3.7,5.7z
	 M3.7,5.8L3.7,5.8L3.7,5.8L3.7,5.8L3.7,5.8z M3.5,5.5L3.5,5.5L3.5,5.5L3.5,5.5L3.5,5.5z M3.9,5.6L3.9,5.6L3.9,5.6L3.9,5.6L3.9,5.6z
	 M3.3,5.6L3.3,5.6L3.3,5.6L3.3,5.6L3.3,5.6z M2.4,5.9L2.4,5.9L2.4,5.9L2.4,5.9L2.4,5.9z M2.8,14.1L2.8,14.1L2.8,14.1L2.8,14.1
	L2.8,14.1z M4.5,5L4.5,5L4.5,5L4.5,5L4.5,5z M3.6,5.2L3.6,5.2z M4.3,5.2L4.3,5.2z M3.5,5.3L3.5,5.3L3.5,5.3L3.5,5.3L3.5,5.3z
	 M3.9,5.3L3.9,5.3L3.9,5.3L3.9,5.3L3.9,5.3z M3.1,7.1L3.1,7.1L3.1,7.1L3.1,7.1L3.1,7.1z M2.8,6.8L2.8,6.8L2.8,6.8L2.8,6.8L2.8,6.8z
	 M3,6.8L3,6.8L3,6.8L3,6.8L3,6.8z M2.8,12.4L2.8,12.4L2.8,12.4L2.8,12.4L2.8,12.4z M3.1,6.1L3.1,6.1L3.1,6.1L3.1,6.1L3.1,6.1z
	 M2.6,12.8L2.6,12.8z M4.1,3.7L4.1,3.7L4.1,3.7L4.1,3.7L4.1,3.7z M5.1,3.7L5.1,3.7L5.1,3.7L5.1,3.7L5.1,3.7z M4.1,3.6L4.1,3.6
	L4.1,3.6L4.1,3.6L4.1,3.6z M2.5,15.1L2.5,15.1L2.5,15.1L2.5,15.1L2.5,15.1z M2.6,3.9L2.6,3.9L2.6,3.9L2.6,3.9L2.6,3.9z M3.2,15.3
	L3.2,15.3L3.2,15.3L3.2,15.3L3.2,15.3z M2.2,3.8L2.2,3.8z M4.7,3.8L4.7,3.8z M3.6,3.6L3.6,3.6L3.6,3.6L3.6,3.6L3.6,3.6z M2.6,15.5
	L2.6,15.5z M2.3,15.7L2.3,15.7L2.3,15.7L2.3,15.7L2.3,15.7z M4.7,3.5L4.7,3.5L4.7,3.5L4.7,3.5L4.7,3.5z M2.6,3.5L2.6,3.5L2.6,3.5
	L2.6,3.5L2.6,3.5z M3.4,3.5L3.4,3.5L3.4,3.5L3.4,3.5L3.4,3.5z M4.8,4.4L4.8,4.4z M3.4,4.4L3.4,4.4L3.4,4.4L3.4,4.4L3.4,4.4z
	 M3.2,4.4L3.2,4.4L3.2,4.4L3.2,4.4L3.2,4.4z M4.9,4.2L4.9,4.2L4.9,4.2L4.9,4.2L4.9,4.2z M2.4,14.7L2.4,14.7L2.4,14.7L2.4,14.7
	L2.4,14.7z M2.6,14.4L2.6,14.4z M2.7,4.8L2.7,4.8L2.7,4.8L2.7,4.8L2.7,4.8z M2.2,4L2.2,4z M2.9,15.1L2.9,15.1L2.9,15.1L2.9,15.1
	L2.9,15.1z M2.7,15.1L2.7,15.1z M4.5,4L4.5,4L4.5,4L4.5,4L4.5,4z M3,14.8L3,14.8L3,14.8L3,14.8L3,14.8z M3.3,4.2L3.3,4.2L3.3,4.2
	L3.3,4.2L3.3,4.2z M2.7,14.8L2.7,14.8z"/>
<path class="st0" d="M1.7,2.2L1.7,2.2L1.7,2.2z"/>
<path class="st0" d="M1.9,1.7L1.9,1.7L1.9,1.7L1.9,1.7z"/>
<path class="st0" d="M1.7,1.9L1.7,1.9L1.7,1.9L1.7,1.9L1.7,1.9z"/>
<path class="st0" d="M1.9,1.7L1.9,1.7z"/>
<path class="st0" d="M3.8,1.8L3.8,1.8L3.8,1.8L3.8,1.8L3.8,1.8z"/>
<path class="st0" d="M3.2,2.1L3.2,2.1L3.2,2.1L3.2,2.1L3.2,2.1z"/>
<path class="st0" d="M2.9,3L2.9,3z"/>
<path class="st0" d="M3,3L3,3L3,3L3,3L3,3z"/>
<path class="st0" d="M3.1,1.4L3.1,1.4L3.1,1.4L3.1,1.4L3.1,1.4z"/>
<path class="st0" d="M3.1,1.4L3.1,1.4L3.1,1.4L3.1,1.4L3.1,1.4z"/>
</svg>
