<?xml version="1.0" encoding="utf-8"?>
<!-- Generator: Adobe Illustrator 19.2.1, SVG Export Plug-In . SVG Version: 6.00 Build 0)  -->
<svg version="1.1" id="Layer_1" xmlns="http://www.w3.org/2000/svg" xmlns:xlink="http://www.w3.org/1999/xlink" x="0px" y="0px"
	 viewBox="0 0 13.3 13.3" style="enable-background:new 0 0 13.3 13.3;" xml:space="preserve">
<style type="text/css">
	.st0{fill:#E4D9B8;}
	.st1{fill:#FFFFFF;}
</style>
<title>SK_Icons</title>
<circle class="st0" cx="6.7" cy="6.7" r="6.6"/>
<path class="st1" d="M9.5,6.6c0-0.1-0.1-0.1-0.1-0.2l0,0L7.8,4.8C7.6,4.7,7.2,4.7,7,4.9C6.9,5.1,6.9,5.4,7,5.6l0.7,0.7H3.2
	C3,6.2,2.7,6.4,2.6,6.7C2.5,6.9,2.7,7.2,3,7.3c0.1,0,0.2,0,0.3,0h4.6L7.1,8.1c-0.2,0.2-0.2,0.5,0,0.7c0.2,0.1,0.5,0.1,0.6,0l1.6-1.6
	l0,0C9.5,7,9.6,6.8,9.5,6.6z"/>
</svg>
