<?xml version="1.0" encoding="utf-8"?>
<!-- Generator: Adobe Illustrator 21.0.0, SVG Export Plug-In . SVG Version: 6.00 Build 0)  -->
<svg version="1.1" id="Layer_1" xmlns="http://www.w3.org/2000/svg" xmlns:xlink="http://www.w3.org/1999/xlink" x="0px" y="0px"
	 viewBox="0 0 10.5 8.7" style="enable-background:new 0 0 10.5 8.7;" xml:space="preserve">
<style type="text/css">
	.st0{fill:#E4D9B8;}
</style>
<title>SK_Icons</title>
<path class="st0" d="M9.4,2.3v0.3c0,3.3-2.7,6.1-6,6.1c0,0-0.1,0-0.1,0c-1.2,0-2.3-0.3-3.3-0.9h0.5c1,0,1.9-0.4,2.7-1
	c-0.9,0-1.7-0.6-2-1.5h0.4c0.2,0,0.4,0,0.6-0.1c-1-0.2-1.7-1.1-1.7-2.1l0,0c0.3,0.1,0.7,0.2,1,0.3c-0.6-0.4-1-1.1-1-1.8
	c0-0.4,0.1-0.7,0.3-1C2,1.9,3.5,2.7,5.2,2.7c0-0.1-0.1-0.3-0.1-0.5C5.2,1,6.1,0.1,7.3,0c0.6,0,1.1,0.3,1.6,0.7
	c0.5-0.1,0.9-0.3,1.3-0.5c-0.2,0.5-0.5,0.9-1,1.2C9.6,1.3,10,1.2,10.4,1C10.2,1.5,9.9,1.9,9.4,2.3z"/>
</svg>
