<?xml version="1.0" encoding="utf-8"?>
<!-- Generator: Adobe Illustrator 19.2.1, SVG Export Plug-In . SVG Version: 6.00 Build 0)  -->
<svg version="1.1" id="Layer_1" xmlns="http://www.w3.org/2000/svg" xmlns:xlink="http://www.w3.org/1999/xlink" x="0px" y="0px"
	 viewBox="0 0 11.2 11.2" style="enable-background:new 0 0 11.2 11.2;" xml:space="preserve">
<style type="text/css">
	.st0{fill:none;}
	.st1{fill:#E4D9B8;}
</style>
<title>SK_Icons-125</title>
<path class="st0" d="M4.7,1.8C3.1,2.1,2,3.6,2.3,5.3c0.2,1.2,1.2,2.2,2.4,2.4C6.3,8,7.9,6.9,8.2,5.3c0.3-1.6-0.7-3.2-2.4-3.5
	C5.5,1.7,5.1,1.7,4.7,1.8z"/>
<path class="st1" d="M10.7,9.6c-0.7-0.7-1.3-1.3-2-2C8.6,7.5,8.6,7.4,8.6,7.2l0,0c0.6-1,0.8-2.2,0.6-3.4c-0.5-2.3-2.6-3.9-5-3.7
	C1.7,0.4-0.1,2.6,0,5.1c0.1,1.6,1,3,2.4,3.7c1.5,0.9,3.3,0.9,4.8,0c0.1-0.1,0.3-0.1,0.4,0l0,0c0.6,0.7,1.3,1.3,2,2
	c0.3,0.4,0.8,0.5,1.2,0.2s0.5-0.8,0.2-1.2C10.9,9.7,10.8,9.7,10.7,9.6z M4.6,7.7c-1.7,0-3-1.3-3-3s1.3-3,3-3s3,1.3,3,3v0.1
	C7.6,6.4,6.3,7.7,4.6,7.7z"/>
</svg>
