<?xml version="1.0" encoding="utf-8"?>
<!-- Generator: Adobe Illustrator 19.2.1, SVG Export Plug-In . SVG Version: 6.00 Build 0)  -->
<svg version="1.1" id="Layer_1" xmlns="http://www.w3.org/2000/svg" xmlns:xlink="http://www.w3.org/1999/xlink" x="0px" y="0px"
	 viewBox="0 0 8.8 8.8" style="enable-background:new 0 0 8.8 8.8;" xml:space="preserve">
<style type="text/css">
	.st0{fill:#E4D9B8;}
</style>
<title>SK_Icons</title>
<path class="st0" d="M5.7,4.4l2.9-2.9c0.3-0.3,0.3-0.9,0-1.2C8.2,0,7.6,0,7.3,0.3L4.4,3.2L1.6,0.3C1.2,0,0.7,0,0.4,0.3
	S0,1.2,0.4,1.5l2.9,2.9L0.4,7.3C0,7.6-0.1,8.1,0.2,8.5S1,8.9,1.4,8.6l0.1-0.1l2.9-2.8l2.9,2.8c0.3,0.3,0.9,0.3,1.2,0s0.3-0.9,0-1.2
	l0,0L5.7,4.4z"/>
</svg>
