<?xml version="1.0" encoding="utf-8"?>
<!-- Generator: Adobe Illustrator 19.2.1, SVG Export Plug-In . SVG Version: 6.00 Build 0)  -->
<svg version="1.1" id="Layer_1" xmlns="http://www.w3.org/2000/svg" xmlns:xlink="http://www.w3.org/1999/xlink" x="0px" y="0px"
	 viewBox="0 0 5.2 18.5" style="enable-background:new 0 0 5.2 18.5;" xml:space="preserve">
<style type="text/css">
	.st0{fill:#E4D9B8;}
</style>
<title>SK_Icons</title>
<path class="st0" d="M2.9,0.1L2.9,0.1c0.1,0,0.3,0.1,0.4,0.2c0.1,0,0.1,0,0.2,0c0.1,0,0.2,0.1,0.3,0.2C3.8,0.6,4,0.7,4,0.8V0.7
	C4.2,0.8,4.4,1,4.5,1.2c0.1,0.1,0.2,0.2,0.2,0.3c0,0.1,0.1,0.2,0.1,0.3C5,2,5.1,2.2,5.1,2.4v0.1c0,0.1,0.1,0.2,0.1,0.2
	c0,0.1,0,0.2,0,0.3s0,0.1,0,0.2v0.1v0.1c0,0.1,0,0.2,0,0.2s0,0,0,0.1C5.1,3.9,5.1,4,5.1,4.1c0,0-0.1,0.1-0.1,0.2
	c0,0.2-0.1,0.4-0.2,0.5c0,0.2-0.1,0.3-0.2,0.4c0,0.1-0.1,0.1-0.1,0.2c0,0.1-0.1,0.1-0.1,0.2c0,0,0,0-0.1,0.1C4.2,5.8,4.1,5.9,4,6
	c0,0,0,0,0,0.1c0,0.1-0.1,0.1-0.1,0.1c-0.2,0-0.2,0.1-0.3,0.2H3.5c0,0.1-0.1,0.2-0.2,0.3L3.1,7.4c0,0.1,0,0.2,0,0.2
	c0,0.1,0,0.2,0,0.3c0,0.1,0,0.2,0,0.3v0.1c0,0.2,0,0.5,0,0.7c0,0.1,0,0.1,0,0.2c0,0.1,0,0.1,0,0.2c0,0.1,0,0.1,0,0.2v0.1
	c0.1,0.1,0,0.2,0,0.3s0,0.1,0,0.2c0.1,0.2,0.1,0.4,0,0.6V11c0,0.2,0,0.4,0,0.5s0,0.1,0,0.2c0.1,0.2,0.1,0.5,0,0.7l0,0
	c0,0.2,0,0.4,0,0.6v0.1c0,0.1,0,0.1,0,0.2s0,0.2,0,0.4c0,0.1,0,0.2,0,0.3s0,0.2,0,0.4l0,0c0,0.1,0,0.2,0,0.3c0.1,0,0.1,0.1,0.1,0.2
	V15v0.1c0,0.1,0,0.2,0.1,0.3c0,0.1,0,0.1,0,0.2s0.1,0.1,0.1,0.2c0,0.1,0,0.2,0,0.2c0.1,0.1,0.1,0.2,0.1,0.3c0,0.2,0,0.5,0,0.8h0.1
	c0,0.1,0,0.2,0,0.3c0,0.1,0,0.2,0,0.3v0.1v0.1V18l-0.2,0.3c0,0.1-0.1,0.1-0.1,0.1c-0.1,0-0.1,0.1-0.2,0.1H2.7v-0.1H2.5v0.1H2.3
	c-0.1,0-0.1-0.1-0.2-0.1C2,18.3,2,18.2,1.9,18.1c0-0.1-0.1-0.2-0.1-0.2c0-0.1,0-0.2,0-0.3s0-0.1,0-0.2c0-0.1,0-0.2,0-0.2
	c0-0.1,0-0.2,0.1-0.2v-0.1v-0.1v-0.1v-0.1v-0.1L2,16.4l0,0c0-0.2,0-0.4,0-0.6c0-0.1,0-0.3,0-0.4c0-0.1,0-0.2,0.1-0.4v-0.1
	c0.1-0.1,0.1-0.3,0.1-0.4v-0.1c0,0,0,0,0-0.1v-0.1c0-0.1,0-0.3,0-0.4s0-0.3,0-0.4v-0.1c0-0.1,0-0.2,0-0.3c0-0.1,0-0.1,0-0.2v-0.1
	c0-0.2,0-0.3,0-0.5v-0.1c0-0.1,0-0.1,0-0.2c0-0.2,0-0.3,0-0.5v-0.1l0,0c0-0.2,0-0.3,0-0.5c0,0,0,0,0-0.1c0-0.2,0-0.4,0-0.6
	c0-0.1,0-0.1,0-0.2c0-0.1,0-0.2,0-0.4c0-0.1,0-0.3,0-0.4c0-0.2,0-0.4,0-0.6c0-0.1,0-0.1,0-0.2s0-0.1,0-0.2c0-0.1,0-0.1,0-0.2
	c0-0.2,0-0.3,0-0.5s0-0.4-0.1-0.5C2,7,2,6.9,2,6.8s0-0.1-0.1-0.2c-0.1,0-0.2-0.1-0.3-0.2L1.5,6.3C1.4,6.2,1.3,6.1,1.3,6.1
	S1.3,6,1.2,6L0.9,5.7V5.5C0.8,5.4,0.7,5.3,0.6,5.1C0.5,5,0.5,4.8,0.4,4.7C0.3,4.5,0.2,4.3,0.1,4.2c0-0.1,0-0.2-0.1-0.4
	c0-0.1,0-0.3,0-0.4C0,3.2,0,3,0,2.8c0-0.2,0-0.2,0-0.3C0.2,2.3,0.2,2.2,0.2,2c0.1,0,0.1-0.1,0.1-0.2l0.1-0.1V1.5
	C0.5,1.4,0.7,1.2,0.8,1c0-0.1,0.1-0.1,0.1-0.2C1,0.8,1,0.8,1,0.7c0.1-0.1,0.3-0.2,0.5-0.2c0.1,0,0.1-0.1,0.2-0.2c0,0,0-0.1,0.1-0.1
	S1.9,0.1,2,0.1S2.2,0,2.3,0l0,0h0.1l0,0L2.9,0.1L2.9,0.1L2.9,0.1L2.9,0.1z M3.1,4.5L3.1,4.5L3.1,4.5L3.1,4.5L3.1,4.5L3.1,4.5
	L3.1,4.5L3.1,4.5z M3.1,15.4L3.1,15.4L3.1,15.4L3.1,15.4L3.1,15.4L3.1,15.4L3.1,15.4L3.1,15.4z M2.2,3.6L2.2,3.6L2.2,3.6L2.2,3.6
	L2.2,3.6L2.2,3.6L2.2,3.6L2.2,3.6C2.2,3.6,2.2,3.7,2.2,3.6L2.2,3.6z M3,13.3L3,13.3L3,13.3L3,13.3L3,13.3L3,13.3L3,13.3L3,13.3
	L3,13.3L3,13.3z M4,1.7L4,1.7v0.1V1.7l0.1,0.1l0.1-0.1l0,0l0,0l0,0l0,0l0,0l0,0H4L4,1.7L4,1.7L4,1.7L4,1.7L4,1.7z M3.2,17L3.2,17
	L3.2,17L3.2,17L3.2,17L3.2,17L3.2,17L3.2,17z M3.5,2L3.5,2c0,0,0,0.1,0,0.2l0,0C3.6,2.1,3.6,2.1,3.5,2L3.5,2L3.5,2L3.5,2L3.5,2
	L3.5,2z M4.6,2.7L4.6,2.7L4.6,2.7L4.6,2.7L4.6,2.7L4.6,2.7L4.6,2.7H4.4V2.5l0,0c0,0,0,0,0,0.1v0.2l0,0L4.6,2.7L4.6,2.7L4.6,2.7z
	 M3.3,16.4L3.3,16.4L3.3,16.4L3.3,16.4L3.3,16.4L3.3,16.4L3.3,16.4L3.3,16.4z M2.6,0.8L2.6,0.8L2.6,0.8L2.6,0.8L2.6,0.8L2.6,0.8
	L2.6,0.8C2.6,0.7,2.6,0.7,2.6,0.8z M3.6,1L3.6,1L3.6,1L3.6,1L3.6,1L3.5,1.1H3.4v0.1v0.4H3.3V1.5L3.2,1.6h0.1L3.2,1.8
	c0.1,0,0.1,0,0.2-0.1c0,0.1-0.1,0.1,0,0.2l0.1-0.2l0,0l0,0c0.1,0,0-0.1,0-0.1V1.5c-0.1,0-0.2,0.1-0.3,0.1V1.5c0,0,0,0,0.1,0
	c0-0.1,0-0.2,0-0.3l0,0h0.1c0.1,0,0.1-0.1,0.1-0.2C3.5,1.1,3.6,1,3.6,1L3.6,1z M2.1,1L2.1,1L2.1,1L2.1,1C2,1,2,1,2.1,1L2.1,1L2.1,1
	L2.1,1C2,1,2,1,2.1,1L2.1,1z M4.2,4.7L4.2,4.7L4.2,4.7L4.2,4.7L4.2,4.7L4.2,4.7L4.2,4.7L4.2,4.7L4.2,4.7z M4.5,4.1L4.5,4.1L4.5,4.1
	L4.5,4.1C4.4,4.1,4.4,4.1,4.5,4.1C4.4,4.2,4.4,4.2,4.5,4.1L4.5,4.1L4.5,4.1L4.4,4.3c0.1,0,0.1,0,0.2-0.1C4.5,4.2,4.5,4.2,4.5,4.1
	L4.5,4.1C4.5,4.2,4.5,4.2,4.5,4.1L4.5,4.1z M3.7,2.9L3.7,2.9L3.7,2.9L3.7,2.9L3.7,2.9L3.7,2.9L3.7,2.9C3.7,2.8,3.7,2.9,3.7,2.9z
	 M3.1,2.7L3.1,2.7L3.1,2.7L3.1,2.7L3.1,2.7L3.1,2.7L3.1,2.7L3.1,2.7z M2.9,17.6L2.9,17.6L2.9,17.6L2.9,17.6C3,17.6,3,17.6,2.9,17.6
	L2.9,17.6L2.9,17.6L2.9,17.6L2.9,17.6z M2.6,14.2L2.6,14.2L2.6,14.2L2.6,14.2L2.6,14.2L2.6,14.2L2.6,14.2L2.6,14.2L2.6,14.2z
	 M2.8,4.1L2.8,4.1L2.8,4.1L2.8,4.1L2.8,4.1V3.9V4.1L3,4c0,0.1,0.1,0.1,0.2,0C3.1,4,3.1,4,3.1,4S3,3.9,3,4C2.8,3.9,2.8,3.8,2.8,3.7
	l0,0V3.6H2.7L2.6,3.4v0.2l0.1,0.1c0,0.1,0,0.1,0,0.2l0,0L2.6,4h0.1V3.9h0.1L2.8,4.1C2.7,4,2.8,4,2.8,4.1L2.8,4.1z M2.8,15.4
	L2.8,15.4L2.8,15.4L2.8,15.4L2.8,15.4l0.1,0.1L2.8,15.4L2.8,15.4L2.8,15.4z M3,2.6L3,2.6L3,2.6L3,2.6V2.4L2.9,2.5
	C2.9,2.6,3,2.6,3,2.6z M3.7,5.5L3.7,5.5C3.7,5.5,3.7,5.4,3.7,5.5v0.1c0.1-0.1,0.1-0.1,0.1-0.2l0,0L3.7,5.5C3.7,5.4,3.6,5.4,3.7,5.5
	L3.7,5.5z M3.5,4.5c0.1,0,0.1,0,0.1-0.1C3.6,4.5,3.5,4.5,3.5,4.5L3.5,4.5L3.5,4.5L3.5,4.5L3.5,4.5z M3.9,2.3L3.8,2.4l0,0L3.9,2.3
	L3.9,2.3V2.2V2.3L3.9,2.3L3.9,2.3L3.9,2.3H3.8V2.2l0,0L3.7,2.3V2.1v0.1H3.6v0.1h0.1v0.1h0.1V2.3V2.2v0.1C3.8,2.3,3.9,2.3,3.9,2.3
	L3.9,2.3z M2.1,1.8L2.1,1.8L2.1,1.8L2.1,1.8C2.1,1.9,2.1,1.8,2.1,1.8L2.1,1.8L2.1,1.8L2.1,1.8z M2.2,18.2L2.2,18.2L2.2,18.2
	L2.2,18.2L2.2,18.2L2.2,18.2L2.2,18.2l0.1-0.1L2.2,18.2z M3.1,3.3L2.9,3.4v0.1C3,3.4,3,3.4,3.1,3.3C3,3.3,3,3.3,3.1,3.3
	C3.1,3.3,3,3.2,3.1,3.3c0-0.2,0.1-0.3,0.1-0.5H3.1L3.2,3C3.1,3,3.1,3.1,3.1,3.2C3,3.2,3.1,3.3,3.1,3.3z M2.8,3.3L2.7,3.4v0.1
	C2.7,3.5,2.7,3.4,2.8,3.3L2.8,3.3v0.1l0,0C2.8,3.4,2.8,3.4,2.8,3.3C2.8,3.4,2.8,3.4,2.8,3.3c0.1,0,0.1,0,0.1-0.1l0,0L2.8,3.3
	L2.8,3.3z M3.5,2.8v0.1V2.8L3.5,2.8L3.5,2.8C3.5,2.7,3.5,2.7,3.5,2.8c0-0.1,0-0.2,0-0.2l0,0V2.8L3.5,2.8L3.5,2.8z M2.6,2.1
	c0,0,0-0.1-0.1-0.1v0.2c0-0.1,0-0.1,0-0.2l0,0V1.9H2.4C2.5,2,2.6,2,2.6,2.1L2.6,2.1z M2.8,16.5L2.8,16.5L2.8,16.5L2.8,16.5L2.8,16.5
	c0-0.1-0.1-0.1-0.1-0.2C2.6,16.5,2.7,16.5,2.8,16.5L2.8,16.5z M3.8,5.1L3.8,5.1L3.8,5.1L3.8,5.1C3.8,5,3.8,5.1,3.8,5.1L3.8,5.1v0.1
	C3.9,5.2,3.9,5.2,3.8,5.1z M3.6,4.4L3.6,4.4L3.6,4.4L3.6,4.4C3.6,4.3,3.6,4.3,3.6,4.4v0.1h0.1l0.1,0.1l0,0V4.4H3.6L3.6,4.4z M2.9,17
	L2.9,17L2.9,17L2.9,17L2.9,17c0-0.1,0-0.1,0-0.2H2.8L2.9,17L2.9,17H2.6l0.1,0.1l0,0C2.7,17.1,2.7,17,2.9,17L2.9,17z M2.7,2.2
	L2.7,2.2L2.7,2.2L2.7,2.2L2.7,2.2c0,0,0,0.1,0.1,0.1l0,0L2.7,2.2c0.1,0,0.2,0,0.2,0l0,0l0,0l0,0c0-0.1,0-0.2-0.1-0.3l0,0L3,2
	c0,0.1,0,0.1,0,0.2s0,0.1,0,0.1l0,0c0,0,0.1-0.1,0.1-0.2s0-0.1,0-0.2l0,0c0-0.1,0-0.2,0-0.2H3l0,0h0.1H3v0.1c-0.2,0-0.1-0.1-0.2-0.2
	l0,0V2c0,0,0,0,0,0.1l0,0H2.7l0,0c0,0,0,0,0.1,0l0,0V2h0.1v0.1v0.2C2.8,2.2,2.8,2.2,2.7,2.2z M2.4,16.3v-0.1H2.3
	C2.3,16.2,2.3,16.2,2.4,16.3L2.4,16.3v0.2h0.1L2.4,16.3L2.4,16.3z M3,16.9L3,16.9L3,16.9v-0.3H2.9C3,16.7,3,16.8,3,16.9L3,16.9
	L3,16.9L3,16.9z M1.9,1.1c0,0,0,0.1,0,0.2c0,0-0.1,0-0.1,0.1c0.1,0,0.1,0,0.2,0V1.2L1.9,1.1C1.9,1.2,1.9,1.1,1.9,1.1L1.9,1.1
	L1.9,1.1L1.9,1.1L1.9,1.1z M2.9,1L2.9,1L2.8,0.9V1C2.9,1,2.9,1,2.9,1L2.9,1v0.1V1L2.9,1C3,1,3,0.9,2.9,1L2.9,1z M3.4,2.7L3.4,2.7
	l0.1-0.1H3.4V2.4l0,0L3.3,2.5c0,0.1,0,0.2,0,0.3l0,0L3.4,2.7C3.3,2.8,3.3,2.7,3.4,2.7L3.4,2.7z M4.2,2L4.2,2L4.2,2C4.1,2,4,2,4,2
	l0.1-0.1H3.9c0,0,0,0,0.1,0V2l0,0H4.2L4.2,2L4.2,2h0.2l0,0H4.2L4.2,2L4.2,2z M2.8,1.5L2.8,1.5L2.8,1.5L2.8,1.5c0,0,0,0,0.1-0.1
	C2.8,1.4,2.9,1.5,2.8,1.5v0.1h0.1L2.8,1.5H3V1.4C3,1.4,2.9,1.4,2.8,1.5z M2.5,1.5L2.5,1.5V1.4l0,0C2.5,1.5,2.5,1.5,2.5,1.5L2.5,1.5
	L2.5,1.5L2.5,1.5c0,0.1,0,0.1,0.1,0.2l0.1-0.2l0,0V1.4H2.6V1.2H2.5V1L2.4,1.1v0.1l0,0l0,0h0.2v0.1h0.1v0.1H2.5V1.5L2.5,1.5z
	 M2.8,17.2l-0.1,0.1l-0.2-0.2v0.1c0.1,0.1,0.2,0.2,0.3,0.2l0.1-0.1C2.8,17.3,2.8,17.2,2.8,17.2L2.8,17.2L2.8,17.2L2.8,17.2z
	 M3.8,2.6L3.8,2.6l0.1,0.2l0,0v0.1l0.1,0c0-0.1,0-0.2,0-0.2V2.6l0,0h0.1V2.5H4l0,0C4,2.6,3.9,2.6,3.8,2.6L3.8,2.6L3.8,2.6L3.8,2.6
	C3.9,2.6,3.8,2.6,3.8,2.6z M3,3L3,3L3,3L3,3L3,3V2.9L2.9,2.7l0,0L2.8,2.6v0.1v0.1L2.9,3L3,3L3,3z M2,2.2L2,2.2L2,2.2L2,2.2
	C2,2.3,2,2.3,2,2.2V2.1h0.1l0.1-0.2h0.1V2V1.9h0.1V1.8L2.3,1.9c-0.1,0,0-0.1-0.1-0.1v0.1C2.1,2,2.1,2,2.1,2V1.9L2,2.1H1.8L2,2.2
	C2,2.2,2,2.3,2,2.2C2.1,2.2,2.1,2.2,2,2.2L2,2.2z M3.8,4.7L3.8,4.7L3.6,4.6C3.5,4.7,3.5,4.8,3.4,4.9L3.3,5l0.1,0.1
	c0-0.1,0.1-0.2,0.2-0.3L3.8,4.7C3.8,4.8,3.8,4.8,3.8,4.7v0.2l0.1-0.1l0,0l0,0H3.8C3.8,4.8,3.8,4.7,3.8,4.7L3.8,4.7L3.8,4.7
	C3.8,4.7,3.9,4.6,3.8,4.7L3.8,4.7z M1.7,2.3l0.1-0.1V2.1l0.1,0.1V2.1H1.8V1.9c0.1,0,0.1,0,0.1,0.1l0,0V1.9L1.8,1.8V1.7h0.1v0.1
	L2,1.7V1.6l0.2,0.1V1.5H2.1l0,0c-0.1,0,0,0.1-0.2,0.1L2,1.5V1.4l0,0l0,0l0,0v0.1H1.8L1.7,1.6h0.1l0,0c-0.1,0-0.2-0.1-0.2-0.1v0.1
	l0.2,0.1v0.1c-0.1,0,0,0.1,0,0.1H1.6C1.6,2,1.6,2.2,1.7,2.3L1.7,2.3L1.7,2.3C1.6,2.2,1.7,2.3,1.7,2.3z M1,3.2c0,0.1,0,0.2,0,0.3
	c0,0,0,0,0,0.1c0,0.1,0,0.2,0,0.3h0.1c0,0.3,0.1,0.6,0.3,0.8v0.1c0.1,0,0.2,0.2,0.3,0.3c0,0,0,0,0.1,0.1C1.9,5.2,2,5.3,2,5.4
	l0.1,0.1c0.1,0,0.2,0.1,0.2,0.1h0.3l0.2-0.1V5.2C2.8,5.1,2.7,5,2.6,5C2.5,4.9,2.4,4.8,2.3,4.8C2.2,4.6,2,4.5,1.9,4.3
	C1.8,4.1,1.7,3.8,1.7,3.5c0-0.1,0-0.2,0-0.2c0-0.1,0-0.2,0-0.3L1.4,2.8L1.2,2.9C1.1,3,1.1,3.1,1,3.2z M3.7,1.9l0.1-0.1V1.6H3.7
	L3.6,1.7l0,0l0,0l0.1,0.1L3.7,1.9L3.7,1.9L3.7,1.9v0.2L3.8,2l0,0l0,0L3.7,1.9z M4,3L4,3C3.9,3.1,3.9,3.2,3.8,3.3v0.1l0.1-0.1H4h0.1
	v0.1h0.1L4.1,3.2H4V3.1l0,0V3z M3.2,1.4l0.1-0.2l-0.1,0C3.1,1.3,3,1.2,3,1.2v0.2L3.2,1.4z M3,17.4l-0.1-0.1l-0.1,0.2H2.7v0.2h0.1
	c0,0-0.1-0.1,0-0.1H3l-0.1-0.1L3,17.4z M4.4,2.9L4.4,2.9V3H4.3v0.1L4.2,3.2l0,0c0.1,0.1,0.1,0.1,0.1,0V3h0.2L4.4,2.9z M2.4,17.5
	L2.4,17.5c0.1,0.1,0.1,0.2,0,0.3l0.1,0.1V18l0,0v-0.2H2.4v-0.1V17.5z M3.2,3.5L3.2,3.5l0.1-0.1l0.1,0.1c0.1-0.1,0-0.1,0-0.2l0.1-0.1
	V3.1L3.3,3.3H3.2V3.5L3.2,3.5z M4.3,2.4v0.1H4.2l0,0v0.1l0.2,0.1l0.1-0.1V2.4H4.3z M4,4v0.1V4l0.1,0.1l0,0L4.2,4h0.2l0,0H4z M4,4.5
	L4,4.5l0.1-0.3C4,4.3,4,4.4,4,4.5L4,4.5L4,4.5z M2.2,1.1L2.2,1.1L2.1,1.4l0.1-0.1C2.2,1.2,2.2,1.1,2.2,1.1c0.2,0.1,0.2,0.1,0.2,0
	H2.2L2.2,1.1z M3.7,3.2c0,0.1-0.1,0.2-0.1,0.2L3.7,3.2l0.1-0.1l-0.2,0L3.7,3.2z M3,2.5h0.2L3.1,2.3l0,0H3h0.1L3,2.5L3,2.5z M2.4,2.4
	l0.1-0.1L2.4,2.2V2.4v0.1l0,0V2.4z M4.2,4.5c0,0.1,0.1-0.1,0.2,0l0.1-0.2C4.3,4.4,4.2,4.5,4.2,4.5z M2.6,16.9l-0.2-0.1
	C2.3,17,2.4,16.9,2.6,16.9L2.5,17L2.6,16.9z M2.6,3.3L2.6,3.3L2.5,3.4h0.1V3.3L2.6,3.3L2.6,3.3z M2.7,16l0.1-0.2H2.7l0,0V16z
	 M2.6,3.7c-0.1,0-0.1,0.1-0.1,0.1h0.1V3.7L2.6,3.7z M2.8,2.4L2.8,2.4L2.8,2.4L2.6,2.5l0.1,0.1L2.8,2.4z M3.3,2c-0.1,0,0,0-0.1,0.1
	l0.1,0.1C3.4,2.1,3.4,2,3.3,2L3.3,2z M4.3,5L4.1,4.8l0,0v0.1L4.3,5C4.2,5,4.2,5,4.3,5L4.3,5z M3.1,17.1C3,17.2,3,17.3,3,17.3l0,0
	h0.1V17.1z M3,17.5v0.3C3.1,17.7,3.1,17.7,3,17.5C3.1,17.6,3.1,17.5,3,17.5L3,17.5z M4.2,2.9c0.1-0.1,0.1-0.2,0.1-0.2L4.2,2.9
	L4.2,2.9z M4.5,2.9L4.5,2.9C4.6,2.9,4.6,2.9,4.5,2.9L4.5,2.9L4.5,2.9L4.5,2.9z M3.6,2.9L3.5,3v0.1l0,0l0,0L3.6,2.9z M2.1,2.2
	L2.1,2.2l0.1,0.1c0-0.1,0-0.1,0-0.2L2.1,2.2z M4.3,2.3L4.2,2.2l0,0L4.3,2.3L4.3,2.3z M3.3,5.1L3.2,4.8L3.3,5.1L3.3,5.1z M1.5,2.1
	v0.1h0.1V2L1.5,2.1z M2.7,2.3c-0.1,0-0.1,0.1-0.1,0.2L2.7,2.3L2.7,2.3z M2.4,18.1C2.4,18.1,2.5,18.1,2.4,18.1L2.4,18.1L2.4,18.1z
	 M2.8,17.8c-0.1,0-0.1,0-0.2,0l0,0l0,0v0.1v-0.1h0.1H2.8L2.8,17.8L2.8,17.8z M2.3,3.3C2.2,3.1,2.2,3.1,2.1,3.2L2.3,3.3z M3.1,16.1
	l0.1-0.2l0,0L3.1,16.1z M2.8,0.9c0-0.1,0.1-0.1,0.1-0.2l0,0H2.8V0.9z M3.3,4.6L3.3,4.6c0-0.1-0.1-0.1-0.1-0.1l0,0L3.3,4.6L3.3,4.6
	L3.3,4.6z M3.7,3.3L3.7,3.3l0.1,0.1l0,0l0,0l0,0L3.7,3.3z M3.2,4.3v0.1h0.1L3.2,4.3L3.2,4.3L3.2,4.3z M2.8,1.2c0-0.1,0-0.1,0-0.2
	V1.2L2.8,1.2z M1.7,1.2L1.7,1.2L1.7,1.2L1.6,1.1L1.7,1.2z M2.7,15.3l-0.1,0.1C2.7,15.4,2.7,15.4,2.7,15.3L2.7,15.3z M4.5,3.3
	c0-0.1,0-0.1,0-0.2V3.3L4.5,3.3z M4.4,3.8l0.1-0.1l0,0L4.4,3.8L4.4,3.8L4.4,3.8z M3.2,4l0.1,0.1l0,0L3.2,4L3.2,4z M3.5,4.1L3.4,3.9
	L3.5,4.1L3.5,4.1z M2.9,4.2L2.9,4.2L2.9,4.2L2.9,4.2L2.9,4.2L2.9,4.2L2.9,4.2z M3.7,5C3.5,5,3.5,5,3.5,5.1L3.7,5z M2.1,3.3l0.1,0.1
	l0.1-0.1H2.1z M3.1,3.6L3.1,3.6v0.1V3.6L3.1,3.6z M3,1.2c0.1,0,0.1-0.1,0.1-0.1l0,0l0,0L3,1.2L3,1.2z M3.3,3V2.9l0,0V3L3.3,3z
	 M1.2,2L1.2,2L1,2.1L1.2,2z M3.8,4.1L3.7,4.2h0.1V4.1z M2.8,17.8V18V17.8L2.8,17.8z M2.6,2.6L2.6,2.6L2.6,2.6L2.6,2.6z M4,5.2L4,5.2
	l0.1,0.1C4,5.2,4,5.2,4,5.2L4,5.2z M3.2,5.8c0.1,0,0.1,0,0.1-0.1l0,0L3.2,5.8z M4.2,4c0,0,0.1,0,0.1-0.1l0,0l0,0L4.2,4z M3,14.9
	L3,14.9v0.2V14.9z M3.3,2.3L3.3,2.3L3.3,2.3L3.3,2.3L3.3,2.3z M2.3,3.7L2.3,3.7l0.1-0.1H2.3V3.7L2.3,3.7z M4.6,4.4L4.6,4.4L4.6,4.4
	L4.6,4.4C4.5,4.4,4.5,4.4,4.6,4.4L4.6,4.4z M3.4,3.8L3.4,3.8c0-0.2,0-0.2,0-0.1V3.8z M3.4,2.4L3.4,2.4l0.1,0.1L3.4,2.4L3.4,2.4
	L3.4,2.4z M4.2,4.7L4.2,4.7L4.1,4.8C4.1,4.8,4.1,4.8,4.2,4.7L4.2,4.7L4.2,4.7z M4.4,2.2c0.1-0.1,0-0.1,0-0.1H4.3L4.4,2.2z M2.8,3.1
	L2.8,3.1L2.7,3L2.8,3.1z M3.2,4.7L3.2,4.7L3.2,4.7C3.2,4.8,3.2,4.7,3.2,4.7z M1.5,1.7v0.2h0.1L1.5,1.7z M3.9,4.4L4,4.3H3.9V4.4
	L3.9,4.4z M2.7,18L2.7,18L2.7,18L2.7,18z M2.5,17.7v-0.1V17.7L2.5,17.7z M4.2,3.9L4.2,3.9L4.1,4L4.2,3.9z M2.5,15l0.1,0.1L2.5,15
	L2.5,15z M1.4,2.4L1.3,2.2L1.4,2.4L1.4,2.4z M3.3,4.7c-0.1,0.1,0,0.1,0,0.1S3.4,4.7,3.3,4.7L3.3,4.7z M3.6,0.8L3.5,0.9h0.1V0.8
	L3.6,0.8z M2.2,1.5c0-0.1,0-0.1-0.1-0.1l0,0L2.2,1.5z M4,1.2L4,1.2l0.1,0.1C4.1,1.2,4,1.3,4,1.2L4,1.2z M2.6,0.9L2.7,1L2.6,0.9
	L2.6,0.9L2.6,0.9z M4.6,3.5C4.7,3.5,4.7,3.6,4.6,3.5C4.7,3.4,4.7,3.5,4.6,3.5z M2.6,16.1v0.1V16.1L2.6,16.1L2.6,16.1z M2.8,15.8
	L2.8,15.8v-0.2V15.8z M4.4,4.9V4.8H4.2L4.4,4.9z M3.5,3.1v0.1h0.1L3.5,3.1z M3.3,17.5c0,0-0.1,0-0.1,0.1h0.1V17.5z M3.8,1.4L3.7,1.3
	L3.8,1.4L3.8,1.4z M3.9,4.1L3.9,4.1v0.1l0,0V4.1z M2.7,16.9v-0.1V16.9L2.7,16.9z M1.4,2L1.4,2L1.4,2L1.4,2L1.4,2z M2.8,4.5V4.4H2.7
	L2.8,4.5z M3.2,17.4L3.2,17.4v-0.1V17.4L3.2,17.4z M2.8,16.4v-0.1V16.4L2.8,16.4z M4.3,3.5C4.2,3.5,4.2,3.5,4.3,3.5L4.3,3.5L4.3,3.5
	z M2.7,17.6L2.7,17.6L2.7,17.6L2.7,17.6L2.7,17.6L2.7,17.6z M3.8,3.6C3.7,3.6,3.7,3.6,3.8,3.6L3.8,3.6L3.8,3.6z M2.5,15.3L2.5,15.3
	L2.5,15.3L2.5,15.3L2.5,15.3L2.5,15.3z M2.5,3L2.5,3v0.1l0,0V3z M3.7,2.9c0,0-0.1,0,0,0.1S3.8,3,3.7,2.9z M3.8,2.9
	C3.8,3,3.8,3,3.8,2.9L3.8,2.9L3.8,2.9L3.8,2.9z M2.6,18.2c0,0.1,0,0.1,0,0.1S2.7,18.2,2.6,18.2z M3.5,3.5c0,0,0-0.1-0.1-0.1
	C3.5,3.4,3.5,3.4,3.5,3.5z M3.2,2.6L3.2,2.6L3.2,2.6L3.2,2.6L3.2,2.6z M3.1,17.8L3.1,17.8L3.1,17.8L3.1,17.8L3.1,17.8z M4.2,2.6
	L4.2,2.6L4.2,2.6L4.2,2.6L4.2,2.6z M3.3,0.9L3.3,0.9l0.1-0.1L3.3,0.9z M2.2,15.6L2.2,15.6l0.1-0.1L2.2,15.6z M2.8,6L2.8,6L2.8,6
	L2.8,6L2.8,6L2.8,6z M3,3.9L3,3.9L3,3.9L3,3.9L3,3.9z M2.7,0.9C2.7,0.8,2.7,0.8,2.7,0.9L2.7,0.9z M2.5,18C2.6,18,2.6,18,2.5,18
	L2.5,18z M2.8,12.4L2.8,12.4L2.8,12.4L2.8,12.4z M2.5,0.7L2.5,0.7L2.5,0.7L2.5,0.7z M2.7,0.7L2.7,0.7L2.7,0.7L2.7,0.7L2.7,0.7z
	 M3.7,5.4C3.7,5.3,3.7,5.3,3.7,5.4L3.7,5.4z M2.5,6.1L2.4,6L2.5,6.1L2.5,6.1z M1.9,17.7L2,17.6L1.9,17.7L1.9,17.7L1.9,17.7z
	 M2.9,6.1L2.9,6.1v0.1l0,0V6.1z M1.5,1.4l0.1-0.1L1.5,1.4L1.5,1.4z M2.5,0.9L2.5,0.9L2.5,0.9L2.5,0.9L2.5,0.9z M3.5,6
	C3.5,5.9,3.5,5.9,3.5,6L3.5,6z M3.5,17.7L3.5,17.7L3.5,17.7L3.5,17.7L3.5,17.7z M2.7,16.7L2.7,16.7L2.7,16.7L2.7,16.7L2.7,16.7
	L2.7,16.7z M2.5,16.7L2.5,16.7v0.1l0,0V16.7L2.5,16.7z M3.6,2.5L3.6,2.5L3.6,2.5L3.6,2.5z M2.4,3.9C2.4,4,2.4,4,2.4,3.9L2.4,3.9z
	 M3.8,3.9L3.8,3.9L3.8,3.9L3.8,3.9L3.8,3.9L3.8,3.9z M4.4,2.1C4.4,2.2,4.4,2.2,4.4,2.1L4.4,2.1z M4.2,3.7L4.2,3.7L4.2,3.7L4.2,3.7
	L4.2,3.7z M1.8,2.5L1.7,2.4L1.8,2.5L1.8,2.5z M2.9,3.8L2.9,3.8V3.7l0,0V3.8L2.9,3.8z M4.7,2.4L4.7,2.4v0.1l0,0V2.4L4.7,2.4z
	 M2.3,16.4C2.3,16.3,2.3,16.3,2.3,16.4L2.3,16.4z M2.3,14.9L2.4,15L2.3,14.9L2.3,14.9L2.3,14.9z M4.6,3.9L4.6,3.9V4l0,0V3.9z
	 M1.6,2.3L1.6,2.3L1.6,2.3L1.6,2.3L1.6,2.3z M3.2,3.9L3.2,3.9V3.8l0,0V3.9z M4.5,3.5L4.5,3.5L4.5,3.5L4.5,3.5L4.5,3.5z M4.3,3
	C4.2,3,4.2,3,4.3,3z M4.6,3.1L4.6,3.1L4.6,3.1L4.6,3.1L4.6,3.1L4.6,3.1z M2.9,17C3,17,3,17,2.9,17L2.9,17z M4.4,1.8
	C4.4,1.7,4.4,1.7,4.4,1.8L4.4,1.8z M2.6,15.9L2.6,15.9L2.6,15.9L2.6,15.9z M2.3,15.9L2.2,16L2.3,15.9L2.3,15.9L2.3,15.9z M2.3,3
	L2.3,3L2.3,3L2.3,3z M3.9,1.9L3.9,1.9L3.9,1.9L3.9,1.9z M3.4,4.3C3.3,4.3,3.3,4.3,3.4,4.3L3.4,4.3z M2.8,18.2L2.8,18.2L2.8,18.2
	L2.8,18.2C2.8,18.1,2.8,18.2,2.8,18.2z M2.9,15.3L2.9,15.3L2.9,15.3L2.9,15.3L2.9,15.3z M2.9,18.4L2.9,18.4L2.9,18.4L2.9,18.4
	C2.9,18.3,2.9,18.4,2.9,18.4z M3.1,16.2L3.1,16.2L3.1,16.2L3.1,16.2L3.1,16.2L3.1,16.2z M3,18.1L3,18.1L3,18.1L3,18.1
	C3,18,3,18.1,3,18.1z M2.8,16.2L2.8,16.2L2.8,16.2L2.8,16.2L2.8,16.2L2.8,16.2z M2.7,14.4L2.7,14.4L2.7,14.4L2.7,14.4
	C2.7,14.3,2.7,14.4,2.7,14.4z M2.2,17.3L2.2,17.3L2.2,17.3L2.2,17.3L2.2,17.3z M2.1,17L2.1,17L2.1,17L2.1,17L2.1,17z M3,17.1L3,17.1
	L3,17.1L3,17.1C3,17.2,3,17.1,3,17.1z M2.8,14.7L2.8,14.7L2.8,14.7L2.8,14.7L2.8,14.7L2.8,14.7z M2.2,17.4L2.2,17.4L2.2,17.4
	L2.2,17.4L2.2,17.4L2.2,17.4z M3.5,3.9L3.5,3.9L3.5,3.9L3.5,3.9L3.5,3.9z M3.4,5.3L3.4,5.3L3.4,5.3L3.4,5.3L3.4,5.3L3.4,5.3z
	 M1.4,1.5L1.4,1.5L1.4,1.5L1.4,1.5L1.4,1.5z M4,5.4L4,5.4L4,5.4L4,5.4L4,5.4L4,5.4z M3.7,2.7L3.7,2.7L3.7,2.7L3.7,2.7L3.7,2.7z
	 M1.3,1.4L1.3,1.4L1.3,1.4L1.3,1.4L1.3,1.4z M2.6,2.8L2.6,2.8L2.6,2.8L2.6,2.8L2.6,2.8z M2.7,5.9L2.7,5.9L2.7,5.9L2.7,5.9L2.7,5.9z
	 M3.5,1.5L3.5,1.5L3.5,1.5L3.5,1.5L3.5,1.5z M3.1,1.5L3.1,1.5L3.1,1.5L3.1,1.5L3.1,1.5z M3.8,3.8L3.8,3.8L3.8,3.8L3.8,3.8L3.8,3.8z
	 M2.3,1.5L2.3,1.5V1.4l0,0V1.5z M3.1,5.7L3.1,5.7L3.1,5.7L3.1,5.7L3.1,5.7L3.1,5.7z M3.5,4.4L3.5,4.4L3.5,4.4L3.5,4.4L3.5,4.4
	L3.5,4.4z M3.2,4.2L3.2,4.2L3.2,4.2L3.2,4.2L3.2,4.2z M1.1,2.5L1.1,2.5V2.4l0,0V2.5L1.1,2.5z M2.9,2.3L2.9,2.3L2.9,2.3L2.9,2.3
	L2.9,2.3L2.9,2.3z M2.6,4.3L2.6,4.3L2.6,4.3L2.6,4.3C2.5,4.3,2.6,4.3,2.6,4.3z M4.6,2.3L4.6,2.3L4.6,2.3L4.6,2.3L4.6,2.3L4.6,2.3z
	 M2.8,4.3L2.8,4.3L2.8,4.3L2.8,4.3L2.8,4.3L2.8,4.3z M3.3,2.6L3.3,2.6L3.3,2.6L3.3,2.6L3.3,2.6L3.3,2.6z M3.3,4.6L3.3,4.6L3.3,4.6
	L3.3,4.6L3.3,4.6L3.3,4.6z M2.4,4.2L2.4,4.2V4.1l0,0V4.2L2.4,4.2z M2.4,2.1L2.4,2.1L2.4,2.1L2.4,2.1L2.4,2.1L2.4,2.1z M4.5,2.5
	L4.5,2.5L4.5,2.5L4.5,2.5L4.5,2.5L4.5,2.5z M4.5,2L4.5,2L4.5,2L4.5,2L4.5,2L4.5,2z M3.5,4.7L3.5,4.7L3.5,4.7L3.5,4.7L3.5,4.7
	L3.5,4.7z M3,3.5L3,3.5L3,3.5L3,3.5L3,3.5z M2.9,3.5L2.9,3.5L2.9,3.5L2.9,3.5L2.9,3.5z M3.7,1L3.7,1L3.7,1L3.7,1L3.7,1z M3.2,1
	L3.2,1L3.2,1L3.2,1L3.2,1L3.2,1z M3.2,1.1L3.2,1.1L3.2,1.1L3.2,1.1L3.2,1.1L3.2,1.1z M2.6,3.1L2.6,3.1L2.6,3.1L2.6,3.1L2.6,3.1
	L2.6,3.1z M3,3L3,3v0.2l0,0V3L3,3z M2.3,0.8L2.3,0.8L2.3,0.8L2.3,0.8L2.3,0.8z M2.3,3.3L2.3,3.3L2.3,3.3L2.3,3.3L2.3,3.3z M3.1,0.7
	L3.1,0.7L3.1,0.7L3.1,0.7C3.1,0.8,3.1,0.7,3.1,0.7z M2.2,3.5L2.2,3.5L2.2,3.5L2.2,3.5L2.2,3.5z M3.1,0.9L3.1,0.9L3.1,0.9L3.1,0.9
	L3.1,0.9z M1.9,0.9L1.9,0.9L1.9,0.9L1.9,0.9L1.9,0.9z M3,0.9L3,0.9L3,0.9L3,0.9C3.1,0.9,3,0.9,3,0.9z M2,1.3L2,1.3L2,1.3L2,1.3
	L2,1.3L2,1.3z M1.6,1.3L1.6,1.3L1.6,1.3L1.6,1.3L1.6,1.3L1.6,1.3z M3.1,6.3L3.1,6.3L3.1,6.3L3.1,6.3L3.1,6.3L3.1,6.3z M4.3,3.3
	L4.3,3.3L4.3,3.3L4.3,3.3L4.3,3.3z M2.2,16.4L2.2,16.4z M1.9,2.5L1.9,2.5L1.9,2.5L1.9,2.5L1.9,2.5z M2.7,3.2L2.7,3.2z M2.1,2.4
	L2.1,2.4z M2.7,2.6L2.7,2.6z M1,2.6L1,2.6z M2.4,15.7L2.4,15.7L2.4,15.7L2.4,15.7L2.4,15.7z M2.5,2.7L2.5,2.7L2.5,2.7L2.5,2.7
	L2.5,2.7z M2.6,15.6L2.6,15.6z M2.2,2.8L2.2,2.8L2.2,2.8L2.2,2.8L2.2,2.8z M3.2,2.8L3.2,2.8L3.2,2.8L3.2,2.8L3.2,2.8z M3,16.3
	L3,16.3z M2.7,2.8L2.7,2.8z M2.9,3L2.9,3L2.9,3L2.9,3L2.9,3z M2.5,2.5L2.5,2.5L2.5,2.5L2.5,2.5L2.5,2.5z M2.5,17.4L2.5,17.4z M4,1.2
	L4,1.2z M3.6,1.3L3.6,1.3z M2.2,17.9L2.2,17.9L2.2,17.9L2.2,17.9L2.2,17.9z M2.1,0.8L2.1,0.8L2.1,0.8L2.1,0.8L2.1,0.8z M3,17.9
	L3,17.9z M2.9,0.4L2.9,0.4z M3.1,18.3L3.1,18.3z M2.4,18.2L2.4,18.2L2.4,18.2L2.4,18.2L2.4,18.2z M2.8,0.6L2.8,0.6z M2.6,18.1
	L2.6,18.1L2.6,18.1L2.6,18.1L2.6,18.1z M2.3,0.6L2.3,0.6z M2,0.7L2,0.7L2,0.7L2,0.7L2,0.7z M1.4,1.1L1.4,1.1z M2.3,17.7L2.3,17.7
	L2.3,17.7L2.3,17.7L2.3,17.7z M2.2,17.7L2.2,17.7L2.2,17.7L2.2,17.7L2.2,17.7z M1.8,1L1.8,1L1.8,1L1.8,1L1.8,1z M1.3,1.8L1.3,1.8z
	 M2.6,1.8L2.6,1.8z M3.5,1.8L3.5,1.8L3.5,1.8L3.5,1.8L3.5,1.8z M3.8,1.8L3.8,1.8z M2.8,16.6L2.8,16.6L2.8,16.6L2.8,16.6L2.8,16.6z
	 M1.4,2.2L1.4,2.2L1.4,2.2L1.4,2.2L1.4,2.2z M2.6,2.3L2.6,2.3L2.6,2.3L2.6,2.3L2.6,2.3z M3.5,2.3L3.5,2.3L3.5,2.3L3.5,2.3L3.5,2.3z
	 M2.5,2.1L2.5,2.1L2.5,2.1L2.5,2.1L2.5,2.1z M4.1,2.1L4.1,2.1L4.1,2.1L4.1,2.1L4.1,2.1z M3,16.6L3,16.6z M1.8,1.4L1.8,1.4L1.8,1.4
	L1.8,1.4L1.8,1.4z M2.4,1.4L2.4,1.4L2.4,1.4L2.4,1.4L2.4,1.4z M4,1.5L4,1.5L4,1.5L4,1.5L4,1.5z M3.2,16.9L3.2,16.9L3.2,16.9
	L3.2,16.9L3.2,16.9z M2.4,17L2.4,17L2.4,17L2.4,17L2.4,17z M3.2,5.6L3.2,5.6L3.2,5.6L3.2,5.6L3.2,5.6z M3.7,5.6L3.7,5.6L3.7,5.6
	L3.7,5.6L3.7,5.6z M3.7,5.7L3.7,5.7L3.7,5.7L3.7,5.7L3.7,5.7z M3.5,5.4L3.5,5.4L3.5,5.4L3.5,5.4L3.5,5.4z M3.9,5.5L3.9,5.5L3.9,5.5
	L3.9,5.5L3.9,5.5z M3.3,5.5L3.3,5.5L3.3,5.5L3.3,5.5L3.3,5.5z M2.4,5.8L2.4,5.8L2.4,5.8L2.4,5.8L2.4,5.8z M2.8,13.9L2.8,13.9
	L2.8,13.9L2.8,13.9L2.8,13.9z M4.4,4.9L4.4,4.9L4.4,4.9L4.4,4.9L4.4,4.9z M3.6,5.2L3.6,5.2z M4.2,5.2L4.2,5.2z M3.5,5.3L3.5,5.3
	L3.5,5.3L3.5,5.3L3.5,5.3z M3.9,5.3L3.9,5.3L3.9,5.3L3.9,5.3L3.9,5.3z M3.1,7L3.1,7L3.1,7L3.1,7L3.1,7z M2.8,6.8L2.8,6.8L2.8,6.8
	L2.8,6.8L2.8,6.8z M3,6.8L3,6.8L3,6.8L3,6.8L3,6.8z M2.8,12.2L2.8,12.2L2.8,12.2L2.8,12.2L2.8,12.2z M3.1,6L3.1,6L3.1,6L3.1,6L3.1,6
	z M2.6,12.6L2.6,12.6z M4,3.8L4,3.8L4,3.8L4,3.8L4,3.8z M5,3.8L5,3.8L5,3.8L5,3.8L5,3.8z M4,3.6L4,3.6L4,3.6L4,3.6L4,3.6z M2.5,14.8
	L2.5,14.8L2.5,14.8L2.5,14.8L2.5,14.8z M2.6,3.9L2.6,3.9L2.6,3.9L2.6,3.9L2.6,3.9z M3.2,15L3.2,15L3.2,15L3.2,15L3.2,15z M2.2,3.8
	L2.2,3.8z M4.6,3.8L4.6,3.8z M3.6,3.6L3.6,3.6L3.6,3.6L3.6,3.6L3.6,3.6z M2.6,15.2L2.6,15.2z M2.3,15.4L2.3,15.4L2.3,15.4L2.3,15.4
	L2.3,15.4z M4.6,3.5L4.6,3.5L4.6,3.5L4.6,3.5L4.6,3.5z M2.6,3.6L2.6,3.6L2.6,3.6L2.6,3.6L2.6,3.6z M3.4,3.6L3.4,3.6L3.4,3.6L3.4,3.6
	L3.4,3.6z M4.8,4.3L4.8,4.3z M3.5,4.4L3.5,4.4L3.5,4.4L3.5,4.4L3.5,4.4z M3.2,4.4L3.2,4.4L3.2,4.4L3.2,4.4L3.2,4.4z M4.8,4.2
	L4.8,4.2L4.8,4.2L4.8,4.2L4.8,4.2z M2.4,14.4L2.4,14.4L2.4,14.4L2.4,14.4L2.4,14.4z M2.6,14.1L2.6,14.1z M2.8,4.7L2.8,4.7L2.8,4.7
	L2.8,4.7L2.8,4.7z M2.3,4L2.3,4z M3,14.8L3,14.8L3,14.8L3,14.8L3,14.8z M2.8,14.8L2.8,14.8z M4.5,4L4.5,4L4.5,4L4.5,4L4.5,4z
	 M3,14.5L3,14.5L3,14.5L3,14.5L3,14.5z M3.3,4.2L3.3,4.2L3.3,4.2L3.3,4.2L3.3,4.2z M2.7,14.5L2.7,14.5z"/>
<path class="st0" d="M1.7,2.1L1.7,2.1C1.7,2.2,1.7,2.2,1.7,2.1z"/>
<path class="st0" d="M1.9,1.7L1.9,1.7L1.9,1.7L1.9,1.7z"/>
<path class="st0" d="M1.8,1.8L1.8,1.8L1.8,1.8L1.8,1.8L1.8,1.8z"/>
<path class="st0" d="M1.9,1.7L1.9,1.7z"/>
<path class="st0" d="M3.8,1.8L3.8,1.8L3.8,1.8L3.8,1.8L3.8,1.8z"/>
<path class="st0" d="M3.2,2.1L3.2,2.1L3.2,2.1L3.2,2.1L3.2,2.1z"/>
<path class="st0" d="M2.9,3L2.9,3z"/>
<path class="st0" d="M3,2.9L3,2.9L3,2.9L3,2.9L3,2.9z"/>
<path class="st0" d="M3.1,1.3L3.1,1.3L3.1,1.3L3.1,1.3L3.1,1.3z"/>
<path class="st0" d="M3.1,1.3L3.1,1.3L3.1,1.3L3.1,1.3L3.1,1.3z"/>
</svg>
