<?xml version="1.0" encoding="utf-8"?>
<!-- Generator: Adobe Illustrator 19.2.1, SVG Export Plug-In . SVG Version: 6.00 Build 0)  -->
<svg version="1.1" id="Layer_1" xmlns="http://www.w3.org/2000/svg" xmlns:xlink="http://www.w3.org/1999/xlink" x="0px" y="0px"
	 viewBox="0 0 11.6 9.8" style="enable-background:new 0 0 11.6 9.8;" xml:space="preserve">
<style type="text/css">
	.st0{fill:#E4D9B8;}
</style>
<title>SK_Icons</title>
<path class="st0" d="M10.7,9.8H0.9C0.4,9.8,0,9.4,0,8.9l0,0C0,8.4,0.4,8,0.9,8l9.8,0c0.5,0.1,0.9,0.5,0.9,0.9l0,0
	C11.6,9.4,11.2,9.8,10.7,9.8z"/>
<path class="st0" d="M10.7,5.8H0.9C0.4,5.8,0,5.4,0,4.9l0,0C0,4.4,0.4,4,0.9,4h9.8c0.5,0.1,0.9,0.4,0.9,0.9l0,0
	C11.6,5.4,11.2,5.8,10.7,5.8z"/>
<path class="st0" d="M10.7,1.8H0.9C0.4,1.8,0,1.4,0,0.9l0,0C0,0.4,0.4,0,0.9,0l9.8,0c0.5,0,0.9,0.4,0.9,0.9l0,0
	C11.6,1.4,11.2,1.8,10.7,1.8z"/>
</svg>
