<?xml version="1.0" encoding="utf-8"?>
<!-- Generator: Adobe Illustrator 19.2.1, SVG Export Plug-In . SVG Version: 6.00 Build 0)  -->
<svg version="1.1" id="Layer_1" xmlns="http://www.w3.org/2000/svg" xmlns:xlink="http://www.w3.org/1999/xlink" x="0px" y="0px"
	 viewBox="0 0 13.1 13.3" style="enable-background:new 0 0 13.1 13.3;" xml:space="preserve">
<style type="text/css">
	.st0{fill:#E4D9B8;}
</style>
<title>SK_Icons</title>
<path class="st0" d="M6.8,0.1c-3.7,0-6.6,3-6.6,6.7c0,2.6,1.6,5,4,6.1c0-0.5,0-1,0.1-1.5l0.9-3.6C4.9,7.3,4.8,7,4.8,6.6
	C4.7,5.8,5.3,5,6.1,4.9C6.6,4.9,7,5.3,7,5.8v0.1C6.9,6.7,6.7,7.5,6.4,8.2C6.3,8.8,6.6,9.3,7.1,9.5c0.1,0,0.2,0,0.3,0
	c1.3,0,2.1-1.6,2.1-3.5c0-1.4-1-2.5-2.4-2.6c-0.1,0-0.2,0-0.4,0C5,3.4,3.6,4.7,3.5,6.5c0,0.1,0,0.1,0,0.2c0,0.5,0.1,0.9,0.4,1.3
	C4.1,8,4.1,8.2,4,8.3L3.9,8.8C3.9,8.9,3.8,9,3.6,9c0,0,0,0-0.1,0C2.6,8.5,2.1,7.5,2.2,6.4c0-1.9,1.6-4.2,4.8-4.2
	c2.2-0.1,4.1,1.6,4.2,3.8l0,0c0,2.6-1.4,4.6-3.5,4.6C7,10.7,6.4,10.4,6,9.9c0,0-0.4,1.5-0.5,1.8c-0.2,0.5-0.4,1-0.7,1.4
	c3.5,1,7.2-1.1,8.1-4.7c1-3.5-1.1-7.2-4.7-8.1C7.8,0.2,7.3,0.1,6.8,0.1"/>
</svg>
