<?xml version="1.0" encoding="utf-8"?>
<!-- Generator: Adobe Illustrator 19.2.1, SVG Export Plug-In . SVG Version: 6.00 Build 0)  -->
<svg version="1.1" id="Layer_1" xmlns="http://www.w3.org/2000/svg" xmlns:xlink="http://www.w3.org/1999/xlink" x="0px" y="0px"
	 viewBox="0 0 13.2 13.2" style="enable-background:new 0 0 13.2 13.2;" xml:space="preserve">
<style type="text/css">
	.st0{fill:#E4D9B8;}
</style>
<title>SK_Icons</title>
<path class="st0" d="M6.6,0.1C3,0.1,0.1,3,0.1,6.6s2.9,6.5,6.5,6.5s6.5-2.9,6.5-6.5l0,0C13.1,3,10.2,0.1,6.6,0.1z M5.4,5.7H5V4.9
	h2.3c0,0.2,0,0.4,0,0.6c0,1.1,0,2.2,0,3.3c0,0.5,0.1,0.6,0.6,0.6h0.4v0.7H5V9.5h0.5c0.2,0,0.4-0.1,0.5-0.3V9.1c0-1,0-1.9,0-2.9
	C6,6,5.9,5.8,5.7,5.7C5.6,5.7,5.5,5.7,5.4,5.7L5.4,5.7z M7.3,3.4c0,0.4-0.4,0.8-0.8,0.8S5.6,3.8,5.6,3.4S6,2.6,6.4,2.6l0,0
	C6.9,2.6,7.3,3,7.3,3.4L7.3,3.4z"/>
</svg>
