<?xml version="1.0" encoding="utf-8"?>
<!-- Generator: Adobe Illustrator 19.2.1, SVG Export Plug-In . SVG Version: 6.00 Build 0)  -->
<svg version="1.1" id="Layer_1" xmlns="http://www.w3.org/2000/svg" xmlns:xlink="http://www.w3.org/1999/xlink" x="0px" y="0px"
	 viewBox="0 0 13.1 13.1" style="enable-background:new 0 0 13.1 13.1;" xml:space="preserve">
<style type="text/css">
	.st0{fill:#E4D9B8;}
</style>
<title>SK_Icons</title>
<path class="st0" d="M11.4,5.5h-1.1c0.1,0.3,0.1,0.7,0.1,1c0,2.2-1.8,4-4,4s-4-1.8-4-4c0-0.4,0.1-0.6,0.1-1h-1V11
	c0,0.2,0.2,0.5,0.4,0.5c0,0,0,0,0.1,0h9c0.2,0,0.5-0.2,0.5-0.4c0,0,0,0,0-0.1L11.4,5.5L11.4,5.5z M11.5,2c0-0.2-0.3-0.5-0.5-0.5
	c0,0,0,0-0.1,0H9.5C9.2,1.5,9,1.7,9,1.9c0,0,0,0,0,0.1v1.5C9,3.7,9.2,4,9.4,4c0,0,0,0,0.1,0H11c0.2,0,0.5-0.2,0.5-0.4c0,0,0,0,0-0.1
	V2L11.5,2z M6.4,4C5,4,3.9,5.2,3.9,6.6S5,9.1,6.4,9.1S9,8,9,6.6S7.8,4.1,6.4,4L6.4,4 M11.5,13.1h-10c-0.8,0-1.5-0.7-1.5-1.5l0,0V1.5
	C0,0.7,0.7,0.1,1.5,0c0,0,0,0,0.1,0h10.1c0.8,0,1.4,0.7,1.4,1.5l0,0v10.1C13.1,12.4,12.4,13.1,11.5,13.1"/>
</svg>
